<svg xmlns="http://www.w3.org/2000/svg" width="1157.07" height="3052.503" viewBox="0 0 1157.07 3052.503">
  <g id="Groupe_27" data-name="Groupe 27" transform="translate(1342.653 -1503.366)">
    <g id="Groupe_25" data-name="Groupe 25" transform="translate(-1689.63 1365.168)">
      <g id="Groupe_3" data-name="Groupe 3" transform="translate(246.993 104.344)">
        <path id="Tracé_37" data-name="Tracé 37" d="M672.307,34.656,501.9,161.33c-38.991,28.983-80.677,61.95-91.453,109.325-10.787,47.418,13.858,97.3,50.16,129.655s82.717,50.582,128.184,67.826c95.572,36.248,147.016,47.382,245.519,74.677,47.242,13.093,187.088,50.558,213.277,66.355s92.135,89.116,43.224,133.17S920.248,858.892,810.619,909.512s-243.9,78.2-425.72,151.718c-75.816,30.657-157.254,54.768-217.674,109.879S76.1,1325.561,125.87,1390.449c27.5,35.85,72.441,53.083,115.68,66.183a1217.529,1217.529,0,0,0,218.486,44.85c76.233,8.47,165.684,16.8,205.623,82.28,44.987,73.76-4.073,167.674-55.458,237.127a2573.806,2573.806,0,0,1-258.534,298.468c-39.794,39.381-84.1,85.117-80.989,141.016,2.692,48.463,42.354,88.2,86.876,107.538s94,22.8,142.058,29.615c47.554,1.99,31.473,5.45,114.213.854s154.519,37.965,120.928,218.942S590.842,2954.6,441.446,3085.6" transform="translate(0 0)" fill="none" stroke="#161615" stroke-miterlimit="10" stroke-width="2"/>
        <path id="Tracé_38" data-name="Tracé 38" d="M236.908,646.585" transform="translate(394.302 1775.447)" fill="none" stroke="#161615" stroke-miterlimit="10" stroke-width="2"/>
        <path id="Tracé_39" data-name="Tracé 39" d="M546.052,35.41A1198.383,1198.383,0,0,0,291.631,216.989c-16.175,15.094-32.756,32.147-36.521,53.945-3.788,21.941,6.714,44.464,22.429,60.234s36.107,25.909,56.395,35.081a1005.007,1005.007,0,0,0,143.088,52.041c73.272,20.514,150,33.135,216.66,69.823S816.622,593.633,810.75,669.5c-5.208,67.283-55.763,120.678-98.815,172.648" transform="translate(444.862 2.188)" fill="none" stroke="#161615" stroke-miterlimit="10" stroke-width="2"/>
        <path id="Tracé_40" data-name="Tracé 40" d="M916.952,235.876C724.562,395.556,485,484.2,260.331,593.911c-15.73,7.682-31.867,15.828-43.181,29.19s-16.632,33.392-8.088,48.67c7.218,12.9,21.977,19.269,35.745,24.641q115.906,45.248,235.629,79.744c51.1,14.72,106.89,30.817,137.415,74.357,37.992,54.2,21.423,129.628-8.755,188.539s-35.315,82.12-69.027,139.744" transform="translate(301.278 583.819)" fill="none" stroke="#161615" stroke-miterlimit="10" stroke-width="2"/>
        <path id="Tracé_41" data-name="Tracé 41" d="M491.758,472.847c-28.515,45.412-91.394,130.7-123.19,173.874L251.144,806.151c-19.538,26.529-40.118,59.122-29.038,90.154,10.506,29.444,44.25,42.248,74.115,51.5q72.01,22.308,144.028,44.613c29.682,9.192,60.675,19.168,82.37,41.414,19.921,20.42,29.514,48.943,33.443,77.2,9.285,66.8-9.75,133.943-28.589,198.706l-129.441,445" transform="translate(342.324 1271.365)" fill="none" stroke="#161615" stroke-miterlimit="10" stroke-width="2"/>
      </g>
    </g>
  </g>
</svg>
