<svg id="Calque_1" data-name="Calque 1" xmlns="http://www.w3.org/2000/svg" viewBox="0 0 841.89 279.81"><defs><style>.cls-1{fill:#5ab031;}.cls-2{fill:#e6007e;}.cls-3{fill:#bcb013;}.cls-4{fill:#403316;}</style></defs><path class="cls-1" d="M563.87,74.08l-.94,0C558,73.9,543,73.41,543,58.58c0-12,11.77-17.55,20.13-17.65h.24c8.1,0,19.56,5.1,19.69,16.44a15.89,15.89,0,0,1-3.72,10.48C574.72,73.27,567.67,74.08,563.87,74.08Z"/><path class="cls-2" d="M563.36,43.93c6.93,0,16.58,4.14,16.69,13.47a12.92,12.92,0,0,1-3,8.51c-3.75,4.4-9.56,5.17-13.18,5.17H563c-5.1-.17-17-.57-17-12.49,0-10,10-14.57,17.16-14.65h.21m0-6h-.3c-11.34.15-23.07,7.9-23.07,20.65,0,7.49,3.62,13.22,10.17,16.13,4.69,2.09,9.88,2.26,12.67,2.35l1,0c7.45,0,13.75-2.59,17.75-7.29a18.87,18.87,0,0,0,4.43-12.46c-.14-12.14-11.65-19.4-22.69-19.4Z"/><path class="cls-3" d="M78.86,240.39c-19.61,0-35.5-6.37-45.95-18.43-20.58-23.72-18.54-52.17-13.2-71.86C25.93,127.15,39.2,106.39,49.59,96,63.15,82.44,84,72.13,101.52,70.36a63.52,63.52,0,0,1,6.56-.34c32.69,0,53.33,26,53.71,50,.53,33.65-31.27,50.87-34.89,52.72l-1,.52-14.23-15.46,1.68-.92c.29-.16,28.18-15.65,28.18-34,0-15.27-11.78-30.73-34.29-30.73-1.62,0-3.28.08-5,.24-14.83,1.42-34.15,15.34-42.39,24.85-13.34,15.36-22.25,42.83-20.74,63.9.81,11.26,4.46,20,10.56,25.27,7.17,6.2,17.82,9.47,30.81,9.47,30.41,0,65.22-17.33,82.93-41.25,6.43-45.08,17.45-85.37,25-103.77C200,42.6,219.15,25,238.39,25a32.47,32.47,0,0,1,16.8,4.74c17.28,10.29,23,34.27,13.8,58.32-15,39.38-53,76.88-81.33,97.3,1.3,11.57,10.1,27,22.17,27h.37c16.89-.46,28-25.51,40.79-54.52,17.38-39.28,37.06-83.81,78.57-83.81.69,0,1.4,0,2.11,0a47,47,0,0,1,35.25,17.53A64,64,0,0,1,380.8,125.5c1.42,14.42-2.2,30.45-9.43,62.2.2.35.46.84.84,1.54,2.72,5.08,11,20.56,18.2,20.56a5.09,5.09,0,0,0,.69-.05c8.83-1.33,17.45-9.5,14.43-60.06a147.49,147.49,0,0,0-4.78-28.78c-1-4-1.9-7.71-2.48-11.41A47.45,47.45,0,0,1,389,97.34c-4.48-8.07-5.24-18.77-1.86-26,2.93-6.26,7.76-9.86,13.25-9.86a13.84,13.84,0,0,1,11.9,7.3c3.69,6.79,4.48,16.24,3.95,23.84C433,81.21,449.06,75.45,463.88,75.45a56.44,56.44,0,0,1,7.61.51c15.07,2.08,27.77,18.66,33.3,28.82,2.81-.87,12.05-4.73,19-7.64,13.51-5.65,17.62-7.29,18.82-7.29a1.7,1.7,0,0,1,.4,0l26.7-1-.9,2.16c-.4,1-39.89,96.91-29.89,115.44A4.39,4.39,0,0,0,542,209a20.93,20.93,0,0,0,3.93.38c45.28,0,77.07-147.62,77.38-149.11l.66-3.11,2,2.49c.4.5,39.93,50.07,61.19,77.58,2.88-2,7.51-6.17,13.19-11.27,19.76-17.76,52.85-47.48,79.49-47.48.66,0,1.31,0,2,.06,34.87,2,41.48,24.51,43.11,74.32.41,12.57,0,77.83,0,78.48v1.49H725.7l-.23-12.37c-.21-5.47-1.6-54.25,14.52-72.52,4.45-5,10-7.7,15.94-7.7a22.46,22.46,0,0,1,2.44.14c18.5,2.14,37.92,26.16,47.68,45-.31-18.07-.67-38.46-1.18-44.53q-.23-2.82-.42-5.58c-1.36-19-2.44-34.06-24.2-34.77h-.53c-16.76,0-45.59,24.42-64.66,40.58-6.71,5.69-12.17,10.31-15.78,12.78,9.3,16.53,12.28,35.11,8,50s-15.49,25-30.51,27.39a120.92,120.92,0,0,1-18.43,1.48c-13.69,0-31.8-2.76-40.25-15.92-5.68-8.85-6.31-19.26-1.81-30.12,6.44-15.53,35.77-31.44,53-39.68-4.49-5.8-10.87-12.64-17.06-19.28-7.07-7.58-13.81-14.81-17.63-20.32-17,59.77-43.22,126.83-94.48,126.83a60.78,60.78,0,0,1-8.33-.58,18.21,18.21,0,0,1-14.09-9.5c-13.84-24.71,11.51-89.76,18.62-106.9-2.92,1.37-6.55,2.7-10.32,4.07-5.76,2.09-11.7,4.26-16.18,6.88-1.93,18.24-9,39.81-31.57,40.84l-1.38,0c-14,0-19-9.86-19.71-13.66-4.28-22,13.71-34.44,29.55-41l.17-.07c-3.6-6.17-11.29-15.2-19.25-16.81a25.17,25.17,0,0,0-4.91-.47c-11.38,0-23.85,6.9-33.87,12.44-1.53.85-3,1.66-4.4,2.41l-.11.07a14.59,14.59,0,0,1-1.6.87c-.83.48-1.71,1-2.66,1.63.61,4.22,1.45,8.19,2.32,12.39a183.37,183.37,0,0,1,3.84,24.3c4,48.59-6.85,78-29.72,80.65a32.15,32.15,0,0,1-3.88.23c-9.93,0-18.5-4.6-26.79-14.44-.8,2.72-2,6.19-2.52,7.57L363,226l-.79.19c-.24.06-24.29,5.84-46.94,5.84-19.18,0-32-4.05-38-12.05-7.44-9.85-9.11-27.29-4.17-43.41,5.91-19.29,19.73-32.51,37-35.35a39.63,39.63,0,0,1,6.4-.55c19.5,0,28.9,16,35.76,27.65l1.21,2.05c9.24-19.61,9.41-32.87,8.48-42.31-.88-9-8.26-32.46-31.43-33.3-.4,0-.8,0-1.19,0-27,0-41.41,33.44-56.72,68.84C257.2,199.15,241.28,236,210.92,236h-1c-13-.34-22.65-8.3-28.41-14.91A55.49,55.49,0,0,1,170,200.46C143.56,225.14,108.87,240.39,78.86,240.39Zm241.29-78.07a45.82,45.82,0,0,0-7.39.7C298.18,165.43,292.69,178.46,291,184c-3.11,10.15-1.55,18.64.56,21.43.75,1,5.44,5.93,24.53,5.93,3.33,0,7-.15,10.8-.45a80,80,0,0,0,14-2.1l3-.67a38.87,38.87,0,0,1,1.36-5.68,38.62,38.62,0,0,0,1.87-9,30.76,30.76,0,0,1-5.74-10.61,31.33,31.33,0,0,0-2.72-6.11C332.75,167.12,329.77,162.32,320.15,162.32Zm359.51,1.21C649.72,177,633.51,188.22,631.49,197a7,7,0,0,0,1.66,6.39c3.63,4.33,14,7.13,26.42,7.13a92,92,0,0,0,14.55-1.19c5.47-.88,12.54-3.78,15.12-12.63s-.56-22.35-7.82-34ZM792.51,209c-8.61-21.43-25.4-45.39-36-46.62l-.54,0a3.3,3.3,0,0,0-2.68,1.43c-5.65,6.39-8.5,27-8.88,45.22ZM237.18,48.11c-11.23,0-21.87,18.55-25.93,26.53s-20.55,46.58-24.9,83c21.44-16,41.13-39.44,55.7-66.3,9.53-17.57,9.3-27.87,7.42-33.41a14.53,14.53,0,0,0-8-8.84A10.45,10.45,0,0,0,237.18,48.11Zm253.65,88c-1.08.48-2.16.9-3.21,1.32-4.13,1.62-8,3.15-11.43,7.6a.66.66,0,0,0-.08.71,2.45,2.45,0,0,0,2,1.23,4,4,0,0,0,.69.05C483.52,147,488.55,140.45,490.83,136.11Z"/><path class="cls-4" d="M238.39,26.54a31,31,0,0,1,16,4.53c16.9,10,21.94,33.46,13.16,56.5-16.47,43.24-59.14,81.12-81.5,97.12,1,12.24,10.56,29.25,23.75,29.25h.41c41.37-1.12,48.09-138.34,119.32-138.33.68,0,1.37,0,2.06,0,29.68,1.08,45.48,27.57,47.69,50,1.39,14.12-2.19,30.06-9.54,62.31,1.19,1.64,11.1,23.34,20.64,23.34a5.7,5.7,0,0,0,.92-.07c11.91-1.79,18.48-15,15.7-61.63-1.15-19.22-5.76-30.06-7.36-40.86a45.38,45.38,0,0,1-9.41-12.13c-4.2-7.56-5-17.76-1.81-24.66,3-6.4,7.55-9,11.89-9a12.28,12.28,0,0,1,10.58,6.51c4.3,7.92,4.33,19.47,3.47,26.2C428.91,85.39,446.11,77,463.89,77a54.44,54.44,0,0,1,7.4.5c15.44,2.12,28.17,20.34,32.67,29,0,0,.06,0,.14,0,2.55,0,36.26-15.11,38.5-15.1.07,0,.11,0,.11.05l24.71-.88s-47.87,115.7-25.71,119.94a22.59,22.59,0,0,0,4.22.41c47,0,78.85-150.3,78.85-150.3s40.74,51.08,62,78.66c11.3-6.6,58.19-59.26,93-59.26.63,0,1.25,0,1.87,0,33,1.86,40,22.31,41.7,72.88.42,12.68,0,78.42,0,78.42H727.17l-.2-10.9c-.21-5.44-1.6-53.66,14.15-71.5,4.17-4.73,9.25-7.19,14.81-7.19a19.15,19.15,0,0,1,2.26.13c19.17,2.22,40.62,29.65,49.49,50.44-.36-20-.74-44.68-1.31-51.57-1.76-21.3-.73-40.9-26.08-41.72h-.57c-23.9,0-69.92,46.69-82.45,54.38,9.45,16.14,12.92,34.94,8.52,50-4.2,14.42-14.89,24-29.3,26.34a118.48,118.48,0,0,1-18.19,1.46h0c-13.93,0-31-2.83-39-15.23-3.48-5.42-7.34-15.08-1.68-28.74,7.83-18.9,51.56-38.46,53.93-39.69-10.11-13.67-32-33.72-37.51-43.82-16.77,59.71-42.95,129-94,129a58.19,58.19,0,0,1-8.12-.57c-41.88-5.76,7.42-118.39,7.42-118.39-5.79,4.27-21.82,7.88-31,13.53-1.13,11.52-5.23,39.1-30.22,40.24l-1.31,0c-12.58,0-17.48-8.59-18.23-12.45-5.72-29.43,30.65-39.45,30.32-40.08-2.85-5.47-11.34-17-21-18.94a25.75,25.75,0,0,0-5.2-.5c-13.63,0-28.57,9.46-39.18,15.14h0a14.31,14.31,0,0,1-1.49.81c-1.18.67-2.38,1.43-3.59,2.23,1.61,11.75,5,21.52,6.28,37.54,4.09,49.82-7.71,76.63-28.4,79a31.35,31.35,0,0,1-3.7.22c-11,0-19.62-6-27.54-16.25,0,1.58-3.18,10.38-3.18,10.38s-23.85,5.79-46.59,5.79c-15.33,0-30.15-2.63-36.81-11.46-7.15-9.48-8.73-26.38-3.93-42.06,5.74-18.74,19.12-31.56,35.78-34.31a37.41,37.41,0,0,1,6.15-.53c21.15,0,29.93,19.77,37.12,31.34,11.25-22.64,10.63-37.46,9.82-45.6-1.05-10.66-9.21-33.79-32.87-34.65-.41,0-.83,0-1.24,0-56.36,0-60.12,141.27-118.39,141.27h-1c-22.53-.59-37.29-25.49-39.06-36.91-27.36,26.44-62.58,41.35-92,41.35-18.22,0-34.23-5.7-44.82-17.91C-2.77,178.54,31,116.76,50.65,97.06c14.15-14.15,34.93-23.58,51-25.21a64.18,64.18,0,0,1,6.41-.33c32.76,0,51.87,26.55,52.21,48.55.52,32.94-30.43,49.51-34.08,51.37l-12.16-13.22s29-15.84,29-35.33c0-15.43-12.1-32.23-35.79-32.23-1.65,0-3.35.08-5.11.24-15.36,1.48-34.82,15.5-43.38,25.36-20.21,23.3-30.71,73.41-10,91.3,7.78,6.72,19.07,9.83,31.79,9.83,28.93,0,65.23-16.06,84.36-42.16,6.86-48.35,18.38-87.76,24.94-103.79,11.89-29,30.64-44.9,48.59-44.9m-53.9,134.28c24.32-17.34,44.88-43,58.88-68.79,14.37-26.5,8.6-39.91-1.27-44.34a11.74,11.74,0,0,0-4.92-1.08c-11.7,0-22.29,17.57-27.26,27.35-4.11,8.09-21.75,49.5-25.43,86.86m294.27-12.3c7.34,0,14.59-12.47,14.81-15.55-6,3.8-13,3.82-18.57,11.14-1.25,1.64.18,4,2.86,4.35a6.8,6.8,0,0,0,.9.06m264.09,61.94h51.86c-7.72-20.3-25.4-48.15-38.06-49.61a5.85,5.85,0,0,0-.71,0,4.78,4.78,0,0,0-3.8,1.94c-6.36,7.19-9,29.75-9.29,47.71m-83.28,1.59a93.19,93.19,0,0,0,14.78-1.21c5.91-.94,13.53-4.09,16.33-13.69,2.88-9.86-1-24.59-8.7-36.34-4,2.09-64.36,26.42-50,43.57,3.87,4.61,14.37,7.67,27.57,7.67m-343.46.76c3.22,0,6.85-.14,10.91-.45,9.89-.77,12.43-1.87,18.29-3,.08-4.1,3.27-10.26,3.33-16.5-5.42-5.93-5.43-11.7-8.69-17-6-9.7-9.34-15.05-19.8-15.05a47.64,47.64,0,0,0-7.63.72c-15.41,2.54-21.18,16.22-22.95,22-3.07,10-1.88,19.21.8,22.77,1.28,1.69,6.62,6.52,25.74,6.52M238.39,23.54c-9.75,0-19.63,4.26-28.57,12.34s-16.9,20-22.79,34.42c-7.55,18.43-18.58,58.7-25,103.75-17.52,23.41-51.66,40.34-81.5,40.34-12.63,0-22.94-3.15-29.83-9.1-5.79-5-9.27-13.4-10.05-24.25C39.14,160.33,47.9,133.33,61,118.23c8.08-9.32,27-23,41.4-24.34,1.63-.16,3.25-.23,4.82-.23,10.09,0,18.61,3.26,24.63,9.42A28.61,28.61,0,0,1,140,122.89c0,17.51-27.12,32.55-27.4,32.7l-3.36,1.84,2.6,2.83L124,173.47l1.54,1.67,2-1A77,77,0,0,0,147,159.48c10.9-11.38,16.54-25,16.31-39.45-.19-12.09-5.71-25-14.77-34.55a55.08,55.08,0,0,0-40.44-17,66.42,66.42,0,0,0-6.71.34C83.55,70.67,62.32,81.15,48.53,94.94c-10.54,10.53-24,31.55-30.27,54.76-5.43,20-7.5,49,13.52,73.25,10.74,12.39,27,18.94,47.08,18.94,29.71,0,63.93-14.74,90.41-38.72A59.13,59.13,0,0,0,180.38,222c6,6.84,15.91,15.07,29.5,15.43h1c31.35,0,47.46-37.27,63.05-73.32,7.37-17,15-34.67,23.95-47.48,9.77-14,19.74-20.47,31.39-20.47.38,0,.75,0,1.13,0,9.39.34,17,4.5,22.58,12.38a43.35,43.35,0,0,1,7.42,19.57c.87,8.82.75,21.07-7.16,38.92-7-11.94-16.69-28-36.8-28a40.34,40.34,0,0,0-6.64.57c-17.81,2.94-32.07,16.54-38.16,36.39-5.07,16.55-3.3,34.54,4.41,44.75,6.33,8.4,19.52,12.65,39.2,12.65,22.83,0,46.31-5.64,47.3-5.88l1.57-.38.54-1.52c.58-1.61,1.2-3.39,1.75-5.07,8.05,8.8,16.46,12.93,26.15,12.93a35,35,0,0,0,4-.24c11.61-1.35,20.58-9.53,26-23.65s7.12-34,5.09-58.61a183.42,183.42,0,0,0-3.86-24.49c-.8-3.85-1.57-7.52-2.16-11.33.6-.38,1.18-.73,1.73-1a18.41,18.41,0,0,0,1.69-.92l.09-.06c1.39-.74,2.83-1.54,4.36-2.39,9.87-5.46,22.15-12.25,33.14-12.25a22.9,22.9,0,0,1,4.61.44c6.9,1.39,13.64,8.83,17.35,14.62-4.22,1.78-11.78,5.26-18.23,11.13-9.32,8.48-13,19.16-10.76,30.9,1.16,6,7.76,14.88,21.18,14.88l1.44,0c11.93-.55,20.88-6.56,26.6-17.87,4.43-8.74,5.81-18.78,6.32-23.55,4.29-2.39,9.87-4.42,15.28-6.39,2.52-.92,4.9-1.79,7-2.65-3.27,8.17-8.56,22.1-13,37.3-9.58,32.6-11,55.31-4.14,67.51a19.68,19.68,0,0,0,15.2,10.25,63.6,63.6,0,0,0,8.53.59c12.73,0,24.73-4.16,35.64-12.36,9.55-7.17,18.55-17.66,26.75-31.19,15.12-25,25.71-57.27,32.69-81.43,4,5.19,9.84,11.46,15.93,18,5.65,6.06,11.47,12.3,15.82,17.72-20.84,10.09-45.93,24.83-52.06,39.64-4.7,11.34-4,22.23,1.93,31.51,7,10.87,21.33,16.61,41.51,16.61A122.09,122.09,0,0,0,677,232.7c15.61-2.51,27.17-12.88,31.71-28.46,4.34-14.87,1.55-33.34-7.43-49.92,3.64-2.64,8.7-6.93,14.79-12.08C733.79,127.19,763.51,102,779.72,102h.48c19.47.64,21.26,12.49,22.76,33.38.13,1.84.26,3.71.42,5.59.44,5.35.77,22,1.07,38.32A127,127,0,0,0,789,158.11c-7.28-8-18.49-17.83-30.47-19.22a23,23,0,0,0-2.61-.15c-6.42,0-12.33,2.84-17.06,8.21-7,8-11.66,22.11-13.79,42.06A236.35,236.35,0,0,0,724,220.52l.2,10.87.06,2.94H826.38v-3c0-2.68.41-65.94,0-78.54-.94-28.76-3.67-45-9.42-56C810.35,84.12,799.53,78,781.86,77c-.67,0-1.36-.06-2-.06-27.22,0-60.57,30-80.49,47.86-4.77,4.28-9,8.1-11.9,10.31C666,107.41,627.52,59.2,627.12,58.7l-4-5L621.84,60a616.75,616.75,0,0,1-21.69,74.79c-17.62,47.84-36.37,73.13-54.22,73.13a18.82,18.82,0,0,1-3.65-.36,2.79,2.79,0,0,1-2-1.68c-2.21-4.1-3.7-17.77,11.2-63.27,8.63-26.35,18.66-50.65,18.76-50.89L572,87.36l-4.66.17-24.2.86a2.92,2.92,0,0,0-.51,0h0c-1.43,0-4.33,1.11-19.39,7.41-6.13,2.56-14.11,5.9-17.71,7.19-6-10.47-18.68-26.39-33.8-28.47a57.63,57.63,0,0,0-7.8-.53c-14.4,0-29.87,5.3-46.07,15.76.16-7.22-.9-15.48-4.27-21.68A15.33,15.33,0,0,0,400.34,60c-6.1,0-11.42,3.91-14.61,10.73-3.57,7.67-2.79,18.93,1.91,27.39a49.6,49.6,0,0,0,9.23,12.18c.59,3.6,1.48,7.21,2.42,11A147.15,147.15,0,0,1,404,149.78c2.94,49.35-5,57.26-13.16,58.48a2.42,2.42,0,0,1-.47,0c-2.87,0-8.14-3.43-16.88-19.77-.23-.42-.41-.77-.57-1.05,7.18-31.55,10.77-47.56,9.33-62.13a65.36,65.36,0,0,0-14.22-34.62,48.48,48.48,0,0,0-36.35-18.08c-.71,0-1.44,0-2.16,0h0c-19.07,0-35.36,9.23-49.79,28.2-12.32,16.2-21.38,36.69-30.14,56.5-12.1,27.36-23.52,53.2-39.46,53.63h-.33c-10.77,0-19-14.17-20.57-24.85,28.41-20.65,66.13-58.1,81.13-97.46,9.42-24.74,3.49-49.47-14.44-60.14a34,34,0,0,0-17.56-4.95ZM188.3,154.22c5-35.38,21.1-72.62,24.29-78.9,8.18-16.1,17.37-25.71,24.59-25.71a8.82,8.82,0,0,1,3.69.81,12.92,12.92,0,0,1,7.18,8c1.78,5.26,1.95,15.12-7.32,32.22-13.81,25.47-32.26,47.81-52.43,63.62Zm289.53-8.85c2.76-3.33,5.91-4.78,9.25-6.12-2.34,3.19-5.49,6.27-8.32,6.27l-.48,0a2.07,2.07,0,0,1-.45-.12Zm268.08,62.09c.57-20.3,4-37.62,8.48-42.73.82-.92,1.21-.92,1.55-.92a2.36,2.36,0,0,1,.37,0c9.63,1.11,25.41,23.48,34,43.63Zm-429.8,2.35c-18.78,0-22.93-4.79-23.34-5.33-1.86-2.47-3.25-10.55-.33-20.09,1.6-5.22,6.81-17.62,20.57-19.89a45,45,0,0,1,7.14-.68c8.79,0,11.27,4,17.25,13.63a30.69,30.69,0,0,1,2.58,5.83,33,33,0,0,0,5.61,10.62,39.71,39.71,0,0,1-1.77,8.09c-.49,1.69-1,3.31-1.24,4.85-.71.15-1.38.31-2,.46a80.14,80.14,0,0,1-13.76,2.07c-3.81.29-7.4.44-10.68.44Zm343.46-.76c-13.64,0-22.52-3.31-25.27-6.6a5.48,5.48,0,0,1-1.35-5.08c1.32-5.73,10.59-16,47.32-32.48l.56-.25c6.46,10.92,9.31,23.64,7,31.67-1.89,6.5-6.58,10.39-13.92,11.57a90.12,90.12,0,0,1-14.31,1.17Z"/></svg>