<svg id="Calque_1" data-name="Calque 1" xmlns="http://www.w3.org/2000/svg" viewBox="0 0 841.89 279.81"><defs><style>.cls-1{fill:#5ab031;}.cls-2{fill:#e6007e;}.cls-3{fill:#bcb013;}.cls-4{fill:#403316;}</style></defs><path class="cls-1" d="M551.35,78.34l.38-1.55c1.43-5.83,1.93-11.94,1.09-13-2.61-.37-5.63-3.51-8.3-6.28-.54-.56-1.19-1.23-1.76-1.79,0,.31,0,.61.06.86.18,2.26.24,3.47-.49,4.26a1.71,1.71,0,0,1-1.28.57c-1.06,0-1.86-.76-3.32-3.11-3.22-5.22-9.63-5.37-13.45-5.46a20,20,0,0,1-2.34-.13,2.34,2.34,0,0,1-2.16-2.51c.19-2.46,4.15-5.49,7.18-5.49,1.82,0,4.6,1.39,7.55,2.85a40.43,40.43,0,0,0,4.65,2.08c1.15-2.26,5.89-3.47,10.32-4.1a7.74,7.74,0,0,1,1.57-3.49,5,5,0,0,1,3.88-2c1.63,0,3.22.87,4.74,2.6a10.07,10.07,0,0,1,0-1.63,4.46,4.46,0,0,1-.34-4.52C561,32.88,567.09,31,571.93,31a15.72,15.72,0,0,1,5.71,1,9.11,9.11,0,0,1,6.16,8.23c.13,3-1.09,5.91-2.83,6.78-.61.31-.81.77-1.36,2.47a28.46,28.46,0,0,1-2,4.9l-.38.71c-1.2,2.31-1.87,3.58-4.61,3.58-.59,0-1.28,0-2.17-.1s-2.23-.14-3.82-.2h-.11c-5.46,0-8,13.24-8.85,17.58a7.27,7.27,0,0,1-.68,2.56l-.54.82Z"/><path class="cls-2" d="M571.93,32.45a14.27,14.27,0,0,1,5.16.88c7.47,2.93,5.34,11.2,3.2,12.27s-1.6,3.47-4,8c-1.52,2.89-1.65,3.51-3.66,3.51-1.15,0-2.93-.21-5.94-.31h-.16c-8.14,0-10.25,20-10.78,20.81l-2.56-.46s3.52-14.39-.11-14.82-9.73-9.17-11.38-9.17h0c-1.22.08.46,6.77-.63,6.77-.35,0-1-.66-2-2.4-4.48-7.25-14.07-5.86-16.84-6.29s1.49-5,4.79-5c2.8,0,10.41,5,12.74,5,.43,0,.68-.17.7-.56.1-2.56,10.55-3.84,10.55-3.84-.35-1.53,1.27-5.35,4-5.35,1.43,0,3.17,1.06,5.08,4.07,2.23,3.52,3.72,4.57,4.7,4.57,1.46,0,1.8-2.33,1.8-2.33-6.29-1-5.33-7.25-5.33-7.25-3.37-4.21,3.88-8.13,10.75-8.13m0-3c-5.43,0-12,2.19-14,6.37a6,6,0,0,0-.57,3.2,6.08,6.08,0,0,0-2.43-.5h0a6.46,6.46,0,0,0-5,2.61,9.26,9.26,0,0,0-1.62,3.09c-4.84.79-8,2-9.64,3.65-1-.44-2.41-1.12-3.44-1.64-3.77-1.86-6.2-3-8.22-3-3.88,0-8.42,3.6-8.67,6.88a3.82,3.82,0,0,0,3.42,4.1,19.53,19.53,0,0,0,2.53.15c4.77.11,9.64.57,12.22,4.75,1.29,2.09,2.52,3.82,4.59,3.82a3.23,3.23,0,0,0,2.38-1,3.79,3.79,0,0,0,1-2.32c2.71,2.77,5,4.81,7.25,5.52.31,1.88-.27,6.81-1.38,11.36l-.75,3.09,3.13.57,2.57.46,1.94.35,1.09-1.64c.43-.64.54-1.21.9-3.1,2.75-14.24,5.8-16.37,7.38-16.37h.06c1.57.05,2.79.13,3.77.2s1.64.11,2.27.11c3.65,0,4.66-1.94,5.94-4.39l.37-.71a29.7,29.7,0,0,0,2.1-5.14,8.45,8.45,0,0,1,.6-1.6c2.58-1.28,3.79-5.08,3.66-8.18a10.56,10.56,0,0,0-7.11-9.55,17,17,0,0,0-6.26-1.09Z"/><path class="cls-3" d="M131.8,258.68c-16.87,0-35.2-4.26-43.18-8.37-9.47-4.89-12.4-10.93-15-16.25a48.27,48.27,0,0,0-2.56-4.85c-4.3-6.85-4-13.34-3.3-18.24.43-3-4.08-13.22-6.26-18.14-.78-1.78-1.4-3.18-1.75-4.11-1.09-2.79-1.56-3.14-3.85-4.83-.59-.44-1.28-.95-2.11-1.6a3.15,3.15,0,0,1-1.39-2.79c.19-2.47,3.44-4.27,6.58-6,.83-.47,1.91-1.06,2.48-1.47a12.54,12.54,0,0,0-5.22-2.64,2.54,2.54,0,0,0-.37-.07,1.75,1.75,0,0,1-1.51.86,2.7,2.7,0,0,1-1.35-.44,2,2,0,0,1-1-2.33,19.7,19.7,0,0,0-3.79-1,19.52,19.52,0,0,0-3.52-.37,6.93,6.93,0,0,0-4.89,1.73,12.22,12.22,0,0,1-3.06,1.77,9,9,0,0,1-3.15.66,7,7,0,0,1-2-.33,4.75,4.75,0,0,0-1.42-.24,3.39,3.39,0,0,0-.44,0c-1.25.12-2.93,2.48-3.67,4L23,180.17,23.2,173c0-1.13-.22-3-.87-3.71a.56.56,0,0,0-.44-.19,3.66,3.66,0,0,0-1.87.81c-2.62,1.81-5,2.73-6.94,2.73a4.23,4.23,0,0,1-2.91-.94l-2.66-2.5,3.66-.09s4.18-.17,5-3.15,2.85-6.3,4.79-9.49c.87-1.43,1.77-2.92,2.53-4.32,2-3.74,3.53-10.66,4.58-21.15,1-9.83,11.09-13.57,11.52-13.73l2.31-.83-.31,2.43c-.22,1.75-.13,4.68.77,5.7a.91.91,0,0,0,.76.33h.1a3.54,3.54,0,0,0,2.57-1.2A8.08,8.08,0,0,0,47.24,118c-.32-4.88,6.73-9.11,9.23-10.58a2.45,2.45,0,0,1,0-1.86c.65-1.8,2.35-1.89,3.47-2a7.24,7.24,0,0,0,1.6-.21,7.18,7.18,0,0,0,0-.92,9.4,9.4,0,0,1,.78-4.77c.94-1.94,5-3,15.38-5.33,5.88-1.31,16.81-3.75,17.74-5.56,1.83-3.55,7.24-8.78,9.68-8.78a1.82,1.82,0,0,1,1.49.73,2.14,2.14,0,0,1,.21,2,4.67,4.67,0,0,0,.26,2.69c.89-1.45,3.71-5.29,5.85-5.29h.18c1.25.12,3.27,1.66,5.1,3.3a5.56,5.56,0,0,1,1.17-1,3.68,3.68,0,0,1,2-.57,6.71,6.71,0,0,1,2.19.47,5.31,5.31,0,0,0,1.34.33c.08-.14.18-.36.27-.54A12.43,12.43,0,0,1,127.2,77c2.12-2.39,8.32-3.81,13.1-3.81a15.45,15.45,0,0,1,5.35.79c3.2,1.2,3.29,3.79,3.36,5.87s.13,3.88,2.29,5.68a7.65,7.65,0,0,0,5.85,2.1,16.42,16.42,0,0,1,7.5,1.7,3.44,3.44,0,0,1,2.15,2.59c.4,2.57-2.43,5.24-5.71,8.34-2.08,2-5.23,4.93-5.15,6.26,0,.07,0,.21.33.45l1.71,1.26a5.42,5.42,0,0,1,2.2,1c4.56,2.61,4.54,5.79,4.52,8.12v.34c.42.69,3.31,1.83,6,2.38l.26,0,9.13,5.61c.2.14,3.7,2.54,3.39,6.15-.25,2.9-2.87,5.49-7.8,7.68a12.18,12.18,0,0,1-4.87,1.21,6.15,6.15,0,0,1-4.82-2.16c-2-2.38-2.46-6.24-2.44-9.17a10.19,10.19,0,0,1-2.17.65,3.82,3.82,0,0,1-.75.08c-3.08,0-4.52-3.51-5.91-6.89a18.89,18.89,0,0,0-2.69-5.16c-2.69-2.91-7.93-2.91-9.91-2.91a1.62,1.62,0,0,1-1.55-1c-.47-1.22.28-1.9,3.07-4.45,3.42-3.12,10.54-9.62,10.46-13.86A3,3,0,0,0,153,93.49a24.78,24.78,0,0,0-16.49-6,27.77,27.77,0,0,0-4.17.31,12.48,12.48,0,0,1-1.82.13,14,14,0,0,1-4.4-.79,5.79,5.79,0,0,0-1.32-.33c-.06,0-.12,0-.29.22-.79,1.08-3,2.41-6.89,4.66-3.3,1.92-10.16,5.92-10.48,7.46-.35,3.73-3,4-3.83,4a4.34,4.34,0,0,1-1.38-.22l-1-.34,0-1c-.07-1.18-3.4-4.68-5.07-5.51a33.83,33.83,0,0,0-.52,3.61c-.41,3.58-.84,7.29-2.48,9.05a6.62,6.62,0,0,1-5,2.21c-2.27,0-4.7-1.11-7-3.21-2.11-1.89-2.1-4.22-2.09-5.93,0-2.25,0-3.09-3.79-3.35l-.69,0c-1.47,0-2.45.35-2.91,1.06-.94,1.46,0,4.41.41,5.32l1.21,2.72-2.9-.64a2.91,2.91,0,0,0-.6-.06c-3.91,0-10.27,7-14.26,12.44,3.65.42,9.25,1.28,10.92,2.73,1.37,1.2,1.63,3.92.62,6.63a9.11,9.11,0,0,1-8.83,6.1l-.75,0c-.53,0-1-.05-1.53-.05-6.14,0-8.31,2.62-10.33,5.79a11.85,11.85,0,0,1-5.07,4.58,7.66,7.66,0,0,0-1.64,1c-.53.54-1.06,3.36-1.3,6.64a21.53,21.53,0,0,1,10.61-3.1,16.68,16.68,0,0,1,8.17,2.17l.44.23c1.84.82,1.63,3.23,1.37,6.28a18.35,18.35,0,0,0-.06,4.54,2.17,2.17,0,0,0,.54.05,17.72,17.72,0,0,0,3.17-.51,21,21,0,0,1,4.24-.63,6.1,6.1,0,0,1,1.67.21,3,3,0,0,1,2,1.79c.89,2.19-.56,5.7-1.56,7.71a5.78,5.78,0,0,1,1.91,3.45c.46,3.21-2.08,6.26-3.6,8.08l-.47.56c.38.3.91.68,1.37,1,2.06,1.5,4.89,3.54,6.33,6.14,2.36,4.24,2.89,16.48,2.39,21.46-.34,3.36,0,4,2.52,8.9.81,1.57,1.83,3.54,3.09,6.13,3.9,8,11.15,9.66,16.54,9.66h.11c.31-.34,1.34-2,2.46-8.9a3.44,3.44,0,0,1,3.57-3.12,5.14,5.14,0,0,1,1.54.24l1.26.44-.26,1.2c.84,2.18,13.15,6.86,17.81,8.63,5.3,2,7.08,2.73,7.75,3.44a1,1,0,0,0,.73.23c1.34,0,3.36-1.27,4.6-4,.47-1.07.21-1.52.12-1.67-.58-1-2.69-1.48-3.63-1.57l-1.32-.12-.17-5.58,1.37-.16a22.45,22.45,0,0,1,2.58-.15,18.88,18.88,0,0,1,14.68,6.54c2.11,2.61.93,6.44-.5,9.27a17.53,17.53,0,0,0,1.55-1.93,9.31,9.31,0,0,1,3.66-3.47,4.66,4.66,0,0,1,1.74-.35c1.89,0,3.33,1.22,4.48,2.2a5.4,5.4,0,0,0,1.93,1.28l.25,0a.5.5,0,0,0,.41-.14c.27-.28.87-1.38.67-5.53-.16-3.45,2.59-6,4.79-8.06.82-.76,2.17-2,2.27-2.53l0-.05a2.93,2.93,0,0,1-.56-3.28c1.61-3.73,11.1-7.5,26.11-7.5l2.22,0h0c1.6,0,3.58-.93,5.36-8.18a6.7,6.7,0,0,0-.94-5,2.58,2.58,0,0,1-1.23.87,2.35,2.35,0,0,1-.79.14c-4.13,0-9.7-12.71-10.78-18.11s-1.15-5.36-2-6.07c-.23-.18-.48-.38-.77-.63-2.11-1.83-2.08-8.67-1.91-12.2a4.27,4.27,0,0,1-.8-4.42c1-2.81,4.21-5.27,7-5.27a4.26,4.26,0,0,1,4.12,3.07c.25.8.35,1.13,1.4,1.42a14.18,14.18,0,0,1,6,4,9.29,9.29,0,0,0,1.23,1.11c2,.66,1.55,2.77,1.37,3.68a7.32,7.32,0,0,0-.17,1.25,16,16,0,0,0,7.12,2.31h.17c0-3.4.17-6.54,1.36-8.28.28-.41.07-1.15-.29-2.32a14,14,0,0,1-.64-2.78c-.29-2.76,2.95-6.61,4.22-8,.57-1.76-1.15-8.61-2.29-13.19l-.51-2.05c-1.63-6.62-6.59-20.41-8.88-24-2.44-3.88-.25-11.5.56-13.94-2.05-4.1,1.58-10.21,2.8-12.07a16.54,16.54,0,0,1,1.79-7.94c.66-1.46.37-2.58,0-4.13a11.77,11.77,0,0,1,.25-8.07c1.52-3.94,5.32-6.36,8.68-8.49,2.07-1.31,4-2.55,4.83-3.81C229,46.88,240,38.73,247.08,37.42a27,27,0,0,1,11.41.23c.42.09.8.17,1.1.21a33.09,33.09,0,0,0,2.14-3.24c2.5-4.11,5.34-8.77,8.82-8.77a3.74,3.74,0,0,1,1.15.18c3.55,1.14,2.8,4.35,2.3,6.47-.56,2.39-.81,3.94.5,5.25,3.27,3.27,3.38,8.15,3.17,10.7,6.17.79,9.1,5,9.22,8,.07,2.13-2.52,3.5-5.8,5.23-2,1.08-4.6,2.42-5.28,3.5-1.63,2.59-5,3.66-6.81,4a30.75,30.75,0,0,1-2.73,6.16c1.07,2.25.87,5,.66,7.76,0,.63-.09,1.27-.12,1.89,0,.42,0,.75,0,1,0,.91-.06,2.27-1.81,2.45a4.76,4.76,0,0,0-2.17.89,6.52,6.52,0,0,0-2.6,3.14c-.61,1.24-1.36,2.79-3.46,3.23-1.94.41-7.22,7.14-8,8.88a6.93,6.93,0,0,0,.89.6c.79.49,1.7,1,1.81,2.12.18,1.8-1.52,3.18-3.58,4.67-.64.46-1,3.47-.76,6.54,1.88.32,4.93,1,6.19,2.28a3.24,3.24,0,0,1,.64,3.45,5.29,5.29,0,0,1,4.3,3.65c1.52,4.46-2.79,8-5,9-.45.19-1.31,1.62-1.38,3.68-.09,2.5-2.48,3.78-4.58,4.91a20.48,20.48,0,0,0-2.21,1.32,3.62,3.62,0,0,1-2.21.73,6.84,6.84,0,0,1-2-.37,4.19,4.19,0,0,0-1-.23c-.28,0-.61.78-.71,1-1.53,3.75-6.46,5.2-8.86,5.7.68,3.5,6,14.06,9.78,17.73,4.89,4.69,5.85,15.77,5.54,20.4-.24,3.7-2.52,6.28-4.72,8.78a26.37,26.37,0,0,0-3.51,4.63c-2,3.61-1.9,8.12-1.85,11.75,0,.84,0,1.62,0,2.31a11.68,11.68,0,0,1-.72,4.06A5.09,5.09,0,0,1,237,227.6c0,2.1-1.06,3.66-2.63,3.8-1.32.12-5,1.52-5.89,3a.78.78,0,0,0-.1.62c2.47,0,9.62-5,13.07-7.34,1.61-1.12,2.77-1.92,3.43-2.27.93-.57,2.18-5.22,2.76-10.18a5.31,5.31,0,0,1-1.54-2.74c-1.35-5.69,4-15.46,4.84-16.74.49-.93.6-6.09.66-8.87a40.81,40.81,0,0,1,.24-4.71c-.43-1-.86-3.2-.86-8.07,0-5.63,4-8.68,7.26-11.13,1.63-1.23,3.16-2.39,3.6-3.49s-.16-2.28-1.26-4c-1.19-1.84-2.68-4.14-1.53-7,1.09-2.67,4.77-4.54,8.94-4.54,4.46,0,8,2.2,9.59,5.89,3.48,8.33-1.63,15-8.24,17.88a5.77,5.77,0,0,0-3.58,3.45,4.2,4.2,0,0,0-.09,2c.48-.36,1.06-.83,1.51-1.2,2-1.6,3.13-2.5,4.27-2.5a4.34,4.34,0,0,1,2.23.66,3.84,3.84,0,0,0,2,.58c2.7.14,4.18,1.13,5,3.39a5.51,5.51,0,0,0,.95.07,25.39,25.39,0,0,0,4-.44c-.64-1.5-1.22-3.57-.47-5.17s2.81-2.36,5.25-3.35c1.72-.7,3.86-1.56,4.59-2.44a2.67,2.67,0,0,0,.62-2.75,11.16,11.16,0,0,1-.18-2.49c.09-2,2.25-4.31,5.52-7.66a24.35,24.35,0,0,0,3.12-3.52,4,4,0,0,1,3.78-2.34c.08-2.68.56-4.4,1.51-5.37a2.75,2.75,0,0,1,2-.88,3.93,3.93,0,0,1,2.39,1,86.24,86.24,0,0,0,9.45,5.42,4,4,0,0,1,.25-1.46c1.47-4.13,9.71-7.77,11.35-8.46l1-.4,5.64,6.15c2.23-1.2,7.54-3.74,12.46-3.74a14.09,14.09,0,0,1,1.62.1c2.62.33,3.77,1.62,4.27,2.65a6.93,6.93,0,0,1-.1,5.26c3.09.32,5.36,1.33,6.77,3a6.24,6.24,0,0,1,1.17,2.09,6.44,6.44,0,0,1,2.41-.51,4.71,4.71,0,0,1,1.36.2,2.69,2.69,0,0,1,1.75,1.58c.67,1.7-.41,3.8-1.76,6.16l-.09.14c.35.26,1.38.75,4.37,1.32.61.12,1.89.37,2.26,1.51a2.22,2.22,0,0,1-.76,2.23l-.18.19a2.88,2.88,0,0,0,.28.21,39.78,39.78,0,0,1,4.79,4.11c-.38-3.33.06-4.52.6-5.18a2.07,2.07,0,0,1,1-.71,165.38,165.38,0,0,0,.09-27.33c-1.15-14.88-9-26.62-21.06-31.41-4-1.58-10.69-2.57-17.46-2.57s-29.25,1.19-37.12,16.53c-8.64,16.85-10.07,16.85-11.22,16.85a1.71,1.71,0,0,1-1.24-.52,2,2,0,0,1-.53-1.43l0-.87.63-.34c.59-.82,1.58-4.64,2.31-7.44,1-3.92,2.06-8,3.31-10.47,1.56-3.12,4.69-6.18,6.76-8.2.31-.31.66-.64.95-1-.06-.09-.13-.19-.19-.3a7.28,7.28,0,0,1-.26-6,2.39,2.39,0,0,1,2.23-1.49,4.76,4.76,0,0,1,2.57,1c2.15-9.37,13-13.57,17.37-13.57a2.85,2.85,0,0,1,2.6,1.08c1,1.6,0,5-1.44,8.31l.34,0a2.31,2.31,0,0,1,2.44,1.72,109.7,109.7,0,0,1,20.7-2.68c1,0,1.92,0,2.71.11,2.71.27,4.56,1.23,5.5,2.85a4.85,4.85,0,0,1,.64,2.53c.48,0,.94-.05,1.38-.05,5.76,0,7.78,2.79,9.56,5.26.29.39.57.79.88,1.17.82,1,3.84,2.34,6.27,3.39,4.3,1.85,7,3.09,7.61,5a2.57,2.57,0,0,1-.21,2.13c-.85,1.6-.18,12.77,1,22.66,5.07.91,13.24,5.27,17.15,10.21,1.73,2.19,2.44,4.28,2.12,6.2-.7,4.09-6.36,6.19-11.83,8.22-3.86,1.43-8.23,3.05-9,4.87s.36,3.11,2.91,5.23c1.62,1.33,3.28,2.71,3.44,4.64a2.52,2.52,0,0,1-.65,1.9c-1.4,1.57-4.72,1.79-9.25,1.93l-1,0a11.77,11.77,0,0,1-.81,11.19c-1.9,2.38.38,6.16.4,6.2l1.68,2.74-3.18-.47a33.71,33.71,0,0,0-4.42-.32c-3.35,0-4.94.64-5.3,1.24-.27.45.08,1.27.32,1.72,2.59,5,.66,8-.62,10.05-.8,1.25-1,1.68-.79,2.1a2.5,2.5,0,0,0,.17.29c.17-.07.45-.21.64-.31a5.45,5.45,0,0,1,2.47-.75,3.44,3.44,0,0,1,2.16.78c2,1.53,1.75,4.55,1.53,7.47a14.07,14.07,0,0,0,.11,4.8c.45,1.25,6.7,3.7,11.28,3.7a4,4,0,0,0,2.15-.37c.34-2.89,3.27-8,7.18-8.17l-.21-.08c-4.82-1.71-7.57-4.29-8.15-7.65-1.15-6.62,6.7-13.63,9.14-15.62a3.85,3.85,0,0,1,2.54-.73,22.31,22.31,0,0,1,5,.81,27.27,27.27,0,0,0,2.69-4.82c1.23-2.71,3.79-4.08,7.63-4.08a41.6,41.6,0,0,1,9.14,1.48l1.41.33a4.82,4.82,0,0,1,1.81-3.54c.25-.26.52-.53.79-.85a1.47,1.47,0,0,0,.29-1.18c-.09-.67-.6-2.48-3.67-4.71a5.15,5.15,0,0,1-2.11-3.51c-.37-2.49.83-5.28,1.92-7.21-2.61-.57-4.25-2.64-4.46-5.75-.3-4.3,3.4-5.46,5.84-6.23,1.7-.54,2.82-.94,2.89-1.58.38-4-11.55-36.29-16-38-5.7-2.25-6.14-7.72-6.33-10,0-.3,0-.55-.07-.73s-.17-.39-.9-1a18.15,18.15,0,0,1-3-3.14,8.08,8.08,0,0,1-1.32-5.18c0-1.94-.12-2.1-1-2.34a4.44,4.44,0,0,0-1.21-.2,1.1,1.1,0,0,0-.77.25,2.45,2.45,0,0,1-1.42.52,2.92,2.92,0,0,1-1.9-.9c-.42-.39-.64-.39-.79-.39a4.48,4.48,0,0,0-.88.15,9.06,9.06,0,0,1-1.85.24h-.39a2.82,2.82,0,0,1-2.69-1.92,1.6,1.6,0,0,0-.9-1,2.93,2.93,0,0,1-1.67-2.25,3.91,3.91,0,0,1,.88-2.72,6.4,6.4,0,0,1-.33-6.35c2.13-4.26,8.64-6.49,10.51-6.49a2.21,2.21,0,0,1,.39,0c1.77.27,3.22,2.5,4.08,4.19a9.41,9.41,0,0,1,2.14.42l1.18.37-.15,1.23c.05,1.38,3.66,9.89,7.38,17.87,2.09-1.49,5.94-4,8.95-4.54a3.29,3.29,0,0,0,2.81-2A4.2,4.2,0,0,1,428.53,90a2.59,2.59,0,0,1,1.23-.32,3.4,3.4,0,0,1,2.63,1.59,80.56,80.56,0,0,1,21.05-2.43c4.27,0,7.79.23,9.9.42a4.4,4.4,0,0,1,2.09-3.84,3.6,3.6,0,0,1,2-.55c3.12,0,8.77,4.08,8.77,6.33a.75.75,0,0,0,.13.25,3.83,3.83,0,0,1,2.33-.94,2.43,2.43,0,0,1,.75.11,3.09,3.09,0,0,1,1.88,2.08,2.37,2.37,0,0,0,1.6,1.72c3.08,1.07,4.37,4.22,5.87,7.86.2.5.41,1,.63,1.52a6.45,6.45,0,0,0,.42.84l2.74-5.6v6.44a9.16,9.16,0,0,0,1.23,3.05c1,1.94,2.08,3.94,1.36,5.8a4,4,0,0,1-3.69,2.52v2.68A17,17,0,0,1,494,132.83c-1.18,4.85-5.42,6.92-9.53,8.91-2.6,1.26-5.29,2.56-7.05,4.55-3.05,3.44-1.37,10.56-.12,14l.6-.05h.29a3.46,3.46,0,0,1,1.22.21,25.75,25.75,0,0,1,1.8-2.82c-.77-2,.68-4.23,1.89-6.1a5.38,5.38,0,0,1,4.83-2.76c.06-.06.11-.13.17-.2a5.91,5.91,0,0,1,2.26-1.75,2.81,2.81,0,0,1,1.09-.23,3,3,0,0,1,2.52,1.57,4.12,4.12,0,0,1,2.09-.6,3.32,3.32,0,0,1,.77.09c.27,0,.54-.1.79-.16-.22-1.14.37-3.41,4.6-8.31a13.33,13.33,0,0,1,.15-6.64c.66-2.13,1.8-2.64,2.65-2.69h.15c2.42,0,3.19,3.31,3.36,6.62a27.75,27.75,0,0,0,5.94-.94,4.87,4.87,0,0,1-.84-4.07c.52-3.59,4.42-4.86,7.18-5.32a5.51,5.51,0,0,1,1.42-4.21c1.47-1.94,1.48-2.78,1.5-3.6a4.84,4.84,0,0,1,.4-2.1,3.36,3.36,0,0,1,2.74-1.84,1.66,1.66,0,0,1,.19-.83,1.72,1.72,0,0,1,1.58-.94,6.78,6.78,0,0,1,2.6.87c.41.18,1,.46,1.43.61.45-.86.84-3.35-.16-4.79a17.77,17.77,0,0,0-2.84-2.34c-2.87-2.1-6.12-4.49-6.38-7.33a4,4,0,0,1,1.18-3.2,4.91,4.91,0,0,1,3.64-1.65A8.17,8.17,0,0,1,533,96.9a22.54,22.54,0,0,0-1.16-4.51,5.67,5.67,0,0,1,.68-5.38c2.07-3,6.51-4.29,9-4.29a5.48,5.48,0,0,1,1.2.12,2.9,2.9,0,0,1,2.07,1.61,5.55,5.55,0,0,1,0,3.67,13.51,13.51,0,0,1,3.13-.43c4.07,0,5.28,2.69,5.35,4.11l.05,1.11c.27.49.63,1.1.94,1.63,1.52,2.57,3.61,6.09,3.61,9.06a5.84,5.84,0,0,0,0,.65,1.82,1.82,0,0,1,.89.58c.61.72.64,1.67.16,4.4a13.84,13.84,0,0,1-4.88,8.76c.23,2.14,0,3.5-.71,4.46a4.34,4.34,0,0,1-3.2,1.46,4.12,4.12,0,0,0-2.38.82c-2.79,2.44-7.71,10.27-8,14.3-.09,1.12.95,1.6,3.91,2.39,2.23.59,4.53,1.2,5.28,3.18s-.29,4.25-3,7a19.77,19.77,0,0,1-5.49,4.19,3.22,3.22,0,0,1-1.09.2,3.58,3.58,0,0,1-2.42-1.11,1.91,1.91,0,0,0-.35,1.42c.16,1.12,1.17,2.39,2.85,3.57a7.17,7.17,0,0,1,3.15,7.29c-.55,2.39-2.51,4-5.37,4.45a7.06,7.06,0,0,1-1.21.1,7.65,7.65,0,0,1-3-.64c0,.13,0,.26,0,.4,0,2.09-2.26,4.11-5.21,6.52l-1,.8.28.26a10.41,10.41,0,0,1,3.51,5.37c.59,2.33.23,5.1-.09,7.54-.19,1.5-.52,4-.13,4.49,1.35,1.1,1.27,3,1,4.68l.2-.19a3.17,3.17,0,0,1,2.2-1.14,3.76,3.76,0,0,1,1.91.67,2,2,0,0,1,1,1.47c.14,1.24-.83,2.17-2.17,3.45-1.95,1.89-3.52,3.56-2.86,5a3.55,3.55,0,0,0,3.57,2.1l.53,0c-.12-2.11-.06-5.93,1.71-8a4.06,4.06,0,0,1,3.13-1.41,5.36,5.36,0,0,1,1,.09,3.29,3.29,0,0,1,2.3,1.68c2.1,3.65-.62,13.58-2.38,19a19.71,19.71,0,0,1,3.66-.48,10.44,10.44,0,0,0,2-.23,22.21,22.21,0,0,0-.12-4.79c-.26-3.12-.53-6.35.31-8.5,1-2.49,2.66-2.86,3.59-2.86h.29a17.23,17.23,0,0,1,2.91-13.56c3.57-5.06,9.39-8.09,12.94-8.09a5.09,5.09,0,0,1,1.21.14c2.16.56,3.5,2.82,3.78,6.37a18.75,18.75,0,0,1-1.47,8.78,5.23,5.23,0,0,1,1.69-.42c.95-.61,1.54-6.42.31-10.12-.85-2.54,0-5.66.75-8.68.61-2.34,1.24-4.76.91-6.38a17,17,0,0,1,0-6.82l-3.91-2.42,2.41-1.2a5,5,0,0,0,2.47-3.84c.28-2.72-2.37-5-2.4-5l-1.17-1,1-1.15c2.65-3,4.94-6.52,4.95-7.6-1.9-2.19.15-7.49.59-8.55,1-2.34,2.59-5.12,4.83-5.12a2.6,2.6,0,0,1,1.24.32,2,2,0,0,0,.9.29.33.33,0,0,0,.3-.14c.35-.42.59-1.66.15-3.78a3.54,3.54,0,0,1,.66-3.07c1.43-1.76,4.39-1.91,7.55-1.91h1.72a12.92,12.92,0,0,0,3.09-.24c2-.79,6.05-9.43,5.55-11.85s1.72-12.33,2.94-17.29c-.26,0-.51,0-.74,0-3,0-7.36-1.05-9.56-4a7.45,7.45,0,0,1-.91-6.93c1-3.23,2.8-3.91,4.15-3.91,2,0,4,1.54,5.75,2.89a19.78,19.78,0,0,0,2,1.44c.71-4.27-3.6-5.36-4.09-5.48l-1.17-.26v-1.2c0-2.26-.44-8.6-2.43-10.85s-2.35-6.61-2.67-10.78a22.94,22.94,0,0,0-.77-5.5c-.89-2.12-.86-4.58.07-6A2.53,2.53,0,0,1,598.9,43a3.91,3.91,0,0,1,3,1.91c1.39,1.86,2.55,2.06,3,2.06a.83.83,0,0,0,.24,0l2-.74,0,2.09c.62,2.48,11.1,19.47,20.59,24.78,7.28,4.07,12.32,10.3,16,14.85A43.54,43.54,0,0,0,648,92.8a1,1,0,0,0,.66.32c.67,0,1.71-.85,2.62-1.61,1.33-1.1,2.72-2.25,4.41-2.25,2.76,0,4.18,3.14,4.65,4.17,1.2,2.66,1.44,4.73.71,6.32a4.59,4.59,0,0,1-2.71,2.38c3,3.36,5.35,11,5.33,12.93a1.88,1.88,0,0,1-.71,1.58,2.22,2.22,0,0,1-1,.41l1.22,1.1a38.41,38.41,0,0,1,6.13,6.41c.71-1.93,1.55-4.28,2.33-6.5l.21-.59.56-.27c6.36-3,8.1-4.34,8.53-4.87l-.07-.12a3.61,3.61,0,0,1,0-3.9c1.31-2.4,5.77-3.47,14.44-3.47,2,0,3.91.06,5.26.11l1.21,0c0-.23.07-.5.1-.69.13-1.13.38-3.24,2.32-3.24a2.92,2.92,0,0,1,1.82.75c.9.72,3.06,1.22,5.26,1.22a7,7,0,0,0,3.64-.69,8.44,8.44,0,0,0-1-1.34,7.31,7.31,0,0,1-1.92-3.1,2.21,2.21,0,0,1,.37-1.92,2,2,0,0,1,1.6-.72,6.53,6.53,0,0,1,2.77.94c2-1.1,5.3-2.83,6.89-2.83a1.92,1.92,0,0,1,1.65.79,2,2,0,0,1,.17,1.86c-.23.61.42,1.76,1.22,2.74a13.59,13.59,0,0,0,.53-2.4,2.7,2.7,0,0,1,2.3-2.5v-.07a1.88,1.88,0,0,1-.86-.59,3.45,3.45,0,0,1-.33-2.89,2.33,2.33,0,0,0,.06-.33,3.1,3.1,0,0,1-2.47-1.39,4.37,4.37,0,0,1-.29-3.44c-1.88-4.61-.54-7.14.42-8.23.21-1.26,1.55-3.47,6.83-7.33C732,59.15,733,56.6,734,55.5a2.32,2.32,0,0,1,1.71-.78c1.68,0,2.9,1.84,3.34,2.64,2.23,3.93,5.32,5.92,9.18,5.92A13.62,13.62,0,0,0,754,61.9l1.14-.61.78,1a4,4,0,0,1,.72,3,3.32,3.32,0,0,1-1.83,2.25c-.08,0-.21.12-.19.2.1.46,1.44,1.86,6.2,2.23,7.17.55,9.16,3.08,10.08,4.5,1.47-.34,5-1.67,7.53-2.59,5.25-1.94,7.67-2.79,8.85-2.79a2,2,0,0,1,.5.06,2.06,2.06,0,0,1,1.38,1c.59,1.09.12,2.39-.43,3.9a12,12,0,0,0-.67,2.3,8,8,0,0,0,1.9.16c.81,0,1.69,0,2.55-.09s1.77-.08,2.55-.08a8.67,8.67,0,0,1,2.46.26c2.68.8,9,5.87,9,8.76s-3.57,3.7-6.45,4.43l-.55.14a.61.61,0,0,0,.07.1,6.32,6.32,0,0,1,3.36,3.44,4.59,4.59,0,0,1-.7,4c-1.4,2.13-2.25,6.06-2.67,8.45a7.82,7.82,0,0,1,4.39-1.37l1.57-.08v1.58s.05,3.37,2.1,4.33c.59-.29,1.44-1.94,2.56-4.91.65-1.75,1-2.63,2.17-2.63a1.63,1.63,0,0,1,1.59,1.55,8.23,8.23,0,0,0,1.88,3,1.86,1.86,0,0,1,1.11-.36c.94,0,1.65.62,2.13,1.83h.15a10.37,10.37,0,0,0,1.19-.12,16.29,16.29,0,0,1,2.1-.18,6.07,6.07,0,0,1,4.42,1.68,3.82,3.82,0,0,1,1.16,2.85c0,3-3.29,6.71-5,8.48,1,1.31,2.27,3.53,2,5.83a5.31,5.31,0,0,1-2.41,3.88,9.51,9.51,0,0,1-5.46,1.66,12.12,12.12,0,0,1-2.5-.27c.87.78,2.23.9,4.06,1,1.67.08,3.39.15,4.4,1.39a1.8,1.8,0,0,1,.33,1.8c-.51,1.4-2.37,1.74-6.44,2.48-2.88.52-8.89,1.61-9.57,3.07,0,0-.07.17.14.53a29.16,29.16,0,0,0,5.83,6.68c2.27,2.12,4.41,4.13,5.69,6.79a6.28,6.28,0,0,1-.09,5.6,14.13,14.13,0,0,1-7.87,6.51,5.58,5.58,0,0,1-1.18.1,47.67,47.67,0,0,1-5.76-.64,54.73,54.73,0,0,0-6.6-.72,4.36,4.36,0,0,0-1.12.1l0,.09a2.16,2.16,0,0,1-.15,2,2.07,2.07,0,0,1-1.78.78l-.54,0c-.53.34-1,3-1.34,4.62-.21,1.13-.43,2.29-.72,3.42a4.6,4.6,0,0,0-.15.86l.12,0c.75.23,2.74.82,2.12,3.91-.52,2.63,3.33,7,8.08,9.22,2.14,1,5.58,1.46,8.62,1.86,4.2.57,7.52,1,8.8,2.76a4.92,4.92,0,0,1,1.13,4c-.35,1.78-1.82,3.36-4.76,5.15a9.58,9.58,0,0,1-4.8,1.74,4.84,4.84,0,0,1-2.57-.79,3.48,3.48,0,0,1-2.78,1.59h-.44a22.68,22.68,0,0,0-3.83.6c-.78.16-1.45.31-2,.37a5.63,5.63,0,0,0-.66.53,12.21,12.21,0,0,1-1.89,1.39c5.92,2.6,10.33,4.87,10.23,7.72,0,1.4.89,3.5,1.8,5.53,1.1,2.46,2.23,5,2.23,7.36a23.7,23.7,0,0,0,.23,2.75c.23,1.77.42,3.3-.51,4.36a2.56,2.56,0,0,1-2,.85,6.94,6.94,0,0,1-2.28-.49c-3.7-1.34-18-3.2-22.16-3.73-1.39,3.24-6.08,12.1-15.65,12.1a17.38,17.38,0,0,1-4.69-.68c-4.53-1.3-7-3.3-7.47-6a7.23,7.23,0,0,1,1.81-5.44,31.71,31.71,0,0,1-3.34.18,23,23,0,0,1-4.08-.33l-3,2.65-.51,0-.71,0c-6.61,0-10.48-6-11.68-8.2-6.9-.76-7.54-1.65-7.86-2.09l-.23-.35c-.2-.32-.4-.63-2.76-.63l-.75,0a3.49,3.49,0,0,0-1.19.17,2.94,2.94,0,0,0,.25.46l1.84,2.41h-3a10.76,10.76,0,0,1-8.12-3.34c-5.77-6.1-5-18.94-4.7-25.11,0-.64.07-1.21.09-1.68a11.92,11.92,0,0,1,1.9-6.49,4,4,0,0,0,.23-.39l0,0a4,4,0,0,1-.62-4.1,3.16,3.16,0,0,0,0-2.38c-.28-.64-2-.84-3.42-1-2.22-.26-4.73-.56-6.25-2.41-2.29-2.77-.62-5.36.61-7.24a12.82,12.82,0,0,0,1.33-2.41c.18-.92-3.25-4.2-7.78-6.86l-.73-.43v-.85a8.19,8.19,0,0,1,2.14-6.09c1.57-1.59,4-2.43,7-2.43a19.36,19.36,0,0,1,2.37.16c-1.05-4,6.61-11.76,8.26-13.37,4.13-4,7.33-11.4,7.36-11.48l1.1-2.56,1.53,2.33c2.54,3.85,3.27,4.27,4.61,5a17.66,17.66,0,0,1,1.66,1c2.29,1.56,8.76,5.61,10.45,6.67l2.55-.15.45.83.33.58a2.26,2.26,0,0,1,.84-.14c.19,0,.45,0,.79,0l1.15.08c2.1.1,5.68,1.39,7.51,2.11a6.66,6.66,0,0,1,4.86-1.75h.35a3.37,3.37,0,0,1,2.71,1.36c1.5,2.08.65,5.64-.45,9.41-.1.33-.18.63-.25.89-.32,1.16-.32,1.16.31,2.12a28.75,28.75,0,0,1,1.77,3c.72,1.39,1.23,2.54.65,3.49a1.79,1.79,0,0,1-.46.49,5.43,5.43,0,0,1-1.48,4.81l1.47,3.48a3.25,3.25,0,0,0,.13-.62c.3-2.53,6.12-5.46,9.69-5.46a5,5,0,0,1,3.79,1.48,6.05,6.05,0,0,1,1.27,4.77c-.54,6.52,8.35,21,12.54,27.18l5.41-1.68.51,1.3a2.31,2.31,0,0,0,1.85,1.37h0c.6,0,1-.41,1.82-1.34a8.23,8.23,0,0,1,2.59-2.21,4.55,4.55,0,0,1,.51-.21,34.34,34.34,0,0,0-9.27-5c-5.88-2-6.66-3.82-6.25-7.42a12.3,12.3,0,0,0,.11-2.55c-.17-2-1.25-4.11-2.39-6.32a23.22,23.22,0,0,1-2.6-6.62c-.69-4.12,2.23-5.8,4-6.8a6.66,6.66,0,0,0,1.49-1c.39-.45.3-1.59.23-2.69a9.57,9.57,0,0,1,.37-4.34c1-2.48,5.38-3,8.9-3a15.14,15.14,0,0,1,3.46.31c.41.13,1.47.49,6.23,7,2.22-.69,5-1.92,5.69-3.07,0-1.26-5.62-4.66-9-6.69l-1.88-1.14c-2.38-1.46-3.72-3.27-4-5.4a7.66,7.66,0,0,1,1.29-5,2,2,0,0,1-.58-1.76c.13-.8.43-2.57,9.72-3.7a4.29,4.29,0,0,1-1.25-3.38c-.64-2.28-9.44-13.48-12.78-17.73-1.16-1.48-2.11-2.69-2.7-3.46-1.92-2.54-1.19-8-.35-14.41.61-4.63,1.37-10.4.28-12.11-1.47-2.3-9.24-3.84-19.34-3.84l-1.82,0H771c-5.32,0-13.16-2.77-18.25-5.15a31.09,31.09,0,0,0-11.62-2.55c-2.69,0-3.71.59-3.87.91a14.46,14.46,0,0,1-2.89,3.77,8.66,8.66,0,0,1,2.77,4.85,16.57,16.57,0,0,1,.26,6.26,3.6,3.6,0,0,1,2.17,1.52c1,1.51.7,3.71-.82,6.91-1.82,3.83-4.36,4.4-5.7,4.4l-.47,0c-3.19,6-6.41,6.89-8.09,6.89a3.65,3.65,0,0,1-.78-.08l-2.55-.66,1.86-1.85a.86.86,0,0,0,0-1.12l-.47.37a32.39,32.39,0,0,1-6.51,4,13.25,13.25,0,0,1-5.75,1c-.79,0-1.61,0-2.46-.06s-1.8-.06-2.76-.06c-6.5,0-13.79,1.57-23,13-5.79,7.15-8.32,13.56-7.5,19.05a11.73,11.73,0,0,0,4.34,7.65l1.52,1-1.31,1.29c-.13.13-13,12.85-10.57,21.65,3.28,11.93,8.16,17.59,10.1,19.47l.17.16c4,3.82,5.66,6,4.68,16.8-.57,6.2.53,8.75,1.59,11.22a14.17,14.17,0,0,1,1.46,5.7c.15,6.39-4.5,14.24-10.92,15.2-5.71.85-13.17,1.58-13.24,1.59l-.15,0-.15,0c-5.82-.59-9.59-4.34-13.22-8-2.87-2.85-5.83-5.8-9.89-7.4a10.56,10.56,0,0,0-1.7-.55c0,.19.05.41.07.6.18,1.51.45,3.79-1.19,5.65s-4.57,2.65-9.1,2.65h-.53c-15.83-.22-18.56-12.33-21-23-.46-2-.93-4.1-1.47-6-3.26-11.78,9.17-31.18,11.79-35.09a20.69,20.69,0,0,1-1.15-5c-.22-2.43,3.31-3.9,6.78-4.74a5,5,0,0,1,1.16-3c1.44-1.67,4.12-2.52,8-2.52a38.91,38.91,0,0,1,6.89.7l11.11-7a11.73,11.73,0,0,1,1-8c1-1.92,2.55-3,4.26-3a4.27,4.27,0,0,1,1,.12c3.85.93,4.37,3.73,5,7a38.06,38.06,0,0,0,.91,4c.11.4.43,1.47,3,1.47a25.09,25.09,0,0,0,8-1.93,31.73,31.73,0,0,0-.05-3.39c-.27-5.15-10.33-22.18-16.07-27.2-2.93-2.56-4.16-4.69-3.76-6.51a2.94,2.94,0,0,1,.56-1.21C646.45,102,631.46,80,624.37,77.52c-5.32-1.85-9.85-6.56-13-10.64a121.21,121.21,0,0,1,.93,12.28c.22,5.35.42,10.4,2,11.61s2.34,3.4,2.15,6.53c-.33,5.53-3.58,13.46-6.09,14.9-1,.57-1.89,3.54-2.48,5.51s-1.09,3.65-1.9,4.56a2.87,2.87,0,0,1,.25,2.89,4.49,4.49,0,0,1-3.23,2.69l-11.64,6a13.43,13.43,0,0,1-.66,4.22,2.36,2.36,0,0,1-2.2,1.64,2.48,2.48,0,0,1-.82-.14c-.92,2.2-2.14,5.49-2.21,7.22-.11,2.86-2.47,7.89-3.32,9.61.7,2.53.67,4.14-.1,5.17a2.45,2.45,0,0,1-.45.46,18.84,18.84,0,0,1-.21,3.34c2.8.22,8.38,1.51,9.79,8.16,1.13,5.36-3,9.8-7.07,14.09-2.71,2.89-5.51,5.88-6.26,8.81A64.86,64.86,0,0,1,569.73,216c-1.57,2.6-3.11,3.7-5.17,3.7a8.68,8.68,0,0,1-1-.06c-.25,0-.51,0-.78,0-.57,0-1.62,0-3.49,2.62-2.84,4-3.58,4.53-5,5.09a9.75,9.75,0,0,0-3.19,2.23,14.46,14.46,0,0,1-9.49,3.87c-3.2,0-9.15-1.42-12.94-11-2.8-7-4.68-9.33-5.58-10.45-1.22-1.49-1.24-2.29-.11-3.9a15.3,15.3,0,0,1,1.59-1.84c2-2,2.84-3.14,1.22-5.32l1.2-.9h0l-1-1a1.4,1.4,0,0,0-.39,1c-.08-1.28-2.75-11.58-4.42-17.4l-.62,1.35-.75-4.95a2.14,2.14,0,0,1,.3-1.89l.45-.52h.37l.43-.55c2-2.56,2.72-3.94,1.07-5.59a3.07,3.07,0,0,1-.76-2.9,9.1,9.1,0,0,1,4.93-5.62c1.15-1.1,3.14-8.49,4.22-12.49a49.49,49.49,0,0,1,2.31-7.48,17.35,17.35,0,0,0,1.54-5.33c.24-1.29.54-2.9,1-4.94.94-4,3.55-6.9,5.65-9.22a16.38,16.38,0,0,0,2.52-3.22,3.93,3.93,0,0,1,3.83-2.4h.5a3,3,0,0,1,1.11-2.39l.05-.05s0-.11,0-.3c.92-7.39-.39-10.12-1.25-11.1a2.6,2.6,0,0,0-2-.91h-.15c-.79,6.08-6.61,12.46-11.34,17.65-2.56,2.81-5,5.46-5.67,7.11-2.51,6-9.34,12.83-11.75,15a49.27,49.27,0,0,1-5.76,4,29.25,29.25,0,0,0-5,3.56,3.48,3.48,0,0,1-2.5,1.42,2.62,2.62,0,0,1-1.59-.58,12.07,12.07,0,0,0-1.46,1.75l-.86,1.13c-1.12,1.43-3.46,2.2-6.69,3.26-1.71.57-3.64,1.21-5.64,2-4.13,1.7-4.74,6.13-5.34,10.41-.07.53-.14,1.05-.22,1.55-.61,4-2.57,4.55-3.69,4.55a3.61,3.61,0,0,1-2-.62L476,174l-.09-.63c-1.05-7.45-3.14-9-4.67-10.08a7,7,0,0,1-1.5-1.33c-1.3-1.68-1.23-6.36-1-9.34a5.78,5.78,0,0,1-4.83-5c-.56-3.66,1.74-8.1,4.73-9.12a28.82,28.82,0,0,1,5.68-1c4.28-.48,9.6-1.09,12.62-3.74a7.31,7.31,0,0,0,2.67-5.58,4.3,4.3,0,0,0-.42-2,3.45,3.45,0,0,1-1,.17c-1.63,0-2.07-1.35-2.66-3.23-.21-.65-.47-1.48-.84-2.53a71.45,71.45,0,0,1-1.93-8.39c-.75-3.89-2-10.41-3.12-11.35-2-1.72-2-1.72-3.18-1.72a3.25,3.25,0,0,1-2.86-2,6.17,6.17,0,0,0-1.38-1.67,4.55,4.55,0,0,0-2.79-.76,14.8,14.8,0,0,1-1.76,4.44c-1,1.76-3.07,4.76-5.55,5.07-.78.09-1,.38-1.39,1.56a4.64,4.64,0,0,1-1.8,2.62,3.52,3.52,0,0,1-1.9.55c-1.44,0-2.72-.86-4.2-1.86l-1-.66a2.63,2.63,0,0,1-1.19-1.84c-.31-2,1.42-4.28,3.9-7.3.41-.5.89-1.09,1.23-1.54a7.86,7.86,0,0,0-1.51-.12,11.11,11.11,0,0,0-2.9.36,7.87,7.87,0,0,0-2.39,1.7,21.87,21.87,0,0,1-9,5.14,9.61,9.61,0,0,1-2.63.38c-4.43,0-7.3-3.28-8.64-5.28-2,1.38-3.7,2.32-5.09,3.11-2.06,1.17-3.31,1.88-4.23,3.09-.76,1,.2,5.15,1.62,8.65h.3c2.37,0,6.69.41,8.83,3.2s1.36,5,.6,7.55a26.94,26.94,0,0,0-1,4.43c-.59,4.4,3.63,8.46,5.63,10.32a3.59,3.59,0,0,1,2.1-.56,5.06,5.06,0,0,1,.54,0c4.22.32,9,5.38,11.2,11.76,1.79,5.27-1.11,9.33-3.06,11.31,1.17,1.19,2.4,3.39,2.16,7.26a9.15,9.15,0,0,1-3.54,6.77l-.07.06c3,3.1-.84,11.6-2.58,14.32a4.39,4.39,0,0,1-4,2.19c-.34,0-.66,0-1-.05l-.66,0a1,1,0,0,0-.32,0h0a1.33,1.33,0,0,0-.27.63c-.19.75-.86,2-3.21,2a9.17,9.17,0,0,1-1.11-.07,10.68,10.68,0,0,1-2.74,2.09c-2.3,1.41-3.91,2.55-3.77,4.37a2.7,2.7,0,0,1-.69,2.11,4,4,0,0,1-3.05,1c-2.44,0-6-1-9.79-2l-2.4-.66a14.82,14.82,0,0,1-1.48,1.3,3.41,3.41,0,0,0-.63.54c.72.67,2,1.92,1.58,5.32a6,6,0,0,1-2.44,4.29,1.54,1.54,0,0,0,1.11.31c1.55,0,3.78-.94,5.75-1.77a15.85,15.85,0,0,1,4.65-1.48h.16a4,4,0,0,1,3.47,2.23,8,8,0,0,1-.23,7.64c-.91,1.45-1.26,7.52-1.24,12.08a14,14,0,0,1,1.59.32c2.14.59,2.56,5.4,2.42,7.64-.31,5.32-3.17,8.76-7.84,9.46a12.76,12.76,0,0,1-1.9.15c-6,0-7.55-4.87-8.57-8.09a9.5,9.5,0,0,0-1.34-3.13c-1.76-1.86-2.39-5.33-2.9-8.12l0-.16c-.73,2-2.86,5.42-9,8.24a13.62,13.62,0,0,1-5.7,1.25c-4.54,0-8.64-2.21-11.93-4a23.1,23.1,0,0,0-4.38-2,9.11,9.11,0,0,0-2.25-.23A33.94,33.94,0,0,0,355,235.9c-2.53,1.64-15,5.66-23.13,5.66a7.76,7.76,0,0,1-6.24-2.56,10,10,0,0,1-1.95-6.76h-.17c-1.09,0-2.11,1.53-2.78,4.21l-2.91-.73c.82-3.25-.19-6.61-1.37-9.12a3.37,3.37,0,0,1-.83,1.77,3.56,3.56,0,0,1-2.71,1l-.4,0h-.25c-1.85,0-4,1.22-5.6,2.11a7.31,7.31,0,0,1-3.17,1.28,2,2,0,0,1-1.19-.39c-1.45-1.08-.55-2.8.11-4.06s1.46-2.8,1.26-4.25c-.25-1.77-5.22-1.92-6.85-2l-.92,0c-1.4-.09-2.18-.82-3.25-1.84a48.18,48.18,0,0,0-8.2-6.21c-8.49-5.35-9.51-6.48-6.47-12.1l.33-.62c1.42-2.64,4-4,7.57-4a23.73,23.73,0,0,1,3.11.25,17.29,17.29,0,0,0-1.64-3c-1.15-1.54.43-2.86,3.3-5.25,1.36-1.14,4.12-3.45,4.58-4.46-1.39-3,4-11.52,6.83-15.84l-.78-.4a2.23,2.23,0,0,1-.72.82,3.19,3.19,0,0,1-1.84.52h-.07c-2.08,2.53-9.84,11.05-19.84,11.05l-1,0h-.23c-8.3,0-19.67,23.42-23.54,32.88.08,2.21-.68,8.61-1,11.54v6.34l-.8.42a132.78,132.78,0,0,0-12,7.49,20.07,20.07,0,0,1-10.85,3.82c-4.13,0-6.91-2.14-7.44-5.73-.66-4.58,2-7.38,4-9.43.74-.76,1.65-1.72,1.67-2.17s-1.25-1.26-2-1.78c-1.82-1.24-4.31-2.93-4.4-5.94-.11-3.48,2.81-6.34,4.71-7.84a11.14,11.14,0,0,1-1-1.48c-.53-.91-.44-2.3.31-4.48.47-1.34,2.75-6.92,4.67-7.69a2.53,2.53,0,0,1,.94-.18,4.37,4.37,0,0,1,2.58,1.14,6.19,6.19,0,0,0,1,.65c1.09-1.31,3.16-6.54,4.08-8.86.5-1.25.89-2.23,1.15-2.8.58-1.23-1.05-4.35-5.23-7.7-3.7-3-6.18-9.63-7.2-12.81a11.82,11.82,0,0,1-3,.82,5.5,5.5,0,0,1-.88.06,7.94,7.94,0,0,1-2-.28,5.51,5.51,0,0,0-.58-.12,6.86,6.86,0,0,0,.23,1.68,9,9,0,0,1,.28,1.9c0,2.18-2.82,5.69-4.86,6.63a3.94,3.94,0,0,1-1.69.39,4,4,0,0,1-2.11-.63,14,14,0,0,1-2.75.28,9.94,9.94,0,0,1-7.36-2.93,29.53,29.53,0,0,0-8-5.28v1c1.14.67,2.84,2.06,2.55,4.2a3.23,3.23,0,0,1-1.28,2.28,6.13,6.13,0,0,1,2.51,3.36,24.73,24.73,0,0,1,.74,3.72c.3,2.07.6,4.21,1.62,5.63a8.34,8.34,0,0,0,2.92,1.93c2.47,1.23,5.55,2.78,6.69,6.76a13.05,13.05,0,0,1-.36,9c1.72,2.92,7.13,13.36.44,19.43-2.73,2.47-7.92,3.67-15.87,3.67a118.8,118.8,0,0,1-16-1.27c-.33,2.16-1.71,4.38-2.88,6.26a14,14,0,0,0-1.53,2.86c.86,3.4-1.51,5-7.44,7.59-1.66.72-1.68,1-1.72,1.51-.2,2.44-1.22,4.64-12.09,8.8C147.27,257.64,140.26,258.68,131.8,258.68Zm271.7-36.19q2.17,2.19,3.75,7.19c3.38,10.69,6.15,12.28,7.5,12.28a3.74,3.74,0,0,0,2.15-.92c.1-.07.42-.69.18-2.26C416.44,234.57,412.21,227,403.5,222.49Zm255,8.59a40.71,40.71,0,0,1,8.74.72,14,14,0,0,1,5,2.37c.86.58,1.36.91,1.8.91a1.83,1.83,0,0,0,.82-.25c2.13-1.12,3.74-2.69,4-3.89a1.45,1.45,0,0,0-.32-1.27l-.46-.59c-4.13-5.37-7.85-10.81-7-14.32.64-2.8,2.89-3.28,4.24-3.57a4.38,4.38,0,0,0,1-.29.54.54,0,0,0,0-.08c-.2-3-12.5-25.44-15.87-26.26a3.08,3.08,0,0,1-2.25-1.49c-.55-1.14,0-2.28.64-3.59,1.12-2.33,3-6.22,1.43-13.27-.82-3.72-.62-6.43.62-8.29a5.3,5.3,0,0,1,.34-.45,29.27,29.27,0,0,1-3.1.17c-.51,0-1,0-1.5,0-.28,0-.57,0-.85,0-6.34,0-14.9,4.38-17.4,5.91-1.89,1.15-5.26,1.7-8.24,2.19-1.05.17-2,.33-2.85.5-1.26.39-4.86,5.81-8.06,12.1a7.07,7.07,0,0,1,1.9,3.26c.73,2.69,0,5.88-2,9.49.87,1.36,2.27,4.07,1.63,6.45a4.53,4.53,0,0,1-2.83,3,8.94,8.94,0,0,1-3.44.68,11,11,0,0,1-3.6-.65,48.67,48.67,0,0,1,2,7,12.17,12.17,0,0,0,1.84-1.72c1.92-2,4.54-4.78,8.6-4.78h.5l1,.06.35.91c1.22,3.22,2.85,6.43,3.58,7.1a2.05,2.05,0,0,1,1.61,2c.31,2.56-1.79,8.94-6,11.79a19.27,19.27,0,0,1,5,4.81l1.09-1.23c3.61-4.06,6.58-7.18,9.31-7.18a2.86,2.86,0,0,1,.42,0c4,.5,12.83,7.5,14.31,11.35a3.26,3.26,0,0,1,.14.45C655.66,231.12,657,231.08,658.54,231.08Zm74.4-9.38c3.46,1.29,12.13,4.92,14,9.58l.06.14a40.53,40.53,0,0,0,2.22-5.69c.22-.66.43-1.29.62-1.84a21.94,21.94,0,0,0,1.41-6.46l0-4,2.61,3c2.74,3.19,7.56,7.69,9.71,7.69h.12a27.18,27.18,0,0,0,4.2-1.18,22.36,22.36,0,0,1,6.31-1.52,3.28,3.28,0,0,1,3.3,1.83,9.57,9.57,0,0,1,.53,5.34c4.82,0,17.52.2,23.84.86.68-3.45.76-6.82.11-7.47-1.34-1.34-10.17-6.67-15.42-9.72l-.15-.08-.12-.11c-1-1-25.48-23.48-29.53-35.37a68.52,68.52,0,0,1-2.37-9.85c-1.12-6-1.92-10.35-6.42-12.85a3.73,3.73,0,0,1-.2,1.63,2.7,2.7,0,0,1-1.64,1.63,2.78,2.78,0,0,1-1,.17c-3.21,0-11.75-5.32-12.2-12-.23-3.32-6.46-4.42-9.9-4.66-.62,3.35-2.47,11.55-6.18,13.87l-.63.39c-1.19.75-2.51,1.57-3.18,2.12a6.21,6.21,0,0,1,3.13,4.16,2.94,2.94,0,0,1-.79,2.55,2.07,2.07,0,0,1-1.51.59,5.36,5.36,0,0,1-1-.13,4.1,4.1,0,0,0-.73-.1c-.17,0-.2,0-.24.08-.26.28-1,1.71-.31,8,1,8.59,2.45,9.53,3.22,10a3.33,3.33,0,0,1,1.73,2.54c.1.58.19,1.2.28,1.84.33,2.38.74,5.33,1.86,6.6,1.83,2.1-.69,4.35-2.53,6a17.42,17.42,0,0,0-1.88,1.85c1.16,1.37.86,4.09.45,7.75-.29,2.59-.78,6.91.1,7.89,0,0,.08.09.28.09,3.86-.18,9.07-4.42,10.75-6l1.26-1.2,1,1.42C730.15,213.94,733,218.59,732.94,221.7Zm-401,6.21c1.2.08,3.15.15,5.91.15,12.82,0,27.14-1.41,29.7-4.1,0,0,.18-.2.18-.29-.15-2.72-2.58-9.42-4.94-15.9-4.18-11.51-5.92-16.79-4.95-19l.61-1.44,1.41.67c.1.05,10.12,4.82,15,4.82.93,0,1.44-.19,1.52-.37,1.05-2.44.43-10.46-.37-16.44-1.93,1.71-4.24,3.4-5.78,3.4a2.1,2.1,0,0,1-2-1.31c-.77-1.85,1-3,2.27-3.92,2.43-1.65,3.93-3,2.64-6-1.65-3.89-2.73-4-3.88-4a4.53,4.53,0,0,1-2.58-.78,5.81,5.81,0,0,1-1.91-2.9,4.53,4.53,0,0,0-2.58-3c-5.57-2.55-7.35-7.15-8.52-10.19-.66-1.72-1.14-2.85-1.64-2.85-.73,0-2.44.78-6.53,4.47a5.92,5.92,0,0,1-4,1.68,6.12,6.12,0,0,1-3.65-1.29c-4.11,0-7.6.73-8.53,1.73l-.83.9-1.05-.64a4.1,4.1,0,0,0-1.9-.4,6.65,6.65,0,0,0-3.23.92,4,4,0,0,1-2,.51c-2,0-3.84-1.41-5.41-3.11.6,4.22,1.2,9.31.9,11.43a7.57,7.57,0,0,0,.94,3.7c.89,2.13,2,4.78.14,7.33-1.32,1.78-4.7,5.93-7.7,5.93a3.25,3.25,0,0,1-.77-.09c-1.08.11-5.32,2.55-7.29,5.13-.87,1.15-.83,1.72-.8,1.86.88,3.67.37,11.14-2.44,15a14.46,14.46,0,0,1-2.09,2.24c-.88.79-.9.8-.09,3,2.73,7.3,23.32,13.92,31.08,16.41l1.46.47c2.49.81,3.85,1.83,4.3,3.21A3.72,3.72,0,0,1,332,227.91Zm227.88-15.68a1.47,1.47,0,0,0,.54.09c.5,0,2.32-.27,4.59-3.74,1.14-1.75,1.91-3.07,2.52-4.13l.45-.77h0C564.92,205,560.52,210.52,559.86,212.23Zm-300-168.36c-10.65,0-29.43,10.76-31.39,16.63-1.62,4.85-4.64,15.08-7.31,24.11-2.19,7.38-4.07,13.76-4.91,16.26-1.54,4.62,3.65,22.87,6.63,31.15a58.93,58.93,0,0,1,2.77,12.4c4.36-3.12,14.35-11.78,14.64-13.89.05-.53.19-1.18.34-1.93.45-2.16,1.13-5.43-.23-6.87-2.8-3-.37-7.81.36-9.09,1.95-16.32,3.81-18.5,6-19,.84-1.85,3.05-2.06,4.54-2.2l.67-.07a7.19,7.19,0,0,1-1.75-2,2.06,2.06,0,0,1-.05-2c.65-1.24,3-2.14,6.89-2.66a9,9,0,0,1,1.41-3.89c1.22-2.23,1.95-3.8,1.07-5.2-2.83-4.53,1.53-7.92,3.87-9.74a16,16,0,0,0,1.39-1.15c.47-.47,4.5-5,.69-17.9C265.27,46.1,264.61,43.87,259.85,43.87Z"/><path class="cls-4" d="M270.55,27.35a2.37,2.37,0,0,1,.69.11c4.49,1.44-1.78,7.37,2.2,11.35s2.54,11,2.54,11c6.78.17,9.32,4.41,9.41,6.69s-9,4.92-10.85,7.88S267.68,68,267.68,68c.09,1.86-3.13,7.45-3.13,7.45,1.61,2.38.93,6.1.76,9.58s.42.84-3.3,3.13-2.8,5.59-5.59,6.18-8.73,8.47-9.24,10.08,2.63,2.29,2.71,3.14-.84,1.78-3,3.3-1.27,9.07-1.27,9.07,5.17.67,6.52,2-.93,4-.93,4a6.12,6.12,0,0,1,1.5-.18,3.92,3.92,0,0,1,4,2.72c1.27,3.73-3,6.61-4.16,7.12s-2.2,2.62-2.28,5-3.9,3.39-6.19,5.09a2.14,2.14,0,0,1-1.31.43c-1,0-2-.6-2.94-.6-.76,0-1.48.42-2.1,1.94-1.69,4.16-9,5-9,5-.76,2.88,6.1,16.1,10.25,20.08s5.42,14.06,5.08,19.23-5.42,8-8,12.79-2,11-2,14.74-1.44,4.91-1.44,4.91c3.56.25,3.48,5.59,1.61,5.76s-8.81,2.62-7.11,6a1.25,1.25,0,0,0,1.25.64c4,0,15-8.61,17.21-9.79,2.55-1.35,3.65-12.19,3.65-12.19-5-2.85,1.61-15.93,3-18,1.24-1.86.66-14.58,1.27-14.58h0c-.25-.23-1-1.43-1-7.91,0-7.79,9.15-10.08,10.76-14.06s-4.49-6.78-2.8-10.93c.86-2.11,4.14-3.61,7.55-3.61s6.71,1.39,8.21,5c3,7.28-1.28,13.21-7.46,15.92s-4.66,7.71-4,8.73a.32.32,0,0,0,.28.13c1.2,0,5.1-4.2,6.41-4.2s1.66,1.11,4.13,1.24,3.25,1,3.78,2.74c.16.53,1.07.71,2.24.71a35.32,35.32,0,0,0,6.22-.85s-2.27-3.66-1.36-5.61,7.68-3.13,9.63-5.47.65-3.52.78-6.12,7.62-8.58,8.53-10.66a2.68,2.68,0,0,1,2.65-1.45,5.27,5.27,0,0,1,1.25.15c-.14-5.25,1-6.39,2-6.39a2.53,2.53,0,0,1,1.48.66s9.58,6.23,11.87,6.23c.51,0,.66-.31.25-1.07-2.21-4.17,10.42-9.47,10.42-9.47l5.73,6.25s6.79-4.13,12.76-4.13a11.32,11.32,0,0,1,1.43.09c6.25.78,2.08,7.81,2.08,7.81,10,0,9,6.1,9,6.1a7,7,0,0,1,3.64-1.41,3.2,3.2,0,0,1,.92.13c2.08.65,0,4-1,5.86s2.09,2.74,5.47,3.39-2.21,1.69,1,3.9,7.95,7.42,7.95,7.42c-1.66-7.75-.81-9-.06-9a1.24,1.24,0,0,1,.71.31,159.61,159.61,0,0,0,.26-29.17c-1.3-16.79-10.55-28.12-22-32.68-3.92-1.56-10.56-2.68-18-2.68-14.34,0-31.68,4.15-38.45,17.34-7.14,13.92-9.26,16-9.89,16-.28,0-.27-.41-.27-.41,1.7-.91,3.65-13.54,6.12-18.49s9.51-10,8.34-10.16-2-3.25-1.05-5.34a.89.89,0,0,1,.86-.59c1.4,0,3.7,2.55,3.7,2.55.22-10.38,12.1-15.11,16.24-15.11.7,0,1.17.13,1.34.39,1.17,1.83-3,9.9-3,9.9s.65-.78,3-.91h.16c1.79,0,.41,1.85,1.83,1.85a3.72,3.72,0,0,0,.88-.15,108.75,108.75,0,0,1,20.43-2.66,25.18,25.18,0,0,1,2.56.11c6.65.65,4.43,5.6,4.43,5.6a21,21,0,0,1,3.24-.27c5.87,0,7.13,3.17,9.26,5.86,2.48,3.13,15.24,5.86,13.54,8.86s.92,24.74.92,24.74c6.25.39,20.18,8.72,19.14,14.82s-18.62,7.58-20.71,12.78,6,7.3,6.25,10.55-13.95,1.49-11.87,2.93,3.13,7.81.52,11.06.29,7.93.29,7.93a33.9,33.9,0,0,0-4.64-.34c-3.92,0-8.55.84-6.31,5.15,3.64,7-3,9-1.42,12.13.44.87.9,1.15,1.39,1.15,1,0,2-1.09,3.23-1.09a2,2,0,0,1,1.24.46c2.35,1.82,0,8.21,1.14,11.57.79,2.33,8.12,4.72,12.7,4.72,2,0,3.52-.47,3.64-1.63.23-2.29,2.81-6.91,5.84-6.91,2,0,4.15,2,6,7.82,3.3,10.42,6.33,13.33,8.93,13.33a5.18,5.18,0,0,0,3.05-1.22c3.13-2.35-2.08-17.32-17.84-22.92s-1.43-18.36,1.44-20.7a2.53,2.53,0,0,1,1.59-.39,25.53,25.53,0,0,1,5.58,1c-1.61,1.9-2.65,2-3.11,3.14-.73,1.83,2.2,1,1.59,5.5s-4.76,3.17-1.95,5.61a3.09,3.09,0,0,0,2.11.69c3.31,0,8.21-3.15,10.46-3.25h.1c2.73,0,3.67,4.92,2,7.57s-1.47,14.23-1.47,14.23a13.34,13.34,0,0,1,2.69.42c1.34.37,3.78,12.82-5.25,14.16a11.52,11.52,0,0,1-1.68.14c-7.22,0-6.43-8.25-8.82-10.76-2.57-2.68-2.44-10.74-3.66-10.86h-.11c-1.13,0-1.36,1.84-1.36,1.84s0,4.76-8.55,8.67a12,12,0,0,1-5.07,1.11c-6.47,0-12.15-5-15.94-6a10.58,10.58,0,0,0-2.62-.28c-5,0-12,2.33-13.74,3.45-2.08,1.35-14.27,5.42-22.32,5.42s-6.6-8.8-6.6-8.8a3.34,3.34,0,0,0-1.76-.53c-1.34,0-3.13.94-4.23,5.34,1.79-7.17-4.1-14.49-4.1-14.49-1,2,1.32,6.31-2.27,6.31h-.65c-3.61,0-7.43,3.39-8.77,3.39a.48.48,0,0,1-.29-.09c-1-.73,2.44-3.9,1.95-7.32s-7.2-3.18-9.15-3.3-1.84-2.2-10.75-7.81-8.3-5.74-5.62-10.75c1.4-2.6,3.95-3.19,6.26-3.19,1.9,0,3.62.4,4.39.4a.75.75,0,0,0,.22,0c1.22-.24-1.22-4.51-2-5.49s9.65-7.33,8.06-9.41,7.64-15.82,7.64-15.82L300,166.32s.34,1.46-.29,1.9a1.75,1.75,0,0,1-1,.26,3.09,3.09,0,0,1-.73-.09s-8.3,11.13-19.18,11.13l-.9,0h-.31c-11.25,0-25.06,34.13-25.06,34.13h0v0h0l-.1-.54.1.54h0v0h0c.26,1.42-1,11.7-1,11.7v5.53a131.35,131.35,0,0,0-12.21,7.58,18.47,18.47,0,0,1-10,3.55c-3.1,0-5.5-1.35-6-4.45-.9-6.17,5.52-8.61,5.65-11.31s-6.29-3.73-6.42-7.84,5.52-7.58,5.52-7.58a9.38,9.38,0,0,1-2-2.44c-.9-1.55,2.95-9.52,4.24-10a1.06,1.06,0,0,1,.38-.07c1.16,0,2.36,1.87,3.86,1.87,1.67,0,5.27-10.41,6.3-12.6s-1.16-5.91-5.66-9.51-7.2-13.75-7.2-13.75a12.1,12.1,0,0,1-4.11,1.45,5.49,5.49,0,0,1-.68,0c-1.16,0-1.91-.4-2.59-.4a1.45,1.45,0,0,0-1,.36c-1.16.93,0,3.31,0,4.72s-2.31,4.5-4,5.27a2.4,2.4,0,0,1-2.83-.52,11.27,11.27,0,0,1-3.1.42,8.51,8.51,0,0,1-6.28-2.47c-3.73-3.86-10.54-6.56-10.54-6.56v4.24s2.82,1.16,2.57,3.09-2.19,1.41-2.06,2.44,2.44,1,3.34,3.86.64,7.07,2.57,9.77,7.84,2.82,9.39,8.22-.65,8.61-.65,8.61,8,12.08,1.16,18.25c-2.8,2.54-8.79,3.29-14.86,3.29a119.08,119.08,0,0,1-17.57-1.53c.9,3.73-4.88,9.25-4.37,11.18s0,3.09-6.55,5.91,3.73,3.6-13.75,10.29c-5.56,2.12-12.73,3-20.31,3-16.23,0-34.34-4-42.49-8.2-12-6.17-12.85-14-17-20.57s-3.73-12.85-3.09-17.22-6.55-19-8.1-23-2.31-3.85-6.42-7.07,8.42-7.16,8.42-8.83-3.85-3.72-6.55-4.37a3.91,3.91,0,0,0-.91-.12c-1.14,0-.85.87-1.32.87a1.43,1.43,0,0,1-.6-.23c-1.54-.9,3.09-1.93-5.27-3.47a21,21,0,0,0-3.79-.4c-4.74,0-5.4,2.45-8.47,3.59a7.5,7.5,0,0,1-2.63.57c-1.32,0-2-.57-3.46-.57l-.58,0c-2.7.25-4.88,4.88-4.88,4.88s.17-5.45-2.81-5.45a5,5,0,0,0-2.72,1.08c-2.84,2-4.82,2.46-6.09,2.46a2.85,2.85,0,0,1-1.88-.53s5.27-.13,6.43-4.24,4.75-9,7.2-13.5,3.85-12.72,4.75-21.72,10.54-12.47,10.54-12.47-1,7.72,3,7.72h.2c4.24-.25,5.65-4.5,5.39-8.48s6.43-8,8.61-9.25,0-1.16.52-2.57,2.31-.65,4.24-1.29,0-3.21,1.54-6.43S94.43,92,96.75,87.53c1.87-3.65,7-8,8.34-8,.32,0,.44.23.27.77-.9,2.83,2,7.33,2,7.33-1-1.91,4-8,5.49-8h0c1.42.13,5.66,4.24,5.66,4.24a2.8,2.8,0,0,1,1.55-2.13,2.13,2.13,0,0,1,1.18-.34c1.15,0,2.32.8,3.56.8,1.68,0,1.11-1.64,3.43-4.25,1.67-1.88,7.25-3.3,12-3.3a14.09,14.09,0,0,1,4.82.7c4.64,1.73,0,7,5.22,11.3s7,.81,13.66,4-14.13,13.44-8.62,17.49c2.07,1.53,2.58,1.91,2.63,1.91s-.34-.36-.16-.36a6.21,6.21,0,0,1,1.58.77c4.06,2.32,3.77,4.93,3.77,7.24s7.24,3.77,7.24,3.77l8.91,5.47s8.3,5.59-4.24,11.18a10.67,10.67,0,0,1-4.26,1.08c-7.57,0-5.48-13.51-5.48-13.53h0s-.35,2.12-4.24,2.88a2.4,2.4,0,0,1-.46.05c-3.51,0-4.49-8.32-7.5-11.57s-8.81-3.39-11-3.39S161.8,99,153.92,92.35A26.48,26.48,0,0,0,136.46,86a29.78,29.78,0,0,0-4.39.32,10.16,10.16,0,0,1-1.6.12c-2.78,0-4.45-1.12-5.72-1.12a1.75,1.75,0,0,0-1.49.83c-1.7,2.29-17.32,9.3-17.66,12.86-.22,2.26-1.46,2.67-2.34,2.67a3,3,0,0,1-.88-.13c-.07-2.14-5.13-7.13-7-7.13a.7.7,0,0,0-.5.18c-1.27,1.27-.84,10.68-3.13,13.13a5.16,5.16,0,0,1-3.86,1.73c-1.8,0-3.88-.89-6-2.83-4-3.56,2-9.06-6.78-9.65l-.79,0c-7.68,0-3.87,8.5-3.87,8.5a4.05,4.05,0,0,0-.92-.1c-6.88,0-16.95,15.17-16.95,15.17s10.67.94,12.62,2.63.27,10.1-7.22,10.1l-.66,0c-.56,0-1.1-.05-1.62-.05-6.81,0-9.39,3-11.59,6.49-2.37,3.72-4.66,3.72-6.44,5.28s-1.95,10.56-1.95,10.56c4.92-3.38,9-4.39,12.25-4.39a16.12,16.12,0,0,1,8,2.27c1.52.68-.22,6.73.46,9.78.2.92,1,1.22,2,1.22,2,0,5.13-1.14,7.41-1.14a4.42,4.42,0,0,1,1.25.15c3.22.93-1.06,8.46-1.06,8.46,6.44,4.32-2.23,10.76-2.06,11.86s6.09,3.89,8.21,7.71S74.8,207,74.29,212s.51,5.08,5.76,15.84c5,10.27,15.21,10.5,17.89,10.5h.33c2,0,3.3-7.54,3.72-10.16a2,2,0,0,1,2.09-1.86,3.62,3.62,0,0,1,1,.16c-.93,4.24,24.43,11.71,26,13.32a2.43,2.43,0,0,0,1.82.7c1.89,0,4.45-1.53,6-4.93,2.12-4.75-4.74-5.34-4.74-5.34l-.09-2.88a22.35,22.35,0,0,1,2.41-.14,17.39,17.39,0,0,1,13.52,6c2.88,3.56-2.8,11.1-2.8,11.1a5.53,5.53,0,0,0,.69,0c4.57,0,5.55-5.6,8.54-6.82a3.31,3.31,0,0,1,1.18-.24c2.46,0,4.13,3.17,6.19,3.46a2.56,2.56,0,0,0,.47,0c2,0,2.82-2.18,2.58-7.24-.25-5.42,9.24-8.81,6.61-11.6s6.47-8.25,24.46-8.25l2.19,0h.12c3.4,0,5.31-3.54,6.74-9.32,1.31-5.32-4-10.22-5.53-10.22a.34.34,0,0,0-.32.14c-.67,1.1,4,3.31,1.7,4.15a.86.86,0,0,1-.27.05c-2.45,0-8-10.38-9.3-16.9-1.36-6.78-1.36-5.85-3.31-7.54s-1.35-11.69-1.35-11.69c-3.24-2.51,1.26-7.58,4.62-7.57a3.44,3.44,0,0,1,.46,0c3.39.51,1,3.39,4.66,4.4s5.84,4.66,7.11,5.09,0,2.28.26,4c.19,1.25,5.72,3.35,8.58,3.35,1,0,1.67-.26,1.67-.9,0-2.45,0-6.43,1.1-8s-.43-3.65-.68-6.1,4-7,4-7c1.1-2.2-1-9.91-2.63-16.43s-6.6-20.59-9.06-24.48.93-13.3.93-13.3c-2.71-3.81,2.71-11.52,2.71-11.52-.17-1.19-.25-3.56,1.61-7.71s-2-6.35.26-12.28,11-8.3,13.38-12,12.93-11.69,19.79-13a26.62,26.62,0,0,1,4.94-.48c3.88,0,6.3.92,7.6,1h0c1.7,0,6.35-12,10.64-12M224.42,146.89c1,0,17-12.56,17.35-16.21.21-2.11,2.14-7.42-.29-10s.72-7.56.72-7.56c2.71-22.83,5.13-16.55,5.85-18.71s5-1,5.85-2.27-1.32-1.67-2.38-3.53,7.7-2.65,7.7-2.65c-2.78-2.13,4.25-6.91,1.6-11.16s3.18-7.17,5-9,4.52-7.7,1.07-19.39c-.85-2.86-3.51-4-7.08-4-11,0-30.61,11-32.81,17.65-2.92,8.77-10.36,34.8-12.22,40.38s4.25,25.49,6.64,32.13a61.48,61.48,0,0,1,2.92,14.35h0M341.56,149a4.82,4.82,0,0,1-3.1-1.29h-.35c-1.55,0-7.9.13-9.83,2.21a5.49,5.49,0,0,0-2.68-.62,8.17,8.17,0,0,0-4,1.11,2.35,2.35,0,0,1-1.22.32c-3.69,0-7.9-7.72-7.9-7.72s2.41,13.77,1.9,17.33,3.73,7.12,1.36,10.35c-2.17,2.94-4.77,5.32-6.49,5.32a1.78,1.78,0,0,1-.47-.06.62.62,0,0,0-.25,0c-2.18,0-10.41,5.44-9.6,8.85.85,3.56.18,10.5-2.19,13.72s-4,2.16-2.38,6.62c3.18,8.48,26.19,15.4,33.48,17.78s.34,5.43,2.21,6.27c.5.23,3.58.4,7.81.4,11.53,0,31.62-1.25,31.37-6-.34-6.44-11.53-30.7-10-34.26,0,0,10.36,5,15.67,5,1.43,0,2.5-.36,2.9-1.28,1.86-4.32-.68-20.1-.68-20.1s-5,5-6.85,5a.59.59,0,0,1-.61-.39c-.85-2,7.79-3.14,4.9-9.92s-5.09-4.07-6.95-5.43-1-4.4-4.75-6.11c-8.66-3.95-7.05-13.17-10.79-13.17-1.44,0-3.66,1.35-7.53,4.86a4.43,4.43,0,0,1-3,1.29M598.9,44.51c.48,0,1.09.38,1.78,1.31,1.71,2.28,3.31,2.66,4.19,2.66a2,2,0,0,0,.69-.1c0,1.83,11.12,20.27,21.37,26s15.87,15.87,20,19.53a2.46,2.46,0,0,0,1.66.7c2.4,0,4.7-3.86,7-3.86,1.08,0,2.17.84,3.28,3.29,4,8.91-5.74,5.86-2.44,8.42s6.23,12.45,5.53,13a1.14,1.14,0,0,1-.68.16c-.35,0-.76-.06-1.11-.06-.52,0-.93.12-.93.73,0,1.34,10.83,8.43,9.73,12.59-.14.52-.18.75-.14.75.24,0,4.13-11.06,4.13-11.06,15.08-7.23,7-5.73,9.1-9.52,1.25-2.27,7.79-2.69,13.13-2.69,3.16,0,5.91.15,6.9.15h.3c1.24-.1.48-3.93,1.69-3.93a1.53,1.53,0,0,1,.89.43c1.29,1,3.84,1.54,6.19,1.54,2.1,0,4-.41,4.78-1.21,1.59-1.71-2.19-3.67-2.63-5.73-.13-.62.11-.83.5-.83a7.65,7.65,0,0,1,2.74,1.19s5.29-3.08,6.92-3.08c.4,0,.58.18.41.63-.86,2.32,2.69,5.5,2.69,5.5,1.34-.86,1.58-2.2,2-4.4.16-1,.65-1.26,1.14-1.26a2.43,2.43,0,0,1,1.18.41V92a1.82,1.82,0,0,1-.89.43c-.36,0-.62-.36-.33-1.77.39-1.88-.18-2.22-.63-2.22a1.28,1.28,0,0,0-.47.1c-2.81-.12-1.47-3.42-1.47-3.42-2.56-5.73.37-7.57.37-7.57-.85-1.71,6.84-7.2,6.84-7.2-.86-11.46.22-14.08,1.38-14.08,1,0,2,1.87,2,1.87,3,5.32,7.08,6.69,10.48,6.69a15,15,0,0,0,6.49-1.56s1.46,2-.61,3-1.35,4.64,6.59,5.25,8.67,3.66,9.4,4.52a.4.4,0,0,0,.29.08c2.16,0,14.8-5.47,16.89-5.47l.16,0c1.59.36-1.22,4.27-.85,6.35.15.86,1.58,1.07,3.37,1.07,1.63,0,3.57-.17,5.11-.17a8.08,8.08,0,0,1,2,.19c2.44.74,7.93,5.5,7.93,7.33s-3.78,2.56-6.1,3.17-.25,2.73-.25,2.73,4.64,1.83,2.32,5.37-3.21,11.14-3.21,11.14a3.7,3.7,0,0,1,.88-.11,2.2,2.2,0,0,1,1.72.7c-1.1-2.08,3.66-2.32,3.66-2.32s0,4.39,3.06,5.73a1.18,1.18,0,0,0,.54.12c2.5,0,4.26-7.56,4.73-7.56,0,0,.08.07.1.24.24,1.95,3.54,5.13,3.54,5.13s.41-1.22.94-1.22c.24,0,.5.25.77,1a1.38,1.38,0,0,0,1.51.87c.89,0,2.07-.3,3.29-.3a4.59,4.59,0,0,1,3.38,1.27c3,2.93-4.88,10.13-4.88,10.13s5.29,5.49.81,8.58a7.94,7.94,0,0,1-4.61,1.41,11.2,11.2,0,0,1-5.05-1.29c.73,7.21,8.15,3.75,9.86,5.83s-19,1.94-15.68,7.68,9.15,8.55,11.47,13.37-4.64,9.46-6.94,10a4,4,0,0,1-.85.07c-2.7,0-9-1.36-12.36-1.36a4.46,4.46,0,0,0-1.82.27c-2.07,1,.5,2.71-1.2,2.71l-.39,0h-.17c-2.28,0-2.42,5-3.49,9.17s2.8,1.22,2.07,4.88,3.91,8.55,8.91,10.87,15.14,1.83,16.85,4.15,1.22,4.27-3.2,7a8.2,8.2,0,0,1-4,1.52,5.2,5.2,0,0,1-2.42-.91.84.84,0,0,0-.32-.07c-.91,0-1.17,1.78-2.61,1.78h-.44c-1.79,0-4.88.87-6,1s-2.46,2.83-5.8,2.83l-.43,0h-.23c-2.66,0,13,4.82,12.89,8.28s4,8.91,4,12.94c0,3.36,1.36,6.46-.81,6.46a5.65,5.65,0,0,1-1.77-.4c-4.54-1.64-23.63-3.95-23.63-3.95s-4.18,12.23-14.69,12.23a15.46,15.46,0,0,1-4.28-.63c-13.67-3.9-1.34-12.33-1.34-12.33a33,33,0,0,1-8.07,1.06,18.75,18.75,0,0,1-4.51-.45l-3.17,2.81-.61,0c-7.05,0-10.71-8.11-10.71-8.11s-7-.7-7.61-1.56-.61-1.6-4.21-1.6l-.79,0c-4.4.12-2.08,3.05-2.08,3.05-13.92,0-11.48-22.47-11.23-28.57s3.33-6.11,1.75-7.94.85-3.29-.37-6.1-7.57-1-9.89-3.79,1.1-5.13,2.2-8.18-8.43-8.67-8.43-8.67c-.07-5.9,4.33-7,7.62-7a16.09,16.09,0,0,1,3.51.39h.08c.34,0,1.56-.11.39-1.75-1.34-1.89,3.3-8,7.7-12.27s7.69-12,7.69-12c3.54,5.38,4,4.64,6.67,6.47s10.91,7,10.91,7l2.08-.12s1.53,2.81,2,2.81c.09,0,.13-.1.11-.37-.08-1-.17-1.22.41-1.22.34,0,.92.08,1.87.13,2.56.12,8.1,2.44,8.1,2.44s.81-2.08,4.34-2.08h.3c3.78.12,1.34,7.08.61,9.77s0,2,2.2,6.2c.9,1.75.83,2.1.51,2.1s-.54-.16-.75-.16-.3.19.07,1c1.23,2.68-1.58,4.76-1.58,4.76l3,7.2a7.68,7.68,0,0,0,1.83-3.78c.15-1.27,4.79-4.14,8.2-4.14,2.17,0,3.85,1.16,3.56,4.63-.73,8.91,13.43,29,13.43,29l5.13-1.58a3.83,3.83,0,0,0,3.18,2.32h.14c2.21,0,3-2.71,5-3.7a4.09,4.09,0,0,1,1.76-.38,6,6,0,0,1,2.62.66,39,39,0,0,0-13.31-8.3c-7.57-2.57-4.76-4.28-5.13-8.67s-4.27-8.67-5-13.07,3.66-4.88,5.12-6.59-.12-5,.86-7.45c.65-1.63,4.61-2.06,7.51-2.06a13.86,13.86,0,0,1,3,.23c1.1.37,6.1,7.33,6.1,7.33s6.11-1.59,7.57-4-4.76-5.86-11.35-9.89-1.33-9.47-1.33-9.47c-5.86-2.56,10.67-4,10.67-4s-3.91-2.44-3.42-4.4-12.74-18.19-15.79-22.22,2.81-22,0-26.41c-2.51-3.93-14.65-4.54-20.61-4.54l-1.86,0H771c-4.78,0-12.25-2.5-17.62-5a32.58,32.58,0,0,0-12.25-2.69c-2.55,0-4.57.5-5.21,1.72A13,13,0,0,1,731.71,77s3,.71,3.94,5a13.54,13.54,0,0,1-.12,7.21c3.05,0,4.15,1.62,1.83,6.51-1.41,3-3.17,3.54-4.34,3.54a3.22,3.22,0,0,1-1.28-.25c-3.14,6.49-6.21,7.12-7.28,7.12a2.31,2.31,0,0,1-.41,0,2.42,2.42,0,0,0,0-3.3c-.33-.42-.59-.61-.88-.61-1,0-2.24,2.13-7.79,4.76a11.72,11.72,0,0,1-5.1.89c-1.61,0-3.34-.12-5.21-.12-6.37,0-14.36,1.38-24.18,13.5-16.11,19.91-2.83,28.9-2.83,28.9s-13.65,13.35-11,23.12,6.83,16.6,10.5,20.14,5.37,5,4.39,15.75,2.93,11.6,3,17.1-3.9,12.82-9.64,13.67-13.17,1.59-13.17,1.59c-9.64-1-13.06-11.48-22.71-15.26a8.27,8.27,0,0,0-2.73-.73c-3.66,0,4.68,9-9.74,9h-.51c-17.46-.25-17.58-15.63-21-28s12-34.5,12-34.5a19.65,19.65,0,0,1-1.34-5.37c-.18-2,6.84-3.42,6.84-3.42-.65-4.19,3.52-5.18,7.59-5.18a37.76,37.76,0,0,1,7.18.79l12.7-8c-1.73-2.65-.19-10.09,3.38-10.09a2.51,2.51,0,0,1,.65.08c4,1,3.17,4.39,4.8,10,.56,1.92,2.35,2.55,4.46,2.55,4,0,9.11-2.26,9.11-2.26s.05.06.1.06.49-.52.27-4.7c-.3-5.74-10.72-23.12-16.58-28.25s-2.2-6.23-2.2-6.23-20.14-32.6-29.66-35.89-16.61-16.85-16.61-16.85c4.27,14.16,1,29.55,5.25,32.72s-1.22,17.46-3.78,18.93-3.3,8.79-4.77,10.37.74,1.59,0,3.3a2.94,2.94,0,0,1-2.32,1.83L590,133a15,15,0,0,1-.55,4.58c-.2.52-.5.69-.81.69-.7,0-1.48-.88-1.48-.88s-2.93,6.35-3,9.4-3.42,9.53-3.42,9.53c1.33,4.38.1,4.74-.34,4.74h-.15c.25,4.73-.73,5.89-.73,5.89a9.27,9.27,0,0,1,1,0c2.36,0,8,.68,9.34,7,1.71,8.06-11.36,14.53-13.31,22.22a63.65,63.65,0,0,1-8.06,19.17c-1.54,2.55-2.71,3-3.88,3-.58,0-1.17-.11-1.79-.11-1.28,0-2.72.46-4.71,3.24-4.88,6.84-2.93,2.57-7.93,7.08a13.06,13.06,0,0,1-8.49,3.49c-4.17,0-8.58-2.55-11.54-10-5.25-13.19-7.57-10.5-5.86-12.94s6-4.64,2.78-8.92l0,0c.43,0-4.48-18.67-5.61-21.6,1.28-2.2,5.52-5.6,2-9.08-1.46-1.47,1.32-5.13,3.77-6.11s5.73-17.82,7.2-20.63,1.34-4.88,2.69-10.62,6.59-9.08,8.05-12.13a2.45,2.45,0,0,1,2.48-1.55l.93,0c.62,0,1-.13,1-1,0-2.32,1-1.13,1.22-3,1.49-12-2.46-13.69-4.79-13.69a4.84,4.84,0,0,0-1.56.25c-.12,9.16-14.79,20.18-17,25.43s-8.3,11.72-11.35,14.41-9,5.66-10.86,7.73c-.61.69-1,.91-1.38.91-.62,0-1-.71-1.55-.71a.79.79,0,0,0-.25.05c-1.1.36-1.95,1.83-3.29,3.54s-6.23,2.56-11.72,4.82-5.74,8.36-6.48,13.12c-.41,2.7-1.41,3.28-2.2,3.28a2.09,2.09,0,0,1-1.09-.34c-1.47-10.38-5.13-10.38-6.47-12.12s-.61-9.74-.61-9.74c-7.82-.24-5.13-10-1.22-11.35s13.79-.62,18.8-5c4.78-4.2,3.21-10.3,1.46-10.3a1,1,0,0,0-.24,0,3.26,3.26,0,0,1-1,.24c-.75,0-.78-1-2.08-4.75-1.71-4.89-3.06-18.32-5.5-20.39s-2.68-2.08-4.15-2.08-1.34-1.71-3.3-3.3a6.07,6.07,0,0,0-3.76-1.09,8.81,8.81,0,0,0-1.49.12c.74,1.71-3.05,9-6,9.4s-2.2,3.42-3.78,4.39a2.1,2.1,0,0,1-1.12.33c-1.21,0-2.51-1.07-4.38-2.28-2.44-1.59,4-7.57,4.89-9.4.54-1.17-1.24-1.64-3.28-1.64a12.67,12.67,0,0,0-3.32.42c-2.56.73-4.51,4.88-11.35,6.83a7.81,7.81,0,0,1-2.22.33c-5.38,0-8.16-5.94-8.16-5.94-6,4.27-9,4.88-11,7.45S420,114.41,420,114.41s.5,0,1.28,0c2,0,5.87.32,7.64,2.61,2.44,3.18,0,5.37-.74,10.87s4.64,10.25,6.47,12c.49.45.71.61.85.61.34,0,0-1.11,1.9-1.11h.43c3.17.25,7.69,4.28,9.89,10.75s-4,11-4,11,3.42,1.13,3,7-5.74,6.05-3.42,7.76-.36,9.28-2.53,12.67a2.9,2.9,0,0,1-2.7,1.5c-.57,0-1.13-.08-1.64-.08-.9,0-1.65.27-2,1.78-.16.64-.8.88-1.76.88a11.94,11.94,0,0,1-2-.21,1.11,1.11,0,0,0,0-.51c-.83-2.61.56-3.13,2-4.82s.65-4.95-3.65-8.07S430.62,168,430.62,168a5.82,5.82,0,0,1-1.12.1c-1.58,0-4.29-.58-4.57-4.53-.39-5.6,8.34-3.77,8.73-7.55s-11.33-37.37-16.93-39.58-5.21-8.08-5.47-9.64-1.82-1.69-4.17-4.82.66-7-3.12-8.07a6.21,6.21,0,0,0-1.61-.25c-1.39,0-1.66.77-2.19.77-.22,0-.48-.14-.89-.51a2.52,2.52,0,0,0-1.8-.78c-.83,0-1.67.39-2.73.39h-.29c-1.95-.13-.78-1.56-3-2.74s.39-3.51.39-3.51c-5.32-7.09,6.1-11.47,8.3-11.47h.16c1.7.26,3.52,4.56,3.52,4.56,0-.26.27-.35.64-.35a7.77,7.77,0,0,1,1.83.35c-.26,2.21,8.29,20.34,8.29,20.34s5.86-4.64,9.8-5.37,3.51-3.3,4.85-4a1.16,1.16,0,0,1,.51-.14c1.1,0,1.93,1.85,1.93,1.85,7.13-2.14,15.27-2.69,21.75-2.69a108.05,108.05,0,0,1,11.83.61s-1.46-2.68,1-4.27a2.11,2.11,0,0,1,1.15-.31c2.79,0,7.27,3.88,7.27,4.83,0,1.1,1.59,2.44,1.59,2.44S477.48,92,478.63,92a1.22,1.22,0,0,1,.32,0c1.22.37.61,2.81,3.41,3.79s3.91,4.52,5.62,8.55c.7,1.64,1.33,2.12,1.84,2.12.74,0,1.21-1,1.21-1,0,2.45,3.54,6.11,2.69,8.31a2.66,2.66,0,0,1-2.7,1.58,4.88,4.88,0,0,1-1.09-.12V120a15.53,15.53,0,0,1,2.57,12.46c-1.71,7.08-11.48,7.45-16.24,12.82s0,16.6,0,16.6l1.71-.12h.18a1.76,1.76,0,0,1,1.77,1.48c.12-1.71,3.05-5.5,3.05-5.5-1.22-1.35,0-3.3,1.35-5.37a3.91,3.91,0,0,1,3.78-2.08c1,0,1.1-1.34,2.81-2.07a1.19,1.19,0,0,1,.5-.11c1.35,0,1.94,2.55,1.94,2.55a3.57,3.57,0,0,1,2.67-1.58,1.64,1.64,0,0,1,.63.11s3.78-.36,2.56-1.7,4.77-8.06,4.77-8.06c-1.1-.86-.86-7.94,1.09-8.06h.06c1.9,0,1.9,6.71,1.9,6.71s7.68-.28,9.22-1.85-1.78-.27-1.17-4.54,8.42-4.27,8.42-4.27-2.81-1-.12-4.56,1.34-4.4,2.08-6a2.33,2.33,0,0,1,2.27-1,7.18,7.18,0,0,1,1.51.17c-1-1.42-1.09-1.88-.64-1.88.83,0,3.32,1.56,4.31,1.56H533c1.35-.24,2.37-4.78.66-7.22s-11.85-7.08-8.18-11a3.43,3.43,0,0,1,2.55-1.17c3.19,0,6.48,4.35,6.48,4.35s.61-3.42-1.34-8.79c-1.78-4.89,4.93-7.66,8.27-7.66a4,4,0,0,1,.89.09c2.8.61-.13,6.22-.13,6.22a16.06,16.06,0,0,1,5.68-1.34c3.72,0,3.85,2.69,3.85,2.69-1.83,0,4.6,7.08,4.6,11.72,0,1.91.37,2.1.73,2.1h.27c.39,0,.63.26.09,3.28-1.09,6.23-5,8.3-5,8.3,1.1,7.28-2.75,3.77-5.68,6.33s-8.18,10.79-8.55,15.3,8.18,3.3,9.28,6.23-5.61,8.55-7.57,9.28a1.47,1.47,0,0,1-.56.11c-1.11,0-1.69-1.35-2.5-1.35-.28,0-.59.17-1,.63-1.58,1.95-1,4.76,2.69,7.33s3.91,8.18-1.59,9a6.58,6.58,0,0,1-1,.08c-4,0-6.13-3.92-7.53-3.92a.93.93,0,0,0-.77.54c-1.46,2.45,3.79,2.57,3.8,4.64s-4.89,5.38-6.24,6.72,2.81,2.2,3.91,6.59-1.69,11.24.26,12.82c1.7,1.38-.71,6.38.48,6.38a1.56,1.56,0,0,0,.8-.37c2-1.4,2.38-2.31,3.1-2.31a2.44,2.44,0,0,1,1.14.45c1.83,1.1-6.59,5-4.64,9.28a5.06,5.06,0,0,0,4.93,3,8,8,0,0,0,2.15-.29s-1.22-9.1,3.22-9.1a4.39,4.39,0,0,1,.69.06c5.25,1-2.32,22-2.32,22,3.41-2.32,7.09-1.3,9-2.15s-.73-10.26.73-14c.57-1.45,1.39-1.9,2.2-1.9a4.54,4.54,0,0,1,2.57,1.16C548.48,195.48,562,187,567.12,187a3.46,3.46,0,0,1,.83.09c4.28,1.1,3.06,13.68-.61,15.27s-9.4,8.79-9,10.25a2,2,0,0,0,2.09,1.25c1.5,0,3.63-1,5.84-4.42,3.91-6,3.67-7.33,6.23-7.57s2.93-8.06,1.59-12.09,2.56-10.74,1.71-14.9a14.42,14.42,0,0,1,.24-7.2l-2.56-1.59a6.55,6.55,0,0,0,3.29-5c.37-3.57-2.93-6.32-2.93-6.32s6.84-7.69,5-9.52,1.6-11.25,4.24-11.25a1.08,1.08,0,0,1,.52.13,3.48,3.48,0,0,0,1.62.48c1.73,0,2.69-2,1.92-5.73-.61-3,3.14-3.17,6.74-3.17h1.72a11.58,11.58,0,0,0,3.64-.35c2.8-1.1,7.08-10.62,6.47-13.55s3.54-19,3.54-19a5,5,0,0,1-2.81.6c-4.22,0-11.09-2.3-9-9,.65-2.11,1.61-2.85,2.72-2.85,2.72,0,6.31,4.5,8.15,4.5.54,0,.93-.39,1.1-1.41,1-5.86-5.25-7.2-5.25-7.2s0-8.67-2.81-11.84-1.83-12.7-3.17-15.88c-1-2.31-.53-5.09.78-5.09M713.9,163c-.45,0-1.09-.23-1.73-.23-1.51,0-3,1.26-2,9.76,1.57,13.57,4.47,9.68,5,12.66s.75,7.2,2.49,9.18-6.79,6-4.56,7.7-2.89,16.38,2.11,16.38h.13c5.21-.25,11.66-6.45,11.66-6.45s6,8.44,4.22,10.67c0,0,12.38,4.15,14.4,9.18.45,1.12.9,1.58,1.36,1.58,1.6,0,3.19-5.74,4.35-9a23.14,23.14,0,0,0,1.49-6.95s7,8.21,10.85,8.21l.32,0c2.78-.37,7.56-2.69,10.31-2.69a1.91,1.91,0,0,1,1.94.95c1.24,2.73,0,6.21,0,6.21s20.14.07,26.91,1c0,0,2-8.19,0-10.18s-15.74-10-15.74-10-25.16-23.08-29.13-34.75-1.4-21.34-12.57-24.82c0,0,2,3.72,0,4.47a1.33,1.33,0,0,1-.47.07c-2.61,0-10.32-4.93-10.7-10.59-.42-6.05-12.66-6.11-12.66-6.11s-1.74,11.66-5.71,14.15-6.21,3.72-4,5,3.22,3.48,2.23,4.47a.6.6,0,0,1-.45.15m-55.71-6.84c-.47,0-.94,0-1.4,0-.31,0-.63,0-.95,0-7,0-16,4.81-18.18,6.13s-7.56,1.86-10.62,2.51-9.65,14-9.65,14,5.79,3.06,0,12.39c0,0,4.67,6.11,0,8a7.42,7.42,0,0,1-2.86.56,11.34,11.34,0,0,1-6.35-2.3s3.68,9.55,3.36,12a4.56,4.56,0,0,1-.08.49c-.28.31-.31.61-.24.61s.15-.17.24-.61a2.28,2.28,0,0,1,1.45-.68c2.36-.31,4.94-6.57,10.44-6.57h.41s3.06,8,4.67,8-1,10.61-7.08,12.06c0,0,7.4,4.66,7.24,7.24,0,.24,0,.35.16.35,1.1,0,7.49-9.44,11-9.44l.23,0c3.86.48,15,9.57,13,11.9,0,0,2.46-.17,5.49-.17a41.12,41.12,0,0,1,8.41.68c3.93.92,5.19,3.32,7.17,3.32a3.24,3.24,0,0,0,1.52-.42c3-1.61,6.27-4.67,4.18-7.4s-8-10.13-7.24-13.67,5.15-1.45,5.31-4.18-12.71-26.85-17-27.82,3.86-4.18,1-17.2,8.56-7.22,10.49-12c0-.08,0-.11-.16-.11-1.14,0-7.87,2.4-13.94,2.4m-136.94,22s.1.14.2.38l-.17.32c-.07-.48-.08-.7,0-.7m-102.93,12c4.05,0,9,1.63,12.34,2.22-.31,2.25-7.52,3.48-7.16,8.21.09,1.11-.79,1.53-2.24,1.53-2.94,0-8.25-1.72-12.69-2.87a25.11,25.11,0,0,0,3.49-5.89c1.1-2.42,3.46-3.2,6.26-3.2M270.55,24.35h0c-4.32,0-7.39,5-10.1,9.49-.47.76-1.05,1.72-1.5,2.37l-.15,0a30.84,30.84,0,0,0-6.51-.76,29.8,29.8,0,0,0-5.48.53c-7.66,1.41-19,9.91-21.78,14.3-.62,1-2.53,2.18-4.37,3.35-3.38,2.14-7.59,4.8-9.28,9.21a13.27,13.27,0,0,0-.31,9c.4,1.54.54,2.2.11,3.15a18.64,18.64,0,0,0-1.94,8.14c-1.55,2.44-4.61,8.11-2.89,12.57-1,3.19-2.84,10.49-.22,14.65,2.18,3.46,7.12,17.23,8.69,23.59l.51,2.06c.9,3.59,2.53,10.11,2.34,12.16-1.72,1.94-4.63,5.72-4.3,8.84a15.6,15.6,0,0,0,.7,3.06,12.7,12.7,0,0,1,.34,1.25c-1.09,1.76-1.38,4.38-1.46,7.26a18.28,18.28,0,0,1-4.2-1.41l0-.2c.68-3.36-.73-4.75-2.14-5.31-.21-.17-.59-.55-.88-.84a15.6,15.6,0,0,0-6.65-4.39,1.07,1.07,0,0,1-.26-.09,2.55,2.55,0,0,1-.11-.33,5.28,5.28,0,0,0-4.65-4.06,6.58,6.58,0,0,0-.9-.06c-3.37,0-7.21,2.87-8.38,6.28a5.81,5.81,0,0,0,.7,5.41c-.29,6.85.53,11.17,2.44,12.83l.82.68.35.28a38.78,38.78,0,0,1,1.16,4.9c.9,4.5,6.48,19.32,12.25,19.32a3.88,3.88,0,0,0,1.31-.23l.08,0a4.51,4.51,0,0,1,.12,2.42c-.8,3.21-2.1,7-3.83,7l-2.31,0c-14,0-25.34,3.46-27.48,8.4a4.42,4.42,0,0,0,.14,4c-.42.44-1,1-1.46,1.41-2.31,2.15-5.46,5.08-5.26,9.23a18.26,18.26,0,0,1-.11,3.73l-.69-.57c-1.27-1.08-3-2.56-5.45-2.56a6.21,6.21,0,0,0-2.3.46,7,7,0,0,0-1.49.85,6.81,6.81,0,0,0-1.49-4.27,20.38,20.38,0,0,0-15.85-7.1,23.18,23.18,0,0,0-2.75.16l-2.74.31.08,2.76.09,2.88.08,2.67,2.66.23a5.55,5.55,0,0,1,2.39.77,2.87,2.87,0,0,1-.13.35c-1,2.26-2.48,3.07-3.13,3.15-.92-.8-2.56-1.47-8-3.56-4.42-1.68-14.43-5.49-16.72-7.62l.39-1.79-2.53-.87a6.34,6.34,0,0,0-2-.33,5,5,0,0,0-5,4.38c-.76,4.72-1.45,6.78-1.84,7.63-4.86-.15-11.06-1.88-14.44-8.81-1.27-2.6-2.29-4.58-3.11-6.16-2.51-4.85-2.66-5.14-2.36-8.06.45-4.48.13-17.49-2.57-22.34-1.6-2.89-4.58-5-6.76-6.62l-.08-.06c1.67-2.05,3.88-5.12,3.38-8.59a6.94,6.94,0,0,0-1.6-3.52c1.08-2.36,2.12-5.62,1.15-8a4.47,4.47,0,0,0-3-2.66,7.25,7.25,0,0,0-2.09-.27,21.92,21.92,0,0,0-4.56.66c-.7.15-1.42.31-2,.4,0-.88.09-1.95.17-2.88.28-3.21.56-6.53-2.25-7.78l-.35-.18a18.12,18.12,0,0,0-8.87-2.35,21.47,21.47,0,0,0-8.84,2,12.51,12.51,0,0,1,.68-3.07,10.46,10.46,0,0,1,1.19-.7,13.39,13.39,0,0,0,5.64-5.09c1.9-3,3.66-5.1,9.06-5.1.46,0,.94,0,1.43,0l.85,0a10.56,10.56,0,0,0,10.23-7.08c1-2.77,1.12-6.41-1-8.28-1.53-1.34-5.25-2.21-9.15-2.77,4.09-5.22,8.92-9.77,11.51-9.77l.27,0,5.84,1.3-2.45-5.45c-.57-1.29-.92-3.28-.52-3.89.12-.19.69-.38,1.65-.38.19,0,.38,0,.59,0a5.78,5.78,0,0,1,2.33.47,9.24,9.24,0,0,1,.06,1.37c0,1.88,0,4.72,2.59,7.06s5.41,3.59,8,3.59a8.1,8.1,0,0,0,6.05-2.68c2-2.13,2.44-6.09,2.88-9.91,0-.34.08-.7.12-1.07a11.69,11.69,0,0,1,2.49,3l.07,1.87,1.92.68a6.09,6.09,0,0,0,1.88.3c2.16,0,4.8-1.33,5.29-5.07,1.06-1.54,6.92-5,9.77-6.61,3.72-2.17,5.79-3.4,6.91-4.55l.39.13a15.26,15.26,0,0,0,4.85.86,14.21,14.21,0,0,0,2-.15,27.52,27.52,0,0,1,4-.29A23.32,23.32,0,0,1,152,94.63a1.51,1.51,0,0,1,.66,1.25c.07,3.57-7,10-10,12.73s-4.3,3.93-3.46,6.1a3.12,3.12,0,0,0,2.95,2c1.8,0,6.57,0,8.81,2.43a18.56,18.56,0,0,1,2.41,4.7c1.5,3.67,3.2,7.83,7.29,7.83a6.1,6.1,0,0,0,1-.1l.43-.1c.19,2.81.88,5.94,2.75,8.12a7.61,7.61,0,0,0,6,2.68,13.45,13.45,0,0,0,5.48-1.34c5.46-2.43,8.38-5.43,8.69-8.92.38-4.41-3.55-7.18-4-7.49l-.05,0-.05,0L172,119l-.45-.28-.53-.1A19.29,19.29,0,0,1,166.2,117c0-2.42-.22-6.17-5.28-9.06a9.25,9.25,0,0,0-2.34-1.09l-.94-.69a32.12,32.12,0,0,1,4.48-4.76c3.58-3.39,6.68-6.31,6.16-9.66a4.93,4.93,0,0,0-3-3.71,18,18,0,0,0-8.12-1.85,6.24,6.24,0,0,1-4.92-1.75c-1.64-1.37-1.69-2.65-1.75-4.58-.08-2.12-.2-5.67-4.33-7.22a17,17,0,0,0-5.88-.89c-4.18,0-11.41,1.15-14.22,4.31a13.57,13.57,0,0,0-2,3h0a7.91,7.91,0,0,0-2.67-.55,5.11,5.11,0,0,0-2.77.8l-.37.24c-3.14-2.63-4.43-2.75-5-2.8h-.31c-1.61,0-3.23,1.24-4.52,2.61a3.24,3.24,0,0,0-.59-1.39,3.28,3.28,0,0,0-2.7-1.35c-3.25,0-8.94,5.73-10.93,9.44-1.7,1.56-11.51,3.75-16.81,4.94C66,93.48,62.17,94.51,60.94,97.09a10.12,10.12,0,0,0-.94,5h-.16c-1.14.06-3.81.2-4.8,2.94a4.14,4.14,0,0,0-.26,1.64c-4.31,2.65-9.35,6.54-9,11.4a6.71,6.71,0,0,1-1.06,4.61,2,2,0,0,1-1.3.67,10.46,10.46,0,0,1-.28-4.32l.6-4.85-4.59,1.65c-.47.17-11.44,4.23-12.51,15-1,10.14-2.5,17.07-4.41,20.59-.74,1.37-1.59,2.77-2.5,4.25-2,3.28-4.05,6.67-5,9.86-.54,1.91-3.6,2.06-3.63,2.06L4,167.91l5.18,4.89a5.66,5.66,0,0,0,3.93,1.35c2.29,0,4.92-1,7.79-3a5.59,5.59,0,0,1,.57-.35A8.24,8.24,0,0,1,21.7,173l-.45,14.41,6.16-13c.68-1.41,1.9-3,2.5-3.18h.25a3.28,3.28,0,0,1,1,.19,8.71,8.71,0,0,0,2.44.38A10.38,10.38,0,0,0,37.3,171a13.06,13.06,0,0,0,3.41-2,5.58,5.58,0,0,1,4-1.44,18.53,18.53,0,0,1,3.25.35c1.15.21,2,.4,2.51.55A3.61,3.61,0,0,0,52.27,171a4.21,4.21,0,0,0,2.11.64,3.3,3.3,0,0,0,2-.7,12.13,12.13,0,0,1,2.32,1l-.45.25c-3.49,1.94-7.09,3.94-7.35,7.21a4.65,4.65,0,0,0,2,4.1c.84.65,1.56,1.19,2.14,1.61,2.18,1.62,2.41,1.79,3.34,4.17.37,1,1,2.38,1.78,4.18,1.78,4,6.52,14.78,6.14,17.31-.7,4.75-1.09,11.92,3.51,19.26a46.17,46.17,0,0,1,2.49,4.7C75,240.25,78,246.52,87.94,251.64c8,4.14,26.12,8.54,43.86,8.54,8.64,0,15.83-1.07,21.38-3.19,10.57-4,12.69-6.45,13-9.92a6,6,0,0,1,.84-.41c4.36-1.89,9.29-4,8.39-8.88.24-.52.84-1.49,1.26-2.16a24.78,24.78,0,0,0,2.75-5.38,117.06,117.06,0,0,0,14.9,1.1c8.34,0,13.86-1.33,16.87-4.06,7.07-6.4,2.36-16.78.22-20.64a14.69,14.69,0,0,0,.14-9.27c-1.32-4.62-5-6.47-7.46-7.69a8.67,8.67,0,0,1-2.37-1.46c-.8-1.13-1.09-3.08-1.36-5a24.57,24.57,0,0,0-.79-4,7.5,7.5,0,0,0-1.81-3.08,5.06,5.06,0,0,0,.64-1.91,4.74,4.74,0,0,0,0-1.41,18.34,18.34,0,0,1,2.85,2.32,11.4,11.4,0,0,0,8.44,3.39,14.6,14.6,0,0,0,2.5-.21,5.3,5.3,0,0,0,2.36.56,5.46,5.46,0,0,0,2.32-.53c2.53-1.16,5.73-5.16,5.73-8a8.69,8.69,0,0,0-.2-1.71c.23,0,.49,0,.76,0a7.83,7.83,0,0,0,1.08-.07,11.39,11.39,0,0,0,1.83-.39c1.28,3.63,3.7,9.25,7.21,12.06,3.67,2.94,4.8,5.29,4.78,6-.28.61-.67,1.59-1.15,2.81-.64,1.6-2.09,5.27-3.15,7.29a5.21,5.21,0,0,0-3.11-1.17,4.07,4.07,0,0,0-1.5.28c-2.94,1.18-5.42,8.31-5.53,8.61-.91,2.66-1,4.37-.18,5.72l.3.49c-2,1.82-4.29,4.68-4.18,8.11.12,3.78,3.09,5.8,5.06,7.14.3.21.69.47,1,.71-.27.31-.61.67-.9,1-1.92,2-5.14,5.37-4.37,10.67.63,4.33,4.05,7,8.92,7A21.3,21.3,0,0,0,241,240.88a131.14,131.14,0,0,1,11.9-7.4l1.59-.84V225.5a110.51,110.51,0,0,0,1-11.34c5.35-13,15.84-31.68,22-31.68h.14l1.07,0c8.37,0,15.2-5.53,18.81-9.18-4,6.83-4.47,9.81-4.11,11.37a40.9,40.9,0,0,1-3.83,3.47c-.94.8-1.84,1.54-2.49,2.18-2.46,2.4-1.71,4.24-1,5.13.06.08.13.19.21.32h-.47c-5.24,0-7.73,2.6-8.9,4.77l-.33.62c-1.35,2.48-2.62,4.83-1.1,7.57,1.08,2,3.29,3.49,8.09,6.51a46.69,46.69,0,0,1,8,6,6.35,6.35,0,0,0,4.19,2.24l1,0c3.63.12,5,.51,5.43.86a7.4,7.4,0,0,1-1.12,3.17c-.64,1.23-2.15,4.11.32,6a3.43,3.43,0,0,0,2.09.69,8.22,8.22,0,0,0,3.91-1.48c1.44-.81,3.4-1.91,4.86-1.91h.16l.49,0a5.24,5.24,0,0,0,3.22-1,10.51,10.51,0,0,1,.24,5.43l5.82,1.46c.1-.38.19-.72.29-1a9.66,9.66,0,0,0,2,4.19,9.19,9.19,0,0,0,7.38,3.09c8.57,0,21.23-4.14,23.95-5.9a32.72,32.72,0,0,1,12.11-3,8.1,8.1,0,0,1,1.87.18,23.24,23.24,0,0,1,4.05,1.9c3.44,1.86,7.72,4.16,12.64,4.16a15.1,15.1,0,0,0,6.32-1.39,21.49,21.49,0,0,0,7.73-5.51,11.71,11.71,0,0,0,2.53,5.22,11.37,11.37,0,0,1,1,2.55c1.08,3.42,2.89,9.14,10,9.14a14.5,14.5,0,0,0,2.12-.17c5.35-.79,8.76-4.85,9.12-10.85,0-.33.44-8.09-3.52-9.17l-.49-.13c.05-4.66.47-9,1-10a9.5,9.5,0,0,0,.26-9.15,5.42,5.42,0,0,0-4.78-3h-.23a16.5,16.5,0,0,0-5.16,1.6c-1,.4-2.05.86-3.05,1.19a8.6,8.6,0,0,0,.69-2.44,7.33,7.33,0,0,0-.93-5.35c.13-.1.26-.21.4-.34l1.58.44c3.88,1.07,7.55,2.08,10.19,2.08a5.32,5.32,0,0,0,4.15-1.51,4.23,4.23,0,0,0,1.08-3.25c-.07-.89.94-1.67,3.06-3a15.7,15.7,0,0,0,2.55-1.81h.52c3,0,4.09-1.64,4.49-2.62.29,0,.6,0,.95,0a5.91,5.91,0,0,0,5.23-2.88c1.34-2.11,5.42-10.34,3.27-14.89a10.33,10.33,0,0,0,3.15-7,11.49,11.49,0,0,0-1.69-7.3,12,12,0,0,0,2.51-11.85c-2.39-7-7.64-12.39-12.5-12.77l-.66,0a5.91,5.91,0,0,0-1.81.26c-1.89-1.84-4.86-5.14-4.43-8.33a25.14,25.14,0,0,1,1-4.19c.79-2.62,1.69-5.59-.86-8.9-2.22-2.89-6.13-3.67-9.28-3.77-1-2.69-1.6-5.45-1.37-6.37a12.94,12.94,0,0,1,3.69-2.57c1.13-.65,2.45-1.39,4-2.39a11.63,11.63,0,0,0,9,4.75,11.06,11.06,0,0,0,3-.44,23.55,23.55,0,0,0,9.55-5.45,9.38,9.38,0,0,1,1.81-1.39,7.77,7.77,0,0,1,.87-.18c-2.32,2.89-3.85,5.2-3.48,7.57a4.13,4.13,0,0,0,1.86,2.87l1,.65c1.62,1.09,3.14,2.11,5,2.11a5.11,5.11,0,0,0,2.69-.77,6,6,0,0,0,2.41-3.38c.07-.18.16-.44.24-.6,3.1-.44,5.46-3.81,6.6-5.8a17.78,17.78,0,0,0,1.61-3.56,1.9,1.9,0,0,1,.69.29,4.63,4.63,0,0,1,1.05,1.3,4.77,4.77,0,0,0,4.14,2.67h.49a17.64,17.64,0,0,1,1.64,1.29c.9,1.26,2,7.08,2.7,10.57a69.73,69.73,0,0,0,2,8.6c.35,1,.61,1.83.82,2.49.6,1.88,1.34,4.22,4,4.27a5.85,5.85,0,0,1-2.15,4.76c-2.67,2.34-7.73,2.92-11.8,3.38a30,30,0,0,0-6,1.05c-3.66,1.26-6.39,6.39-5.73,10.77a7.17,7.17,0,0,0,4.75,5.84c-.22,4.59.26,7.66,1.41,9.15a8.1,8.1,0,0,0,1.8,1.63c1.32,1,3.12,2.26,4.08,9.07l.18,1.28,1,.75a5.12,5.12,0,0,0,2.84.9c1.29,0,4.36-.57,5.17-5.82.08-.51.15-1,.23-1.57.66-4.75,1.32-8,4.42-9.23,2-.81,3.86-1.44,5.54-2,3.48-1.15,6-2,7.4-3.76l.88-1.16.59-.79a3.68,3.68,0,0,0,1.26.22,5,5,0,0,0,3.63-1.92,31.1,31.1,0,0,1,4.65-3.3,50.59,50.59,0,0,0,5.94-4.17c2.49-2.19,9.52-9.25,12.14-15.5.59-1.41,3-4.09,5.4-6.68,4.43-4.87,9.79-10.74,11.37-16.69.47.6,1.66,2.83.85,9.6a4.14,4.14,0,0,0-1,1.71,5.39,5.39,0,0,0-4.42,3.21,15.93,15.93,0,0,1-2.29,2.87c-2.21,2.44-5,5.49-6,9.87-.48,2.08-.78,3.71-1,5a15.87,15.87,0,0,1-1.39,4.91c-.65,1.25-1.31,3.65-2.43,7.79-1,3.54-2.69,10-3.75,11.68a10.44,10.44,0,0,0-5.42,6.51,4.59,4.59,0,0,0,1.17,4.27c.63.63.89.89-1.18,3.58h-.31l-.91,1.05a3,3,0,0,0-.73,1.91l-.1.16.1.25a5.42,5.42,0,0,0,.09.78l1.49,9.91,1-2.2c1.49,5.52,3.15,12.13,3.27,13.19a2.85,2.85,0,0,1,.74-2.08l2.19,2-2.42,1.8c.84,1.12.94,1.27-1.09,3.39a17.08,17.08,0,0,0-1.74,2c-1.53,2.18-1.49,3.68.17,5.71.86,1.05,2.65,3.24,5.36,10.06,4.12,10.35,10.75,11.89,14.33,11.89a16,16,0,0,0,10.5-4.26,8.36,8.36,0,0,1,2.75-1.95c1.75-.71,2.7-1.53,5.62-5.61,1.41-2,2-2,2.26-2a6.09,6.09,0,0,1,.65,0c.33,0,.72.06,1.14.06,2.61,0,4.6-1.36,6.45-4.42a66.36,66.36,0,0,0,8.4-20c.65-2.56,3.32-5.4,5.9-8.15,4.09-4.36,8.73-9.31,7.43-15.43a11.27,11.27,0,0,0-9.59-9.17c0-.43.05-.9.05-1.39l.16-.2c1.21-1.63,1-3.88.49-5.9,1.06-2.21,3.1-6.81,3.22-9.71a22.93,22.93,0,0,1,1.66-5.64,3.88,3.88,0,0,0,3.47-2.6,13.64,13.64,0,0,0,.73-3.83l10.68-5.53a6,6,0,0,0,4.1-3.53,4.33,4.33,0,0,0,.12-3.36,20,20,0,0,0,1.59-4.25c.43-1.43,1.22-4.07,1.84-4.67,3.2-1.92,6.45-10.54,6.78-16.08.23-3.67-.7-6.31-2.75-7.83-1-.81-1.28-6.62-1.44-10.46-.09-2.32-.19-4.85-.41-7.51,2.89,3.08,6.44,6,10.43,7.34,5.89,2,19.11,20.4,26.91,32.73a4.81,4.81,0,0,0-.28.86c-.69,3.2,2.09,6.07,4.25,8,2.49,2.18,6.32,7.35,9.76,13.16,3.88,6.55,5.7,11.24,5.8,13,.05,1,.07,1.74.07,2.27a21.88,21.88,0,0,1-6.56,1.47,2.63,2.63,0,0,1-1.54-.29.24.24,0,0,1,0-.1,38.27,38.27,0,0,1-.88-3.88c-.61-3.28-1.31-7-6.09-8.16a5.8,5.8,0,0,0-1.36-.16c-2.28,0-4.26,1.33-5.58,3.76a13.42,13.42,0,0,0-1.38,8l-9.71,6.1a40.48,40.48,0,0,0-6.59-.62c-4.38,0-7.35,1-9.11,3.05a6.4,6.4,0,0,0-1.39,2.78c-.49.14-1,.31-1.57.5-1.4.49-5.67,2-5.35,5.54a21.7,21.7,0,0,0,1,4.7c-3.56,5.37-14.88,23.76-11.57,35.7.53,1.91,1,3.89,1.44,6,2.41,10.66,5.4,23.94,22.41,24.18h.55c5.06,0,8.31-1,10.22-3.16a7,7,0,0,0,1.7-5.06c3.49,1.51,6.09,4.1,8.83,6.83,3.82,3.81,7.77,7.75,14.13,8.39l.3,0,.3,0c.3,0,7.56-.74,13.31-1.6,7.39-1.1,12.36-9.69,12.2-16.71a15.68,15.68,0,0,0-1.58-6.26c-1-2.3-2-4.67-1.48-10.49,1-11.5-.93-14-5.13-18l-.17-.16c-3.86-3.74-7.48-10.76-9.69-18.79-1.81-6.59,6.73-16.8,10.17-20.18l2.62-2.57-3-2.06A10.27,10.27,0,0,1,676,140.9c-.69-5,1.8-11.11,7.19-17.77,8.82-10.89,15.71-12.39,21.85-12.39.92,0,1.83,0,2.7.06s1.69.06,2.51.06a14.57,14.57,0,0,0,6.39-1.18c1.13-.53,2.09-1.05,2.93-1.54l3.7.88a4.8,4.8,0,0,0,1.16.13c1.94,0,5.53-.94,9-6.88,1.76-.11,4.63-1,6.64-5.25,1.11-2.33,2.39-5.74.74-8.35A4.88,4.88,0,0,0,739,87a18.81,18.81,0,0,0-.42-5.64,10.82,10.82,0,0,0-2.13-4.52,16.14,16.14,0,0,0,2-2.81,7.23,7.23,0,0,1,2.68-.36,29.59,29.59,0,0,1,11,2.41c5.23,2.44,13.31,5.29,18.88,5.29h.41l1.78,0c11.08,0,17.24,1.84,18.08,3.15s-.06,7.69-.51,11.1c-.88,6.7-1.64,12.49.65,15.51.59.79,1.53,2,2.71,3.48,3.11,4,11.19,14.25,12.43,17a4.64,4.64,0,0,0,.33,2l-.19,0c-5.08.82-8.11,1.83-8.56,4.56a3.46,3.46,0,0,0,.29,2.08,8.76,8.76,0,0,0-1,5.1c.23,1.79,1.23,4.37,4.7,6.49L804,153a62.21,62.21,0,0,1,7.79,5.22,16.38,16.38,0,0,1-3.17,1.49c-4.49-6.06-5.57-6.42-6.31-6.67a15.82,15.82,0,0,0-3.94-.38c-5.79,0-9.25,1.33-10.3,3.95a11.07,11.07,0,0,0-.47,5,10.93,10.93,0,0,1,0,1.68c-.22.16-.68.43-1,.62-1.81,1-5.57,3.2-4.71,8.35a24.46,24.46,0,0,0,2.75,7.06c1.07,2.08,2.08,4,2.22,5.76a10.46,10.46,0,0,1-.1,2.25c-.47,4.18.52,6.72,7.26,9a31,31,0,0,1,7,3.52,15,15,0,0,0-1.49,1.53c-.23.26-.55.63-.75.81a.93.93,0,0,1-.4-.39l-1-2.61-2.67.83-3,.93c-5.19-7.71-12.1-20-11.67-25.29a7.41,7.41,0,0,0-1.66-5.9,6.35,6.35,0,0,0-4.89-2,16.16,16.16,0,0,0-9,3.46,6.67,6.67,0,0,0,.79-3.67l.14-.21c1.06-1.75.1-3.6-.6-5a32,32,0,0,0-1.84-3.13c-.08-.13-.18-.27-.25-.39s.06-.28.12-.51.16-.55.25-.87c1.2-4.15,2.13-8.08.22-10.71a4.85,4.85,0,0,0-3.87-2H759a8.33,8.33,0,0,0-5.16,1.53,28.1,28.1,0,0,0-7.14-1.89c-.45,0-.81-.05-1.1-.08s-.62,0-.91,0h0l-.72-1.32-1.9.11-1.12.06c-2.13-1.33-7.88-4.94-10-6.38-.71-.49-1.29-.82-1.75-1.09-1.18-.67-1.77-1-4.11-4.56L722,126.54l-2.2,5.12c0,.07-3.12,7.2-7,11-3.33,3.24-8.14,8.57-8.74,12.8l-.84,0c-3.41,0-6.19,1-8.05,2.88a9.63,9.63,0,0,0-2.57,7.16l0,1.69,1.45.86c3.06,1.8,6.16,4.3,6.93,5.53a16.74,16.74,0,0,1-1,1.63c-1.22,1.89-3.5,5.39-.51,9,1.91,2.31,4.86,2.67,7.23,3a15.34,15.34,0,0,1,2.31.39,2.56,2.56,0,0,1-.18,1.13,5.68,5.68,0,0,0,.3,4.58,13.53,13.53,0,0,0-1.84,6.75c0,.46-.05,1-.09,1.66-.35,6.38-1.1,19.65,5.11,26.22a12.16,12.16,0,0,0,9.21,3.81h6.6l-2.65-3,.52.06.17.25c.58.81,1.3,1.81,8.16,2.62,1.68,2.8,5.83,8.3,12.6,8.3l.8,0,1-.06.77-.68,2.08-1.84a27.11,27.11,0,0,0,3.61.23h.59a7.21,7.21,0,0,0-.54,4c.53,3.28,3.4,5.69,8.54,7.16a18.78,18.78,0,0,0,5.1.74c9.53,0,14.6-7.93,16.56-12,7.53.95,17.94,2.49,20.74,3.51a8.32,8.32,0,0,0,2.79.58,4.11,4.11,0,0,0,3.16-1.36c1.38-1.56,1.12-3.58.87-5.54a20.1,20.1,0,0,1-.22-2.56c0-2.68-1.2-5.37-2.36-8-.8-1.79-1.7-3.81-1.67-4.87.12-3.31-3.43-5.6-8.79-8.09l.2-.17c.48-.08,1-.2,1.67-.33a22.73,22.73,0,0,1,3.52-.57h.44a4.48,4.48,0,0,0,3.12-1.24,5.84,5.84,0,0,0,2.23.44,11,11,0,0,0,5.58-2c2.24-1.36,4.89-3.29,5.45-6.14a6.43,6.43,0,0,0-1.39-5.16c-1.66-2.25-5.26-2.74-9.81-3.35-2.93-.4-6.25-.84-8.19-1.74-4.57-2.12-7.54-6.05-7.24-7.56s.35-3.88-2-5.17c.25-1,.45-2.07.64-3.07a31.64,31.64,0,0,1,.76-3.38,3.4,3.4,0,0,0,2.63-1.39,3.21,3.21,0,0,0,.6-1.56c1.57.07,3.81.4,5.82.69a47.54,47.54,0,0,0,6,.65,6.78,6.78,0,0,0,1.52-.14,15.54,15.54,0,0,0,8.88-7.32,7.73,7.73,0,0,0,.1-6.9c-1.41-2.92-3.76-5.11-6-7.23a31.21,31.21,0,0,1-5.17-5.7c1.72-.87,6-1.65,8-2,4.51-.81,6.77-1.22,7.58-3.44a3.31,3.31,0,0,0-.58-3.27,4.57,4.57,0,0,0-1.46-1.16c.22-.13.44-.26.65-.41a6.74,6.74,0,0,0,3.06-5,9.51,9.51,0,0,0-1.61-5.81c2-2.17,4.56-5.53,4.61-8.63a5.26,5.26,0,0,0-1.62-4,7.62,7.62,0,0,0-5.46-2.1,17.91,17.91,0,0,0-2.29.19l-.26,0a3.49,3.49,0,0,0-3-1.77,3.21,3.21,0,0,0-.63.06,5.72,5.72,0,0,1-.88-1.4,3.11,3.11,0,0,0-3.07-2.81c-2.22,0-2.91,1.83-3.58,3.6-.25.67-.78,2.09-1.3,3.12a5.86,5.86,0,0,1-.45-2l0-3.1-3.1.13a12.26,12.26,0,0,0-2.25.31,17.92,17.92,0,0,1,1.86-5.07,6,6,0,0,0,.88-5.26,6.37,6.37,0,0,0-1.49-2.46c2.56-.83,5.13-2.22,5.13-5.2,0-3.92-7.31-9.37-10.07-10.2a10.17,10.17,0,0,0-2.88-.32c-.84,0-1.75,0-2.63.09s-1.71.08-2.46.08c.06-.16.11-.32.16-.45.61-1.69,1.25-3.44.33-5.12a3.55,3.55,0,0,0-2.36-1.78,3.62,3.62,0,0,0-.82-.09c-1.44,0-3.84.84-9.38,2.89-2,.74-4.76,1.76-6.42,2.27-1.63-2-4.4-3.81-10.56-4.28a13.47,13.47,0,0,1-3.91-.77,4.59,4.59,0,0,0,1.09-2.08,5.47,5.47,0,0,0-1-4.26l-1.56-2.08-2.28,1.25a12.26,12.26,0,0,1-5,1.19c-3.33,0-5.9-1.69-7.87-5.17-.57-1-2.17-3.39-4.65-3.39a3.81,3.81,0,0,0-2.81,1.26c-1.18,1.27-2.37,3.56-1.68,14.4-.73.56-1.68,1.31-2.61,2.12-1.36,1.19-3.57,3.13-4.09,5.29-1.13,1.51-2.29,4.36-.57,8.95a5.51,5.51,0,0,0,.6,4.15,4.48,4.48,0,0,0,2,1.7,4.39,4.39,0,0,0,.36,2.34,3.83,3.83,0,0,0-.28.29,2.67,2.67,0,0,0-.25-.43,3.45,3.45,0,0,0-2.88-1.43c-1.4,0-3.73.88-6.92,2.63a6.61,6.61,0,0,0-2.74-.74A3.47,3.47,0,0,0,711.1,95a3.7,3.7,0,0,0-.68,3.18,7.67,7.67,0,0,0,1.82,3.28c-.31,0-.65,0-1,0a8.48,8.48,0,0,1-4.32-.89,4.35,4.35,0,0,0-2.76-1.08h0c-2,0-3.25,1.31-3.71,3.89-1.36,0-3.17-.1-5.18-.1-9.54,0-14.1,1.23-15.76,4.25a5.09,5.09,0,0,0-.44,4.33,58.15,58.15,0,0,1-7.33,3.93l-1.12.54-.41,1.17c-.46,1.31-.95,2.67-1.41,4a56.23,56.23,0,0,0-4.37-4.24,3.56,3.56,0,0,0,.72-2.21c0-2.15-1.87-8.47-4.58-12.46a5.6,5.6,0,0,0,1.83-2.24c.91-2,.68-4.48-.72-7.56-.56-1.25-2.28-5-6-5-2.23,0-4,1.44-5.37,2.6a15.19,15.19,0,0,1-1.52,1.15A51,51,0,0,1,644.83,87c-3.76-4.65-8.91-11-16.43-15.22-8.8-4.92-18.72-20.68-19.84-23.73v-4l-3.76,1.39c-.2,0-.83-.27-1.72-1.45-1.25-1.66-2.65-2.51-4.18-2.51h0a4,4,0,0,0-3.35,1.86c-1.21,1.84-1.29,4.81-.2,7.4a24.89,24.89,0,0,1,.66,5c.33,4.42.67,9,3,11.66,1.4,1.58,2.05,6.82,2.06,9.86v1.2a5.55,5.55,0,0,0-1-.09c-1.52,0-4.26.64-5.59,5a8.92,8.92,0,0,0,1.14,8.26c2.26,3,6.34,4.34,9.6,4.59-1.47,6.11-3,13.61-2.5,16.11.22,2-3,9-4.68,10.16a14.41,14.41,0,0,1-2.49.13h-1.72c-3.54,0-6.86.19-8.72,2.46a5,5,0,0,0-1,4.32,8.19,8.19,0,0,1,.21,1.73,4,4,0,0,0-1.33-.22c-3.07,0-5.08,3.28-6.22,6-.82,2-2.4,6.58-.83,9.41a29.3,29.3,0,0,1-4.44,6.33L569.52,155l2.37,2s2.06,1.84,1.87,3.71a3.53,3.53,0,0,1-1.68,2.67L567,165.69l4.9,2.91.75.47a18.82,18.82,0,0,0,.21,6.38c.26,1.28-.35,3.63-.89,5.7a42.71,42.71,0,0,0-1,4.22,5.51,5.51,0,0,0-2.28-1.22,6.11,6.11,0,0,0-1.58-.19c-3.93,0-10.31,3.26-14.17,8.73a18.66,18.66,0,0,0-3.4,13.12,5.39,5.39,0,0,0-3.4,3.22,9.94,9.94,0,0,0-.95-4.86,4.85,4.85,0,0,0-3.32-2.41,7.61,7.61,0,0,0-1.24-.11,5.65,5.65,0,0,0-2.4.51c0-.12,0-.24,0-.36a3.48,3.48,0,0,0-1.7-2.59,5.21,5.21,0,0,0-2.68-.88,4.12,4.12,0,0,0-.81.08,4.76,4.76,0,0,0-1.27-2.74,21.62,21.62,0,0,1,.29-3.48c.33-2.58.71-5.5.06-8.1a11,11,0,0,0-3-5.19c2.47-2,4.44-3.84,5.14-5.84a9.07,9.07,0,0,0,1.77.18,10,10,0,0,0,1.44-.11c3.45-.54,5.91-2.63,6.6-5.6a8.67,8.67,0,0,0-3.75-8.86,9.5,9.5,0,0,1-1.39-1.17l.45,0a4.6,4.6,0,0,0,1.62-.3c2.11-.79,11.43-7.53,9.32-13.14-1-2.71-3.94-3.49-6.29-4.11a12.76,12.76,0,0,1-2.79-.95c.42-3.67,5.06-11,7.52-13.16.31-.28.7-.35,1.59-.47a5.71,5.71,0,0,0,4.2-2,7,7,0,0,0,1.08-4.71,15.59,15.59,0,0,0,4.79-9.15c.44-2.52.65-4.27-.49-5.63a3.17,3.17,0,0,0-.57-.53c-.11-3.31-2.24-6.9-3.81-9.55-.23-.4-.52-.88-.75-1.3l0-.75c-.11-2.23-2-5.54-6.84-5.54a12.82,12.82,0,0,0-1.35.08,5.52,5.52,0,0,0-.46-2.45A4.4,4.4,0,0,0,543,81.37a7.19,7.19,0,0,0-1.52-.15c-3.28,0-8,1.73-10.22,4.93a7.19,7.19,0,0,0-.87,6.75c.12.32.22.63.32.93a7.38,7.38,0,0,0-2.64-.51,6.37,6.37,0,0,0-4.73,2.12,5.5,5.5,0,0,0-1.59,4.37c.32,3.51,3.87,6.11,7,8.4a21.08,21.08,0,0,1,2.51,2,3.16,3.16,0,0,1,.34,1.83,7.22,7.22,0,0,0-3-.9,3.25,3.25,0,0,0-2.92,1.76,1.69,1.69,0,0,0-.12.28,4.65,4.65,0,0,0-2.83,2.44,6.32,6.32,0,0,0-.54,2.71c0,.65,0,1.16-1.2,2.72a8,8,0,0,0-1.74,3.87c-3,.71-6.57,2.38-7.14,6.35a8.09,8.09,0,0,0,.13,3.26c-.7.12-1.51.24-2.38.33-.49-4.31-2.08-6.49-4.73-6.49h-.25c-1.07.07-3,.65-4,3.75a16.48,16.48,0,0,0-.36,6.72c-.54.66-1.2,1.48-1.83,2.35a13.68,13.68,0,0,0-2.56,4.89H496a5.25,5.25,0,0,0-1.65.26,4.18,4.18,0,0,0-3-1.23,4.32,4.32,0,0,0-1.68.35,7.15,7.15,0,0,0-2.55,1.86,6.81,6.81,0,0,0-5.38,3.42c-1.08,1.66-2.7,4.17-2.27,6.62-.3.45-.62.93-.92,1.42h-.29c-1-3.35-2.11-8.91.18-11.49,1.57-1.77,4-2.95,6.58-4.2,4.22-2.05,9-4.37,10.33-9.91a18.42,18.42,0,0,0-2.48-14.09v-1a5.36,5.36,0,0,0,3.59-3.24c1-2.49-.36-5-1.43-7a11.82,11.82,0,0,1-1.06-2.37V91.73L489.81,101c-1.47-3.52-3-6.74-6.46-7.95-.39-.13-.41-.16-.7-.87a4.56,4.56,0,0,0-2.84-3,4.26,4.26,0,0,0-1.18-.17,4.41,4.41,0,0,0-1.56.29c-1.7-2.91-6.63-5.93-9.66-5.93a5,5,0,0,0-2.8.8A5.79,5.79,0,0,0,462,87.66c-2.15-.16-5.14-.31-8.59-.31a83.53,83.53,0,0,0-20.52,2.24,4.41,4.41,0,0,0-3.16-1.4,3.93,3.93,0,0,0-1.94.51,5.45,5.45,0,0,0-2.2,2.44,1.9,1.9,0,0,1-1.77,1.27c-2.65.49-5.78,2.28-8.05,3.78-3.13-6.82-6.15-13.93-6.48-15.7l.26-2.22-2.36-.74a11.89,11.89,0,0,0-1.63-.39c-1.14-2-2.74-4-4.81-4.28a4.21,4.21,0,0,0-.62,0c-2.45,0-9.44,2.49-11.85,7.32a7.78,7.78,0,0,0-.06,6.93,5,5,0,0,0-.64,3,4.43,4.43,0,0,0,2.46,3.39l.15.09c0,.06,0,.12.08.17a4.27,4.27,0,0,0,4,2.81l.49,0a9.63,9.63,0,0,0,2.16-.28l.39-.08a4.28,4.28,0,0,0,2.87,1.26,3.94,3.94,0,0,0,2.26-.77,3.56,3.56,0,0,1,.63.11c0,.27,0,.63,0,.92a9.49,9.49,0,0,0,1.62,6.09,19.93,19.93,0,0,0,3.21,3.38l.43.38,0,.36c.19,2.38.69,8.69,7.21,11.3,1,.65,4.23,5.13,9.1,17.6,3.38,8.65,5.64,16.3,6,18.58a18.67,18.67,0,0,1-1.8.64c-2.54.8-7.27,2.29-6.89,7.76.24,3.42,1.84,5.45,3.85,6.47a12.09,12.09,0,0,0-1.3,6.61,6.65,6.65,0,0,0,2.72,4.5c2.62,1.92,3.08,3.41,3.06,3.77-.2.25-.43.47-.66.71a7.67,7.67,0,0,0-1.93,2.77,42.2,42.2,0,0,0-9.36-1.49c-5.57,0-8,2.7-9,5a30,30,0,0,1-2,3.74,20.47,20.47,0,0,0-4.35-.61,5.31,5.31,0,0,0-3.49,1.06c-2.6,2.13-11,9.63-9.67,17.05.53,3.07,2.53,5.55,5.94,7.4a13.6,13.6,0,0,0-4.58,7.07c-.21,0-.49,0-.85,0-3.93,0-8.86-1.87-9.91-2.89a16.58,16.58,0,0,1,0-4c.24-3.16.52-6.75-2.1-8.78a5,5,0,0,0-3.08-1.09,4.51,4.51,0,0,0-.65.05c1.26-2.16,2.69-5.64.11-10.62-.06-.11-.1-.21-.14-.29a11.14,11.14,0,0,1,3.79-.48,32.58,32.58,0,0,1,4.2.3l6.41,1-3.42-5.51s-1.69-3-.5-4.46a12.12,12.12,0,0,0,2.05-9.21,14.91,14.91,0,0,0-.31-1.49c4.48-.16,7.56-.52,9.24-2.39a4,4,0,0,0,1-3c-.2-2.56-2.2-4.22-4-5.68-2.52-2.08-2.82-2.67-2.48-3.51.49-1.21,5.43-3,8.09-4,5.87-2.17,11.94-4.42,12.78-9.37.41-2.36-.41-4.84-2.42-7.38-3.6-4.55-11.18-9.14-16.95-10.53-1-8.9-1.6-18.76-1-20.79a4.07,4.07,0,0,0,.26-3.22c-.89-2.66-4.22-4.1-8.43-5.92-1.9-.81-5.08-2.19-5.7-2.94-.29-.37-.56-.75-.83-1.12-1.8-2.48-4.26-5.88-10.78-5.88h0a6.4,6.4,0,0,0-.68-1.74c-1.2-2.06-3.44-3.26-6.65-3.58-.84-.08-1.8-.12-2.86-.12a113.38,113.38,0,0,0-19.91,2.45,3.59,3.59,0,0,0-1.47-1.14c2.12-5.59,1-7.3.6-8a4.23,4.23,0,0,0-3.86-1.77c-4.41,0-15,4-18.28,12.89a4.59,4.59,0,0,0-1.66-.33,3.84,3.84,0,0,0-3.6,2.39,8.8,8.8,0,0,0,0,6.6l-.16.16c-2.14,2.09-5.38,5.25-7.05,8.6-1.32,2.63-2.39,6.76-3.42,10.76a62.36,62.36,0,0,1-2,6.71l-1,.54-.05,1.73a3.56,3.56,0,0,0,1,2.53,3.18,3.18,0,0,0,2.31,1c1.9,0,3.23-1.45,5-4.14s4.36-7.31,7.55-13.53c7.48-14.58,29.28-15.71,35.78-15.71,7.89,0,13.9,1.27,16.9,2.47,11.5,4.57,19,15.83,20.13,30.12a166.17,166.17,0,0,1,0,26.26,3.79,3.79,0,0,0-.78.72,4.89,4.89,0,0,0-1,2.63c-.46-.39-.92-.77-1.37-1.12a3.25,3.25,0,0,0,.25-2.58c-.65-2-2.73-2.39-3.41-2.52-1.14-.22-1.95-.42-2.51-.58,1-1.88,1.89-4.11,1.1-6.12a4.11,4.11,0,0,0-2.69-2.46,6,6,0,0,0-1.81-.27,7.52,7.52,0,0,0-1.59.18,7,7,0,0,0-.85-1.23,10.22,10.22,0,0,0-6-3.25,7.39,7.39,0,0,0-.45-4.7c-.67-1.36-2.15-3.07-5.44-3.48a15,15,0,0,0-1.8-.11c-4.58,0-9.41,2-12.13,3.38l-4.15-4.53-1.43-1.56-1.94.82c-2.4,1-10.26,4.6-12.09,9.1-2.14-1.12-5-2.83-7.49-4.43a5.32,5.32,0,0,0-3.28-1.25,4.32,4.32,0,0,0-3.11,1.33c-1.05,1.08-1.65,2.71-1.86,5.1a5.29,5.29,0,0,0-3.7,3,32.21,32.21,0,0,1-2.84,3.12c-3.62,3.71-5.83,6.14-5.95,8.64a12.68,12.68,0,0,0,.2,2.79c.16,1,.16,1-.29,1.56s-2.69,1.48-4,2c-2.73,1.1-5.09,2.06-6,4.11a6.77,6.77,0,0,0-.18,4.59,16.69,16.69,0,0,1-1.89.14c-1.11-2.19-3-3.29-5.93-3.45a2.37,2.37,0,0,1-1.34-.39,5.78,5.78,0,0,0-2.36-.82,17.15,17.15,0,0,0,6.53-6.51,13.83,13.83,0,0,0,.39-12.26c-1.78-4.27-5.88-6.81-11-6.81-4.76,0-9,2.25-10.33,5.48-1.45,3.55.43,6.44,1.67,8.35.94,1.45,1.31,2.14,1.12,2.58-.29.72-1.85,1.91-3.11,2.86-3.32,2.51-7.86,5.95-7.86,12.33,0,4.41.34,6.82.82,8.23,0,.38-.07.71-.09.94,0,.94-.08,2.17-.11,3.58-.05,2.32-.15,7.09-.53,8.28-.92,1.57-6.42,11.42-4.93,17.71a7,7,0,0,0,1.42,2.91c-.5,3.76-1.42,7.49-2.12,8.47-.69.39-1.67,1.07-3.35,2.22l-2.09,1.44v-.33a6.68,6.68,0,0,0-1.92-4.75,14.55,14.55,0,0,0,.48-3.54c0-.73,0-1.52,0-2.36-.05-3.45-.1-7.75,1.67-11a25.41,25.41,0,0,1,3.31-4.35c2.26-2.57,4.82-5.47,5.1-9.68.25-3.86-.31-16.12-6-21.59-3.16-3-7.61-11.45-9-15.54,2.84-.79,6.82-2.51,8.36-6.12a7.54,7.54,0,0,0,2.31.41,5.1,5.1,0,0,0,3.1-1,17.55,17.55,0,0,1,2-1.21c2.22-1.19,5.25-2.82,5.37-6.18a4.68,4.68,0,0,1,.68-2.44c2.65-1.25,7.4-5.44,5.59-10.75a6.73,6.73,0,0,0-4-4.24,4.33,4.33,0,0,0-1.3-3.43c-1.26-1.27-3.68-2-5.8-2.48a13.22,13.22,0,0,1,.39-4.22c1.87-1.34,4.26-3.17,4-5.88a4.11,4.11,0,0,0-2.17-3c1.57-2.35,5-6.41,6.4-7,2.76-.61,3.76-2.66,4.43-4a5.08,5.08,0,0,1,2-2.52,3.4,3.4,0,0,1,1.54-.67c3.05-.32,3.13-3,3.15-3.91,0-.25,0-.56,0-1,0-.61.07-1.23.12-1.84.19-2.53.4-5.33-.5-7.78a31.42,31.42,0,0,0,2.26-5c2.12-.57,5.21-1.83,6.89-4.5.48-.75,3.23-2.2,4.71-3,3.6-1.89,6.71-3.53,6.59-6.61s-2.74-7.88-9.15-9.22c0-3-.53-7.35-3.67-10.49-.7-.7-.64-1.58-.1-3.85.47-2,1.57-6.67-3.3-8.24a5.47,5.47,0,0,0-1.61-.25ZM226.77,141.66a56,56,0,0,0-2.49-10.14c-3.53-9.81-7.86-26.44-6.61-30.18.84-2.52,2.73-8.91,4.91-16.3,2.67-9,5.69-19.24,7.3-24.07s19.6-15.6,30-15.6c3.64,0,4,1.37,4.2,1.88,2.9,9.84,1.07,15-.31,16.42-.25.25-.75.64-1.25,1-2.32,1.8-7.77,6-4.22,11.71.44.71-.18,2-1.12,3.69a13.82,13.82,0,0,0-1.4,3.29c-5.69,1-6.56,2.61-6.91,3.29a3.54,3.54,0,0,0,.08,3.44s.05.09.07.13a5.22,5.22,0,0,0-3.26,2.12c-2.91,1.12-4.66,5.08-6.44,19.8-1,1.85-3.34,7,0,10.59.83.87.17,4-.15,5.54-.15.71-.28,1.34-.35,1.91-.87,2.08-7.63,8-12,11.45Zm488.82,15.59,1.46-.92.63-.39c3.77-2.36,5.73-9.24,6.6-13.53,3.46.41,7.07,1.55,7.18,3.15C732,152.75,741,159,745.16,159a4.37,4.37,0,0,0,1.52-.26,4.24,4.24,0,0,0,2.34-2.1c2.24,2.12,3,5.37,3.91,10.55a70.16,70.16,0,0,0,2.43,10.06c4.17,12.25,28.89,35,29.94,36l.24.22.28.17c6.21,3.6,13.52,8.09,15,9.36a14.47,14.47,0,0,1-.16,4.91c-6-.5-15.74-.67-20.95-.73a10,10,0,0,0-.81-4.47,4.79,4.79,0,0,0-4.67-2.71,23.6,23.6,0,0,0-6.79,1.59,28.47,28.47,0,0,1-3.86,1.12c-1.37-.13-5.43-3.53-8.55-7.17l-5.28-6.14v8.1a21.19,21.19,0,0,1-1.32,5.95c-.2.56-.41,1.2-.63,1.86s-.63,1.9-1,3c-3.08-3.58-9-6.25-12.38-7.58q-.5-4-5-10.39l-2-2.86-2.52,2.42c-2,1.92-6,4.92-8.94,5.52a34.39,34.39,0,0,1,.34-6.21c.36-3.27.65-5.87-.09-7.71.34-.33.74-.68,1-.94,1.77-1.58,5.47-4.88,2.65-8.09-.81-.94-1.22-3.88-1.5-5.82-.09-.66-.18-1.3-.28-1.88a4.81,4.81,0,0,0-2.39-3.56c-.4-.26-1.64-1.06-2.55-9a24,24,0,0,1-.16-6.28,5.33,5.33,0,0,0,.95.1,3.52,3.52,0,0,0,2.57-1,4.47,4.47,0,0,0,1.22-3.82,7,7,0,0,0-2.1-3.88Zm-374-5.24a7.46,7.46,0,0,0,5-2.07,25.53,25.53,0,0,1,5.06-3.89c.23.47.49,1.15.7,1.7,1.26,3.27,3.17,8.21,9.3,11,1.14.52,1.35,1.06,1.8,2.24a7.32,7.32,0,0,0,2.43,3.57,5.93,5.93,0,0,0,3.37,1.05c.73,0,1.3.09,2.59,3.12.81,1.92.29,2.54-2.11,4.17-1.31.9-4,2.76-2.8,5.74a3.59,3.59,0,0,0,3.38,2.23,8.85,8.85,0,0,0,4.63-2c.59,5.21.81,10.31.31,12.42h-.31c-3.79,0-11.67-3.37-14.38-4.67l-2.82-1.35-1.23,2.88c-1.19,2.76.41,7.71,4.92,20.13,2.06,5.66,4.37,12,4.79,14.9-2.4,1.67-13.45,3.38-28.32,3.38-1.46,0-2.69,0-3.69-.05a4.47,4.47,0,0,0-.13-2.3c-.8-2.47-3.39-3.56-5.27-4.17l-1.47-.48c-18.35-5.9-28.48-11.11-30.13-15.51a11.32,11.32,0,0,1-.4-1.23l.09-.08a14.9,14.9,0,0,0,2.29-2.47c2.88-3.91,3.75-11.5,2.75-16,.44-1.46,4.76-4.75,6.61-5.3a4.52,4.52,0,0,0,.74.06c3.37,0,6.7-3.56,8.9-6.54,2.38-3.24,1-6.58,0-8.8a7.11,7.11,0,0,1-.84-2.91,39.17,39.17,0,0,0-.39-8.05,6.74,6.74,0,0,0,3.42,1,5.43,5.43,0,0,0,2.69-.7,5.22,5.22,0,0,1,2.5-.73,3,3,0,0,1,1.16.21l2.1,1.51,1.62-2.06c.51-.47,3.06-1.17,7-1.24a7.58,7.58,0,0,0,4.11,1.28ZM627.9,167.58c.73-.14,1.61-.29,2.54-.44,3.27-.53,6.65-1.08,8.78-2.39,2-1.2,10.52-5.69,16.62-5.69.25,0,.5,0,.74,0,.52,0,1.06,0,1.61,0h.56a14.76,14.76,0,0,0,.12,7.4c1.45,6.54-.22,10-1.32,12.28-.71,1.46-1.51,3.11-.64,4.91A4.43,4.43,0,0,0,660,186c3.07,1.8,12.47,18.39,14.5,23.86a5.93,5.93,0,0,0-4.87,4.59c-.89,3.88,2.29,9,7.32,15.57l.45.58.05.07c-.1.48-1.22,1.79-3.24,2.85l-.1.05a10.68,10.68,0,0,1-1-.62,15.5,15.5,0,0,0-5.53-2.59,42.47,42.47,0,0,0-9.09-.76c-1,0-2,0-2.87,0-2.17-4.33-11-11.22-15.27-11.75a6,6,0,0,0-.61,0c-3.32,0-6.5,3.26-10.31,7.55a21.06,21.06,0,0,0-2.64-2.49c3.67-3.52,5.34-9.25,5-11.93a3.57,3.57,0,0,0-2.25-3.13,34.91,34.91,0,0,1-3-6.32l-.7-1.82-1.94-.11h-.58a10.1,10.1,0,0,0-2,.2,5.76,5.76,0,0,0,.92-1.92c.68-2.52-.39-5.17-1.34-6.87,1.92-3.66,2.51-7,1.72-9.85a8.51,8.51,0,0,0-1.54-3.09c2.62-5,5.57-9.56,6.81-10.46Zm85.23-2.36Zm-98.6,37.45a9.73,9.73,0,0,0,1.43-.1c-.83.72-1.55,1.46-2.17,2.11-.18-.68-.38-1.39-.6-2.09a11.76,11.76,0,0,0,1.34.08Zm-80.27,8.24a1.84,1.84,0,0,1-1.19-1.09c-.15-.33.37-1.1,1.53-2.32a18.07,18.07,0,0,0-.34,3.41Zm9.43,11.18c.61-2.07,1.22-4.34,1.68-6.59,0,1,.13,2.06.22,3.08s.2,2.4.21,3.36l-.71.05c-.44,0-.91,0-1.4.1ZM414.75,240.46s-2.56-.13-6.06-11.24c-.21-.65-.43-1.28-.66-1.87a26.18,26.18,0,0,1,4.59,5c2.63,3.79,3.14,6.76,3,7.72a1.84,1.84,0,0,1-.91.38Z"/></svg>