<svg xmlns="http://www.w3.org/2000/svg" width="1647.824" height="915.257" viewBox="0 0 1647.824 915.257">
  <path id="Tracé_128" data-name="Tracé 128" d="M742.427,808.492c7.06,2.4,11.505,6.028,11.078,13.272-.407,6.92-5.277,9.6-12.116,11.408,7.12,2.658,11.672,6.507,11,13.865-.642,7.1-5.979,9.492-12.974,11.11,7.052,2.822,11.279,6.989,10.35,14-.918,6.92-6.008,9.633-13.516,10.264,6.5,4.652,10.6,9.808,7.255,17.244-2.716,6.034-8.256,7.172-14.471,6.544,5.675,8.855,6.2,13.857,2.1,18.4-4.264,4.717-9.4,5.122-17.513,1.035.969,8.3-1.29,14.626-10.166,16.292-5.664,1.064-9.985-2.426-13.823-11.092-3.722,6.211-8.4,10.567-15.95,8.207-6.194-1.936-7.792-7.207-8.414-14.02-3.711,6.822-8.471,10.516-15.506,8.575-5.71-1.574-8.1-6.1-8.388-13.172-3.4,6.269-7.3,10.416-13.983,9.65s-9.4-5.6-10.811-13.1c-2.684,7.645-6.556,11.861-13.4,11.56-6.192-.272-9.269-4.574-11.411-11.273-1.517,7.5-4.686,12.277-11.735,12.865-6.32.525-9.833-3.324-12.847-10.063-.559,8.01-2.661,13.409-9.905,14.984-6.5,1.411-10.439-1.987-14.02-8-.181,7.568-2.486,12.8-9.386,14.542-7.23,1.827-11.156-2.765-15.084-9.131-.637,7.987-3.932,12.979-11.15,13.67-7.115.683-10.978-3.886-13.539-11.958-1.789,8.664-5.928,13.088-13,12.971-6.521-.112-10.074-4.591-11.824-12.285-1.824,7.743-5.343,12.176-12.1,12.486-6.7.307-10.289-3.977-12.394-9.965-7.594,11.786-13.169,13.068-22.532,5.409-7.915,5.982-12.716,6.484-22.388,2.346-6.992,7.588-16.105,7.958-21.841-1.6-7.129,11.175-16.854,11.032-23.016-.338-9.294,9.6-17.74,8.431-22.928-3.516-3.739,3.361-7.47,6.662-13.065,5.142-5.466-1.488-8.294-5.308-9.435-10.768-8.07,7.29-19.113,5.466-21.766-5.583-4.824.221-9.578,1.374-13.854.4-5.291-1.2-7.146-6.08-7.241-11.393-11.935,5.8-18.864,2.486-20.929-9.917-12.758,4.046-18.577.691-19.707-10.3-4.783-.49-9.659-.049-13.734-1.646-5.013-1.964-6.186-7.037-5.727-10.915-4.617-.565-9.9.155-13.361-2.019-3.352-2.1-4.835-7.181-7.453-11.465-10.645,2.045-16.868-2.6-16.335-12.4-4.669-.849-10-.445-13.338-2.825-3.209-2.291-4.356-7.468-6.309-11.178-3.616-.774-8.549-.86-12.437-2.917-4.468-2.366-5.334-7.364-4.026-12.859-5.667,1.4-11.422,1.847-14.78-3.129-2.2-3.255-2.486-7.8-3.762-12.242a12.025,12.025,0,0,1-12.237-3.3c-3.963-4.109-4.064-8.913-1.9-13.986-12.222,1.2-19.492-7.539-13.6-19.377-5.328-.063-10.057-1.408-12.581-6.432-2.561-5.09-1.288-9.765,2.6-14.287-5.044-1.982-10.1-3.7-11.17-9.664-1.007-5.632.895-10.138,5.807-13.321-12-7.786-11.752-17.054.29-23.857-11.061-8.563-5.512-21.032,5.738-22.744-3.708-4.683-5.417-9.69-2.377-15.147a10.754,10.754,0,0,1,9.747-5.87c-.192-4.508-1.319-9.214-.338-13.435,1.222-5.265,6-7.258,11.414-7.189-5.67-11.686-2.673-18.138,9.572-21-4.947-12.056-.941-19.395,11.219-19.762-2.681-4.445-4.517-8.87-1.919-13.92,2.529-4.918,6.8-6.57,11.981-6.8-5.761-11.961.835-19.936,11.219-19.991-5.609-12.36,1.913-19.764,10.378-19.653.634-4.7-.077-10.1,2.22-13.435s7.608-4.64,11.824-6.954c-3.923-10.628,3.633-18.3,15.041-16.753-1.787-5.116-1.712-9.974,2.188-13.989,3.74-3.851,8.322-4.631,13.874-2.406-1.2-5.876-.37-10.622,4.015-14.075,4.534-3.573,9.329-2.988,14.545-.163.462-5.71,1.835-10.72,7.413-13.146,5.83-2.535,10.384-.115,14.723,4.058,2.569-5.945,6.277-10.175,13.364-9.306,5.73.7,8.821,4.293,10.332,9.573,10.071-8.973,18.19-7.115,22.939,5.621,3.966-3.705,9.013-5.687,13.536-3.109,3.788,2.162,6.306,6.553,9.616,10.212,10.476-6.232,19.128,1.279,19.148,11.657,10.94-6.051,19.469-1.032,19.833,11.675,11.328-4.594,17.892-.324,19.111,12.437,12.509-2.34,19.068,2.779,17.794,12.933,4.4.662,9.538.115,12.859,2.314s4.835,7.149,7.462,11.416c10.57-1.89,14.881.984,17.077,12.951,4.769-2.159,9.948-3.37,13.977.525,2.739,2.65,4.167,6.653,5.922,9.61,3.751.2,8.609-.49,12.753.924,5.079,1.729,6.343,6.791,5.867,12.062,12.027-5.386,19.068-1.715,20.5,9.314,4.826.353,9.644-.163,13.82,1.242,4.944,1.663,5.994,6.725,6.054,11.657,13.5-3.315,18.755.892,18.683,14.749,12.6-1.336,17.777,4.849,14.869,17.786,14.777.413,17.846,12.254,10.588,21.445,5.936,1.586,10.748,4.4,11.064,11.221.261,5.626-2.446,9.575-8.027,12.13,4.858,3.16,8.308,6.989,7.2,13.005-1.058,5.753-4.571,9.154-11.009,10.029,3.37,4.545,5.761,8.959,3.292,14.425-2.369,5.237-6.768,6.98-12.093,7.35,5.81,11.523-.4,20.094-11.611,19.911,6.384,11.345-.969,20.252-10.857,19.8,4.064,12.83.519,18.861-11.554,19.653,4.37,12.862,1.018,18.657-11.56,19.991,6.065,12.331-1.99,20.215-11.345,19.6,4,12.506.456,18.3-12.044,19.681,3.679,12.641-.4,18.677-11.365,18.761-.843,4.9-.335,10.482-2.813,13.894-2.372,3.263-7.846,4.273-12.383,6.478a11.614,11.614,0,0,1-3.719,12.856c-4.491,3.88-9.5,3.579-14.889.327-.757,5.5-2.231,10.247-7.528,12.346-5.05,2-9.486.539-13.751-3.089-1.377,5.357-3.152,10.307-8.962,11.8-5.667,1.46-10.16-.728-13.788-5.317-1.764,5.446-4.577,9.584-10.677,9.937-6.579.381-10.791-2.905-12.9-9.558-4.391,4.531-9.048,6.7-14.732,4.247-5.434-2.343-7.562-6.817-7.27-12.609-11.947,4.012-17.456,1.388-20.091-9.34-10.648,6.722-17.089,4.6-21.161-6.18-4.5.5-9.142,2.277-12.81,1.072-3.711-1.219-6.455-5.385-9.251-7.921-3.659.64-8.543,2.9-12.463,1.778-3.805-1.084-6.627-5.629-10.137-8.893-10.2,7.155-18.408,3.909-20.716-9.578-12.337,4.528-17.525,1.225-19.891-12.664-11.669,3.232-19.518-3.4-17.178-15.6-5.136,1.491-10.026,1.422-13.946-2.526-3.989-4.021-3.863-8.91-2.1-13.986-13.037,1.27-18.941-6.08-14.7-17.872-12.589-3.152-14.657-6.209-12.641-18.683-13.232-1.093-17.47-6.98-13.192-18.786-6.447-.465-12.022-2.478-13.768-9.464-1.394-5.586,1.3-9.7,6.019-13.309-5.733-2.3-9.409-6.068-8.919-12.334.565-7.212,5.595-10.246,12.065-11.537-6.286-12.348-1.735-19.317,12.8-20.114-2.845-14.152,8.268-19.879,16.174-16.019,1.543-4.052,2.334-8.761,4.884-12.142,3-3.983,7.967-4.6,12.093-2.667.987-3.8,1.133-7.84,3.04-10.711,1.815-2.727,5.472-4.23,7.772-5.879-.175-3.831-1.491-8.337-.221-11.927,1.21-3.424,5.119-5.9,7.511-8.434-1.044-3.481-3.438-7.806-3.329-12.065.135-5.191,4.253-8.448,10.146-9.765-4.669-3.96-6.983-8.577-5.173-14.255,1.494-4.686,5.07-7.287,10.266-8.291-3.61-3.912-6.458-7.926-4.608-13.43,1.807-5.368,5.609-8.13,11.735-8.574-3.989-5.076-5.675-10.258-1.913-15.81,3.048-4.5,7.436-5.9,13.169-4.832-1.488-5.8-1.672-11.25,3.347-15.228,4.892-3.877,9.988-3.066,15.308.186,1.113-5.429,2.638-10.513,8.3-12.368,5.265-1.726,9.885-.166,14.026,4.439,1.721-6.338,5.142-10.576,11.445-10.785,5.5-.184,9.57,2.635,11.855,8.339,3.358-5.11,7.347-8.655,13.63-7.184,6.186,1.451,9.125,5.761,9.578,12,10.057-6.217,20.392-2.208,20.754,11.893,12.475-1.89,17.209,1.887,17.525,12.948,4.6,1.041,9.753.895,12.988,3.312,3.06,2.288,4.109,7.264,6.062,11.1,3.272.594,8.414.224,11.746,2.5,3.18,2.171,4.474,7.1,6.788,11.147,10.407-2.67,15.7.439,17.668,11.494,12.305-4.3,18.1-.984,19.891,11.388,10.519-6.928,19.764-1.3,20.765,9.919,10.573-5.936,20.2.327,19.65,12.191,5.219-2.707,10.327-3.132,14.964.794,4.588,3.889,4.778,8.9,3.069,14.23,14.422,1.336,18.7,8.99,11.525,20.954,5.735.708,10.309,3.114,11.732,9.036,1.434,5.976-1.21,10.421-6.475,13.828,5.692,1.944,9.334,5.54,9.306,11.322-.032,6.415-3.725,10.542-10.109,12.13,9.329,11.044,2.848,21.835-7.634,22.3-.49,4.548-.175,9.191-1.635,13.186-1.787,4.884-6.653,6.074-11.723,5.661,3.7,12.374.272,18.081-10.384,19.6-.353,4.683.6,9.81-1.374,13.275-1.993,3.5-6.885,5.343-10.935,8.216,3.189,11.035.321,15.936-12.016,18.348,3.622,12.529-.51,18.936-12.687,19.214,2.432,4.537,3.106,9.1.447,13.7-2.8,4.849-7.456,5.681-12.529,5.469,3.1,13.149-2.891,20.18-15.219,17.708.341,5.624.264,11.179-5.259,14.568-5.366,3.289-10.275,1.881-15.208-1.964-1.569,5.457-3.834,10.206-10.006,11.207-6.054.984-10.312-1.781-13.349-6.848-9.257,11.184-18.609,10.011-23.8-2.868-3.837,4.124-8.3,6.4-13.914,4.2-5.495-2.157-7.9-6.435-7.585-12.346-10.352,6.688-20.608,2.128-20.995-11.25-12.822,2.171-17.972-2.283-17.241-15.5-5.5,1.6-11.087,1.339-14.256-3.579-2.119-3.292-2.291-7.838-3.22-11.379-3.539-1.265-8.491-1.976-12.05-4.586-4.3-3.149-4.049-8.451-2.587-12.128-4.568-2.133-9.561-3.318-12.911-6.329-3.926-3.53-3.418-8.793-.258-13.917-5.713.622-10.467-.344-13.576-4.866-3.226-4.692-2.483-9.478.594-14.342-5.406-.628-10.447-1.706-12.816-7.192-2.243-5.2-.794-9.79,2.985-14.224-5.922-1.173-10.278-3.854-11.273-9.968-.958-5.873,1.792-9.988,6.633-12.977-10.5-8.629-9.862-17.4,1.617-23.269-10.1-8.164-9.18-17.244,2.311-22.784-9.323-9.722-7.235-19.521,4.881-22.586l-4.723-5.509L190.2,653.039c5.291,12.472-.023,20.163-12.7,18.927-2.125,4.563-3.324,9.363-6.2,12.733-3.332,3.9-8.448,3.215-12.231,1.615-1.44,4.107-1.85,9.059-4.52,11.838-2.693,2.8-7.631,3.444-11.663,5.064-.465,2.638-.184,7.115-2.1,10.232-1.861,3.023-5.991,4.643-9.527,7.167,4.058,6.2,3.249,12.6-3.53,17.918,8.77,5.638,9.885,8.666,7.006,18.643,12.283,2.053,15.936,7.465,12.856,17.178,4.31,2.062,9.091,3.266,12.337,6.177,4.026,3.61,2.9,8.861,1.242,12.684,3.9,2.24,8.646,3.57,10.955,6.7,2.2,2.985,1.858,7.843,2.509,11.219,3.45,1.276,8.577,1.787,11.4,4.606,2.75,2.75,3.146,7.855,4.646,12.136,10.671-1.345,16.518,3.691,15.552,13.6,4.256.513,9.177-.141,12.489,1.864s5.013,6.665,7.4,10.123c3.023,0,7.76-1.181,11.353.341,3.4,1.437,5.589,5.715,8.345,8.781,8.56-7.3,17.86-4.869,20.834,6.92,4.207-3.808,8.695-6.315,14.4-3.771,4.56,2.031,7.017,5.466,7.218,9.369,4.342-.617,8.827-2.188,13.008-1.606,5.016.7,7.5,5.139,8.56,10.7,4.626-3.243,9.2-5.305,14.488-2.555,5.07,2.641,6.814,7.035,6.653,12.489,11.024-4.061,15.618-2.354,19.515,6.458,3.55-1.442,7.066-4.009,10.559-3.975,3.582.034,7.138,2.613,10.765,4.1,4.528-9.653,10.714-11.362,19.7-5.486,2.724-3.453,4.746-8.058,8.213-9.813,3.3-1.669,8.107-.361,12.432-.361,2.392-9.572,3.734-10.679,15.741-12.463-1.655-11.411,2.911-16.957,13.937-16.931-3.2-12.179,1.179-18.657,12.667-18.726-3.995-11.861-.424-17.843,11.594-19.429-3.622-12.205-.467-17.628,10.318-19.374.347-4.669-.6-9.77,1.354-13.237,1.979-3.507,6.831-5.394,10.854-8.3-3.272-10.748-.327-15.87,11.915-18.422-4.276-11.677,0-18.669,10.894-19.133,0-4.474-1.356-9.547.381-13.114s6.564-5.649,10.456-8.709c-3.461-9.682-1.187-14.806,9.372-18.356-6.065-9.185-4.987-15.1,3.8-20.854-8.54-6.9-9.142-10.975-3.054-20.665-10.083-2.75-13.005-8.2-9.991-17.467-3.975-1.838-8.836-2.747-11.419-5.669-2.483-2.8-2.607-7.7-3.811-11.824-9.257,1.431-14.006-2.245-15.744-13.126-12.337,2.9-17.462-.5-18.784-12.452-11.723,5.059-19.268.771-19.575-10.08-4.56,0-9.742,1.394-13.358-.387-3.734-1.841-5.945-6.768-9.157-10.763-10.318,3.49-16.753-.594-17.725-12.566-11.307,5.713-20.091-1.546-19.328-10.694-4.631-.889-9.575-.846-13.481-2.839-4.72-2.409-5.566-7.574-4.284-12.842-12.073,3.659-18.537-.906-18.548-11.835-4.511-.682-9.584-.175-12.965-2.329-3.243-2.062-4.729-6.883-6.971-10.467-3.286-.393-7.961-.129-11.953-1.649-4.651-1.772-5.85-6.484-5.595-10.229-4.471,0-9.082.826-13.226-.212-5.064-1.268-6.533-6.111-6.774-11.144-10.748,6.206-16.971,3.9-21.281-7.6-10.335,6.587-17.373,4.611-21.425-6.022-7.141,7.548-12.736,7.757-19.8,1.319-2.948,2.773-5.411,6.493-8.83,7.906-3.252,1.348-7.5.292-10.917.292-1.44,2.744-2.526,7.419-5.469,9.71-2.977,2.317-7.792,2.277-12.087,3.341-.017,11.124-2.162,13.4-15.305,15.1,1.637,11.72-1.718,16.085-12.142,17.413-1.259,5.1-1.422,10.307-3.837,14.06-1.761,2.744-6.484,3.585-9.518,5.09-.324,3.576.1,8.239-1.328,12.242-1.746,4.887-6.656,6.128-11.669,6.074,4.124,12.05.668,18.3-9.63,19.65-.281,4.778.313,9.567-1.027,13.739-1.6,4.973-6.5,6.283-11.586,6.117,5.558,11.878,2.765,17.857-9.653,20.972,4.935,11.629,1.572,18.253-10.183,20.051,5.475,11.557,2.271,18.362-9.727,20.676,5.429,10.817,3.025,16.8-7.258,20.2.625,4.571,2.337,9.154,1.465,13.18-.717,3.321-4.494,5.979-6.616,8.566,1.23,2.965,4.058,6.759,4.012,10.516-.046,3.785-2.951,7.536-4.654,11.422,8.9,4.892,10.244,10.424,3.906,20.243,11.121,3.6,13.645,8.9,9.779,18.465,3.834,2.26,8.543,3.642,10.84,6.785,2.205,3.014,1.913,7.855,2.787,12.257,11.9,1.5,15.124,5.113,13.768,15.165,4.422,1.408,9.512,1.715,12.523,4.37,2.845,2.512,3.507,7.5,5,11.087,3.415.8,8.669.642,11.786,3.149,3.086,2.481,4.015,7.645,6.031,11.93,10.5-2.785,15.709.812,17.338,13.415,11.941-3.458,18.216,2.96,17.929,13.281,11.973-3.011,17.284.648,18.528,12.759,12.908-2.768,18.167.809,18.721,12.733,12.076-4.4,18.124-1.044,19.784,10.989,11.818-4.554,18.288-1.247,19.67,9.056,4.525-.232,9.134-1.374,13.283-.45,4.976,1.107,7.155,5.638,7.525,10.765,10.734-6.292,18.158-3.823,20.9,5.977,4.439-.895,8.824-2.693,13.06-2.389,4.815.344,7.622,4.356,8.546,7.967,4.092-1.351,8.3-4.081,12.148-3.636s7.339,4.058,10.895,6.226c2.9-1.262,6.839-4.353,10.711-4.276,3.906.078,7.749,3.3,9.98,4.368,3.731-2.945,7.863-6.275,12.073-9.5,4.244-3.255,8.813-3.771,13.616-1.256,1.311.685,2.587,1.434,4.763,2.65-.069-6.822,1.987-11.838,7.932-13.848,5.862-1.979,10.817-.043,14.915,5.305-.8-7.447.792-13.444,8.116-15.772,5.735-1.824,10.53.31,14.379,5.575-.688-6.533.3-12.24,6.63-15.242,6.277-2.98,11.319-.66,15.959,4.585-.869-7.146.909-12.761,7.757-15.382,6-2.3,10.7.146,14.826,5.179-.674-7.341.926-13.223,8.21-15.706,5.953-2.028,10.361.76,14.491,5.612-.9-6.584.255-12.174,6.5-15.248,6.547-3.223,11.543-.37,16,5.076-1.012-14.66,7.617-17.975,16.676-16.2-4.809-12.113-.634-17.82,14.278-18.884-4.442-4.52-7.774-9.323-4.772-15.681,2.839-6.014,8.176-7.4,15.641-6.5-5.741-4.789-8.592-9.647-6.252-15.744,2.449-6.378,8.081-7.835,15.239-7.473-5.5-4.629-8.858-9.312-6.171-15.839,2.489-6.042,7.551-7.662,14.574-7.057-5.518-4.872-9.412-9.8-6.1-16.854,2.673-5.684,7.855-6.736,14.333-6.822-5.228-4.138-9.343-8.331-7.531-14.975,1.838-6.751,7.281-8.6,14.3-9.128-6.008-3.6-9.079-8.176-7.568-14.542,1.606-6.782,7.046-8.781,14.737-8.933-6.682-4.4-10.568-8.9-8.589-15.824,1.792-6.263,6.911-8.21,13.659-8.755-5.69-4.184-10.046-8.543-7.68-15.715,1.953-5.928,6.733-7.918,13.478-8.4-5.844-3.711-10.017-7.838-8.77-14.485,1.225-6.53,6.237-9.065,13.5-9.983-6.871-2.432-10.55-6.3-10.5-12.529.052-7.035,5.107-10.006,12.182-12.211-7.5-2.07-11.841-5.882-11.675-12.945.146-6.214,4.287-9.429,11-11.526-7.462-1.987-12.575-5.018-12.865-12.472-.255-6.57,4.043-9.745,10.636-12.538-7.536-.617-12.294-3.186-13.576-9.727-1.339-6.834,2.028-11.224,9.426-14.247-7.78-1.612-13.131-4.21-13.777-11.755-.545-6.389,3.192-9.9,9.971-13.16-8.747-.637-13.989-3.977-14.683-11.591-.542-5.925,3.083-9.624,9.334-12.452-7.1-1.253-12.584-3.272-13.848-10.318-1.239-6.908,2.569-10.972,8.291-14.362-7.083.04-11.961-2.567-13.745-9.538-1.764-6.883,2.406-10.634,8.873-14.795-7.906.258-13.309-1.712-15.354-8.42-2.053-6.739,1.744-11.087,8.05-15.428-8.041.462-13.283-1.683-15.285-8.543-1.824-6.263,1.139-10.634,7.829-14.729-8.167.367-13.41-1.884-15.374-8.314-1.907-6.254.605-11.181,6.567-15-6.533-.181-12.007-1.586-14.537-7.946-2.188-5.495-.608-9.661,6.461-15.821-7.057.5-12.718-1.176-15.036-7.694-2.254-6.341.364-11.393,7.362-15.925-8.033.975-13.4-.479-16.079-6.814-2.739-6.475.307-11.247,6.206-16.122-7.964.683-13.559-.958-15.927-8.087-2.036-6.12,1.075-10.261,6.8-15.036-7.642,1.007-13.352,0-16.039-6.352-2.635-6.229-.8-11.448,4.927-15.7-7.037,1.012-12.85-.3-15.586-7.1-2.311-5.747-.605-10.814,5.836-15.632-7.594,1.494-13.24,1.549-16.945-4.408-3.6-5.784-1.89-10.843,2.845-16.383-7.978,2.128-13.805.76-17-6.206-2.463-5.374-.783-9.727,6.174-15.959-7.594.637-13.4-1.308-15.437-8.531-2.01-7.121,1.887-11.755,8.592-15.122-9.509-1.982-13.1-4.955-13.662-11.459-.651-7.559,4.391-10.995,11.7-13.427-7.557-2.452-11.6-6.822-10.88-13.983.628-6.234,5-9.174,14.62-10.536-4.806-6.14-6.607-12.429-.3-18.4,4.715-4.462,9.4-4.115,17.269.723,1.047-3.086,1.362-6.834,3.355-9.114a16.451,16.451,0,0,1,8.778-4.7c5.32-1.047,9.128,2.6,12.856,11.267,3.6-6.418,8.012-11.282,15.976-8.813,5.351,1.66,7.459,5.345,8.233,14.158,5.07-5.331,10.482-9.409,17.659-4.864,5.561,3.522,6.472,8.962,4.6,15.859,6.091-4.617,11.9-7.278,17.938-2.154,5.231,4.442,5.079,10.163,2,16.986,6.937-3.914,13.169-5.437,18.311.866,4.19,5.136,3.266,10.585-1.07,16.948,7.574-3.077,13.865-3.906,18.259,3.051,3.6,5.707,2.047,10.863-2.891,16.36,7.41-1.941,13.332-1.778,16.879,4.669,3.467,6.306,1.308,11.632-4.941,16.974,8.391-1.073,14.468.619,16.6,8.193,1.626,5.793-.442,10.6-6.186,14.281,6.478.017,11.933,1.486,14.522,7.677,2.7,6.455.06,11.3-6.257,15.793,7.5-.7,12.486,1.288,14.823,7.508,2.392,6.366-.479,10.989-5.761,15.182,7.453-1.27,13.223.393,16.025,7.516,2,5.087.551,8.953-5.555,14.975,7.9-1.2,14.367-.057,16.925,7.714,1.812,5.5-.143,10.172-6.177,14.516,7.685-1.27,13.559-.777,16.673,5.661,2.922,6.051,1.25,11.328-3.949,15.9,6.536-1.17,12.34-1.356,16.048,4.738,3.539,5.816,1.973,11.127-2.346,16.286,6.169-2.188,11.841-2.69,16.165,2.871,4.044,5.193,3.025,10.562-1.01,16.9,6.409-3.6,11.781-5.073,16.891-.671,4.9,4.224,4.93,9.555,2.179,16.636,5.311-5.592,10.3-8.093,16.3-5.2,4.849,2.334,6.894,6.613,6.8,12.219,1.781-5.268,4.5-9.4,10.321-10.7,6.08-1.351,9.667,2.194,13.94,7.456-1.778-7.462-1.21-12.939,4.867-16.418,5.443-3.117,10.261-1.669,15.6,2.836-2.417-7.052-3.493-13.045,2.69-17.51,4.445-3.206,7.757-3.226,15.32.221-2.406-5.916-4.115-11.6.737-16.446,4.674-4.666,10.152-4.428,16.647-1.184-3.1-6.088-5.116-11.623-.493-16.848,4.563-5.159,10.2-4.89,17.017-1.9-3.734-6.407-5.756-12.1-.7-17.456,4.439-4.7,9.854-5.067,16.917-1.336-4.488-6.667-6.111-12.239-1.434-17.482,4.459-5,10.054-5.561,17.3-1.354-3.92-6.992-5.827-12.736-.817-18,4.686-4.924,10.315-4.867,17.367-.8-3.98-7.284-5.084-13.243.746-18.11,4.872-4.069,10.192-3.656,16.53.413-3.407-7-4.431-12.9,1.514-17.639,4.829-3.849,9.888-3.6,16.16.516-3.2-6.679-5.185-12.412-.209-17.573,4.76-4.935,10.39-4.411,17.112-1.2-3.673-6.5-5.58-12.205-.479-17.507,4.436-4.611,9.733-4.637,16.234-1.471-3.275-6.034-5.369-11.48-.86-16.782,4.339-5.1,9.8-5.11,15.758-2.848-3.849-7.379-3.846-12.423-.143-16.452,4.107-4.471,8.012-4.76,18.2-1.041-2.452-7.166-2.6-13.642,4.884-17.459,5.787-2.954,10.708-.975,16.309,4.858-1.336-8.124.06-14.029,6.963-16.484,7.006-2.489,11.981.843,15.454,6.765,1.635-3.258,2.506-6.88,4.78-8.976a15.163,15.163,0,0,1,8.818-3.364c6.042-.367,9.114,3.22,11.786,12.523,5.434-4.91,11.247-8.058,18-2.8,4.849,3.777,5.348,8.494,2.039,17.413,6.794-2.048,12.979-2.1,16.756,4.9,3.608,6.685.625,11.832-5.251,16.917,8.359-.112,13.946,2.693,15.2,10.436,1.164,7.207-3.533,10.932-9.7,13.444,9.034,5.093,11.758,9.071,10.476,14.978-1.3,6-5.279,8.8-14.273,9.641,3.849,5.323,7.118,10.926,2.8,16.983-4.153,5.819-10.028,6.756-17.912,2.7,4.838,7.078,6.639,12.933,1.365,18.391-4.732,4.9-10.4,4.634-17.117.734,3.57,7.026,5.2,13.149-.906,18.216-5.13,4.253-10.533,3.6-16.9-.984,3.017,7.109,4.474,13.071-1.356,17.889-5.552,4.585-11.164,3.054-17.8-1.262,3.392,7.186,3.877,13.02-1.941,17.378-5.4,4.043-10.917,3.252-17.109-1.964,2.862,6.877,3.416,12.237-1.511,16.547-5.016,4.388-10.387,3.86-17.08-.571,3.791,6.375,5.7,11.629,1.81,16.986-3.849,5.294-9.257,5.377-15.787,3.866,4.778,4.654,8.024,9.24,5.42,15.48-2.443,5.856-7.327,7.78-15.044,7.1,7.126,4.382,10.545,9.145,8.511,15.9-1.7,5.652-6.186,8.061-13.645,8.182,6.736,3.249,11.187,6.8,10.846,13.547-.361,7.161-5.566,9.736-12.586,11.875,7.445,2.093,11.769,5.776,11.554,12.933-.2,6.6-4.56,9.653-11.609,11.706,6.92,2.177,11.829,5.113,12.337,11.824.533,7.078-3.8,10.674-11.029,13.017,7.625,2.268,12.374,6.229,11.918,13.639-.364,5.876-4.428,9.1-11.6,11.081,7.224,2.022,11.832,5.234,12.675,11.783.711,5.532-2.693,9.868-10.843,13.163,6.134,2.108,11.551,4.342,12.214,11.3.6,6.289-1.483,9.409-9.957,13.719,7.167,1.087,12.194,4.032,12.928,11.322.64,6.349-3.066,9.931-9.521,12.922,7.838.528,12.948,3.393,14.276,10.421,1.15,6.094-2.048,10.192-7.43,13.355,7.132-.034,12.592,2.085,14.663,9.137,1.7,5.79-1.087,9.985-5.655,13.952,6.386-.872,11.818.278,15.007,6.151,3.249,5.988.892,10.94-4.508,16.228,7.774-2.065,13.791-1.8,17.3,4.872,2.83,5.371,1.709,10.364-2.678,15.018,6.607-2.042,12.721-2.641,16.989,3.8,3.539,5.343,2.389,10.473-2.228,16.3,6.9-2.182,12.819-3.737,17.41,1.873s3.441,11.184-1.485,17.743c7.3-3.238,13.022-3.421,17.341,2.412,4.19,5.664,2.532,11.018-2.139,16.98,7.72-2.108,14.115-2.3,17.8,5.007,2.793,5.549,1.17,10.349-4.207,15.572,8.127-2.446,14.379-2.007,17.769,5.28,2.581,5.555,1.006,10.441-3.676,15.078,7.169-1.572,13.338-.849,16.676,6.289,2.658,5.687.427,10.376-4.451,15.3,7.921-1.918,14.049-1.078,17.189,6.289,2.441,5.73.33,10.4-4.238,14.849,7.069-1.511,13.438-1.233,16.788,6.028,2.644,5.73.663,10.691-4.714,15.8,7.218-2.3,12.707-2.182,16.527,3.507,4.207,6.263,2.056,11.741-3.545,17.539,7.29-2.26,12.9-2.234,16.742,3.866,3.9,6.186,1.8,11.445-4.044,17.456,7.462-1.689,13.43-2.578,17.516,3.43,3.375,4.964,2.911,9.713-2.24,16.785,6.88-2.352,12.988-2.879,17.241,3.6,2.974,4.534,2.613,8.517-1.6,15.615,6.679-2.721,12.8-3.673,17.4,2.633,3.507,4.809,2.933,9.739-.823,15.474,6.739-2.994,12.73-4.68,17.682,1.07,3.978,4.617,4.1,9.733.961,15.354,5.506-2.983,10.889-5.216,16.363-.992,5.5,4.247,5.646,9.879,3.011,16.911,5.644-4.628,11.032-6.782,16.756-2.985,5.687,3.774,6.128,9.535,3.92,17.175,5.1-5.936,10.132-8.161,16.119-5.443,6.338,2.876,7.3,8.569,6.458,15.018,2.587-1.767,4.637-3.648,7.049-4.72,5.713-2.535,10.892.009,14.892,5.936,1.207,1.789,4.537,3.682,6.372,3.258,11.107-2.558,14.5-.932,18.17,8.91,4.075-1.781,8.242-5.079,12.3-4.955,3.937.123,7.766,3.765,12.128,6.125,7.941-7.33,14.929-6.478,20.974,3.765q10.1-15.477,22.732-.852c6.513-10.051,14.19-10.7,21.4-2.7,3.929-2.484,7.4-5.733,11.483-6.986,4.915-1.511,8.87,1.721,11.855,5.73,6.025-10.754,13.12-12.013,21.3-4.651,3.671-2.79,6.825-6.346,10.768-7.889,4.68-1.83,9.093.631,12.583,4.993,1.583-5.34,4.422-9.053,9.57-10.192,5.082-1.124,9.076,1.15,12.449,4.884,3.464-11.786,11.287-14.178,21.623-6.788,3.223-11.465,10.946-14.244,21.081-7.588,2.65-11.58,10.2-14.829,20.676-8.9.559-9.228,7.06-16.019,18.9-11.319,3.226-12.326,6.467-14.565,18.437-12.738-.422-10.786,3.39-14.849,14.052-15.377.4-3.857-.172-8.156,1.471-11.29s5.511-5.113,8.259-7.47c-.456-3.407-2.274-7.967-1.222-11.72,1.015-3.61,5-6.387,8.047-9.96-2.736-2.664-5.54-7.186-3.252-12.185,1.652-3.608,5.165-6.363,7.6-9.211-.831-3.588-2.934-8.084-2.607-12.4.387-5.093,4.634-8.093,10.005-8.965-9.214-9-8.167-16.335,2.988-22.767-8.448-8.973-7.445-16.653,1.918-21.428-1.907-4.006-5.225-7.947-5.259-11.915-.034-3.8,3.338-7.637,5.251-11.531-1.523-2.733-5.1-6.476-5.4-10.462-.281-3.814,2.853-7.878,4.591-12.082-9.168-5.758-10.373-12.193-3.585-20.068-3-3.192-7.109-5.827-8.431-9.478-1.273-3.513.341-8.07.685-12.159-2.435-2.027-6.917-4.144-8.6-7.62-1.623-3.344-.35-8.093-.35-11.543-3.384-2.134-8.13-3.659-10.292-6.908s-1.738-8.216-2.475-12.6c-10.937.462-15.038-6.828-13.441-15.334-4.216-1.388-9.205-1.689-12.007-4.322-2.85-2.678-3.55-7.648-5.268-11.795-8.746,2.314-15.735-1.141-16.793-13.708-11.849,2.871-17.2-.694-18.542-12.354-11.941,4.018-17.287,1.127-19.839-10.734-11.3,4.792-16.019,2.793-20.183-7.683-4.626.379-9.363,2.039-13.017.711s-6.24-5.644-9.524-8.879c-8.91,5.953-15.52,4.25-19.744-5.443-4.4,1.227-8.876,3.817-12.836,3.189-3.8-.6-7.069-4.542-10.84-7.207-8.268,7.442-14.072,6.926-21.3-2.919-7.926,9.205-14.895,9.246-21.4,1.007-3.934,2.289-7.551,5.847-11.511,6.28-3.828.419-8.01-2.377-12.38-3.88-5.621,9.131-11.984,10.381-20.949,2.939-6.613,11.23-11.465,12.581-21.912,6.105-2.6,10.906-9.687,13.9-19.179,9.1-2.7,3.61-4.6,8.136-7.984,10.094-3.223,1.867-8,1.055-12.624,1.471-3.068,11.058-6.63,13.5-18.012,11.262-.12,11.594-5.42,16.378-15.159,14.832-1.052,4.279-1.024,9.228-3.4,12.357-2.263,2.982-7.029,4.061-10.938,6.1,2.985,10.229-.115,15.907-9.466,17.531.109,4.743,1.569,9.865-.072,13.636-1.557,3.582-6.361,5.75-9.874,8.649,5.991,8.956,3.659,15.669-8.2,20.106,6.24,10.909,3.823,18.118-5.913,20.748.972,4.508,2.831,8.953,2.635,13.309-.232,5.171-4.821,7.516-9.49,8.993,8.3,9.205,6.937,17.307-2.549,21.431,1.634,4.172,4.657,8.351,4.442,12.357-.206,3.828-3.78,7.473-5.678,10.852,1.474,3.077,4.046,6.739,4.955,10.774,1.121,4.976-2.535,8.3-6.312,11.084,10.241,6.954,11.144,12.942,3.378,21.972,10.656,5.042,12.512,10.648,7.218,19.836,3.332,2.7,7.668,4.7,9.432,8.058,1.746,3.329.9,8.018,1.173,11.875,2.873,1.646,7.576,2.968,9.911,6.071,2.245,2.985,2.048,7.814,2.957,12,10.212-.677,15.354,4.21,14.729,14.02,4.19.628,8.959.152,12.176,2.159s4.864,6.5,7.253,9.974c3.089,0,7.938-1.282,11.4.359,3.513,1.66,5.655,6.211,8.566,9.7,9.226-5.406,17.12-2.618,19.526,8.113,2.69-1.732,5.383-3.461,8.669-5.569-.3-1.655-.685-3.777-1.084-5.974-12.736,4.881-20.143-.39-19.262-13.825-5.113,1.474-9.905,1.362-13.886-2.687-3.906-3.975-3.734-8.652-2.389-13.521-14.31-2.071-17.837-6.805-14.479-17.459-4.221-2.446-8.956-4-11.913-7.2-3.579-3.88-2.509-9.065-.393-12.357-3.86-3.415-8.362-5.948-10.657-9.8-2.8-4.692-.737-9.73,3.479-13.5-12.8-5.81-14.643-13.952-5.423-22.976-11.735-4.981-13.057-14.267-3.275-23.008-11.273-6.389-11.692-15.89-.66-23.031-4.663-2.575-7.852-6.048-7.7-11.649.161-5.819,3.57-9.122,8.569-11.253-9.6-9.848-7.981-19.188,4.247-22.953-4.25-3.513-6.412-7.846-5.176-13.229,1.287-5.592,5.606-8.015,10.8-9.228-6.257-12.211-2.638-20,8.357-21,.336-4.907-.327-9.931,1.213-14.155,1.973-5.409,7.5-6.04,13.318-5.466-1.615-5.193-2.016-9.98,1.741-14.187,3.866-4.328,8.784-4.181,14.35-3.172-.614-5.509-.45-11.112,4.666-13.5,3.978-1.858,8.907-1.678,13.98-2.495,2.142-11.706,8.818-15.176,20.467-9.18,2.61-12.793,10.221-15.864,21.709-8.761,3.243-12.3,12.583-14.924,22.271-6.263,5.5-11.9,14.433-13.326,21.806-4.674,4.508-2.274,8.5-5.42,12.913-6.234,5.569-1.027,9.094,3.195,11.571,8.555,3.45-4.25,7.287-7.387,12.876-6.315,5.526,1.064,8.543,4.823,10.017,10.588,4.184-3.734,8.448-6.062,13.837-4.13a12.2,12.2,0,0,1,8,9.7c4.875-.218,9.681-1.465,13.862-.356,5.073,1.348,7.035,6.278,7.172,11.009,4.743,0,9.676-1.1,13.768.284,4.9,1.66,6.576,6.739,6.014,12.185,12.587-5.578,20.175,2.624,19.369,11.121,4.617.576,9.965-.132,13.473,2.076,3.341,2.108,4.763,7.258,7.25,11.445,10.5-2.905,17.476,2.271,16.653,12.518,4.775.714,9.913.41,13.963,2.366,4.95,2.389,5.784,7.749,4.4,13.579,5.323-1.706,10.138-1.606,14.1,2.486,3.8,3.926,4.006,8.572,2.486,13.481,14.5,2.458,18.2,8.064,12.982,20.011,5.383.548,10.241,2.245,12.343,7.645,2.025,5.193.729,9.871-3.78,14.109,5.787,1.027,9.885,3.854,11.256,9.346,1.445,5.8-1.248,10.057-6.237,13.507,4.924,2.538,8.684,5.784,8.755,11.669.072,5.793-3.358,9.168-8.52,11.847,4.2,3.625,7.537,7.622,6.017,13.4-1.408,5.343-5.024,8.517-10.719,9.194,8.1,11.345,5.185,19.472-6.6,21.921,0,4.958,1.067,10.008-.275,14.31-1.592,5.093-6.8,6.432-10.814,6.117-.723,4.932-.453,10.011-2.326,14.112-2.257,4.938-7.64,5.366-11.385,4.795-1.359,4.875-1.42,10.525-4.256,13.688-2.7,3.017-8.3,3.441-12.8,5.07,2.283,9.34-5.956,18.17-17.794,13.642.536,12.572-6.63,17.654-18.95,13.435-1.044,11.307-8.913,17.2-20.94,10.717-1.669,12.248-9.745,15.784-20.846,9.128-3.84,12.093-12.515,14.33-22.2,7.172-5.477,11.818-13.129,13.453-22.483,4.8-5.856,11.8-14.585,13.088-22.945,3.175-1.858,5.053-5.1,8.638-10.573,9.223-5.687.6-9.463-2.567-12.277-7.2-6.673,11.153-16.467,11.325-23.059.189-2.7,4.565-6.137,7.717-11.8,7.5-5.844-.229-8.985-3.7-11.141-8.592-8.884,9.7-18.523,8.348-22.893-3.461-3.387,4.259-7.519,6.63-13.005,5.575s-7.972-5.061-9.693-10.3c-4.084,3.573-8.468,5.733-13.731,3.843-5.139-1.847-7.393-5.982-8.076-11.181-11.62,6.582-19.985,2.679-20.992-10.123-4.605,2.248-9.217,3.983-14.02.878a11.623,11.623,0,0,1-5.63-11.617c-5.125-1.454-10.192-1.861-14.035-4.244-4.823-2.991-4.215-8.569-2.948-13.665-13.688,1.488-19.332-8.876-14.015-19.128-5.529-.057-10.416-1.362-12.842-6.8-2.291-5.145-.981-9.773,2.822-14.2-5.844-.424-10.126-2.85-11.746-8.164-1.594-5.225-.229-9.957,3.175-12.521-2.951-3.952-6.782-7.336-8.293-11.554-1.881-5.239,1.417-9.6,6.057-12.581-11.075-7.912-11.313-15.669-1.984-22.555-1.9-4.531-4.634-8.6-5.148-12.939-.637-5.366,3.4-8.729,9.191-10.9-4.815-3.372-7.2-7.511-6.255-12.936.932-5.366,4.717-8.121,9.6-9.759-8.348-10.249-6.212-18.354,5.644-22.4-7.6-10.261-5.019-18.666,5.486-21.534-.622-4.729-2.742-9.8-1.38-13.622,1.374-3.851,6.211-6.469,9.188-9.3-.247-3.7-1.534-8.448-.594-12.707,1.093-4.944,5.773-7.02,10.866-7.353-5.317-12.687-1.916-19.1,11.253-20.86-1.594-5.033-2.6-10.089,1.431-14.514a11.545,11.545,0,0,1,11.617-3.771c1.571-4.689,2.179-9.782,4.789-13.45,3.229-4.542,8.761-4.035,13.817-2.294,1-13.711,6.949-17.986,17.4-14.081,2.928-4.17,4.975-8.864,8.52-11.669,4.144-3.284,9.243-1.511,13.567,1.448,1.907-12.168,11.881-16.283,21.66-8.772,3.751-12.423,12.357-14.955,22.3-6.206,1.477-5.159,4.3-9.048,9.733-10.195,5.661-1.193,9.584,1.744,12.91,5.925,5.759-11.686,15.044-12.6,23.108-2.131,2.464-4.967,6.071-8.5,11.821-8.282,5.366.2,8.944,3.347,11.055,8.25,8.368-12.156,19.7-7.64,23.166,1.847,8.927-9.55,18.351-7.958,22.718,4.2,3.527-4.1,7.815-6.326,13.134-5.036,5.24,1.273,8.119,4.955,8.715,8.919,4.832-.682,9.464-2.311,13.774-1.692,5.3.763,7.74,5.343,8.03,9.423,4.8-.318,9.713-1.712,14.035-.662,5.357,1.3,7.146,6.51,7.313,11.979,10.82-7.075,20.911-.645,20.392,10.737,12.724-4.385,18.9-.645,19.63,10.831,4.766.812,10.186.292,13.473,2.7,3.323,2.429,4.531,7.746,6.948,12.334,11.537-1.1,17.006,4.055,15.377,14.5,4.672,1.936,10.2,2.681,13.011,5.839,2.684,3.017,2.549,8.549,3.8,13.559,11.912,1.282,16.225,8.015,10.636,19.739,5.592-.118,10.367,1.474,12.758,6.782,2.289,5.076,1.029,9.776-2.655,13.957,12.635,2.544,15.939,12.254,8.572,20.665,3.115,3.874,7.069,7.126,8.741,11.3,2.114,5.262-1.437,9.541-5.71,12.79,11.434,7.453,11.978,15.11,1.72,23.177,9.925,8.8,9.65,16.5.275,22.394,1.712,4.545,4.313,8.718,4.669,13.074.436,5.348-3.777,8.531-9.194,10.588,4.947,3.771,7.3,8.44,5.517,14.2-1.44,4.669-4.953,7.39-9.848,8.2,9.082,9.572,7.866,17.2-2.538,22.179,1.078,4.712,3.12,9.194,2.828,13.518-.344,5.036-4.775,7.723-9.661,9.028,8.97,8.265,5.824,19.739-6.212,22.469,3.315,4.614,5.291,9.446,2.051,14.8-3.037,5.021-7.818,6.412-13.4,5.922,3.616,12.2-4.62,20.579-16.719,16.69.324,5.162.04,10.109-4.669,13.4a11.435,11.435,0,0,1-12.52.895c-2.894,4.15-4.927,8.838-8.457,11.669-4.138,3.315-9.231,1.442-13.588-1.336-1.852,11.3-10.163,16.69-21.118,9.53-4.138,12.288-11.508,14.918-20.464,8.368-3.441,3.327-6.214,7.442-10.08,9.378-4.68,2.346-9.461.117-13.019-3.937-5.833,12.2-12.472,13.811-22.6,5.69-4.984,11.434-13.329,13.206-21.267,5.446-3.843,2.782-7.175,6.289-11.256,7.878-5.142,2-9.234-1.259-12.538-5.773-2.26,4.864-5.133,8.695-10.791,9.185-5.495.473-9.243-2.174-12.03-6.7-6.246,11.376-15.265,12.09-23.034,1.672-2.558,4.514-5.678,8.05-11.362,8.1-5.773.052-9.142-3.2-11.692-7.866-7.714,10.378-16.011,10.267-22.058.886-4.62,1.56-9.1,4.517-13.177,4.035-3.911-.462-7.4-4.491-11.322-7.121-4.021,5.073-9.438,6.805-17.212,3.117-3.9-1.853-9.329-.5-14.069-.588-.172,0-.379.092-.513.026-7.585-3.768-15.893.1-23.584-2.228-3.246-.984-6.372-2.363-9.85-3.674-6.693,4.829-13.129,4.617-21.542-3.083-5.328,1.5-10.206,4.439-14.3,3.59-4.215-.875-7.665-5.437-11.468-8.4-2.157,4.419-6.372,7.9-12.592,7.132-6.094-.751-9.188-5.042-10.482-11.927-3.083,5.483-6.352,9.922-12.572,10.135-6.355.212-9.653-3.829-11.634-8.282-4.887,2.151-9.4,5.279-14.258,5.982-5.976.863-9.119-3.886-11.035-10.054-2.871,5.91-6.971,9.641-13.243,8.988-6.65-.694-9.535-5.586-10.989-12.8-2.406,7.623-6.453,12.1-13.688,11.537-6.088-.47-9.3-4.7-10.958-12.133-1.9,8.213-5.589,13.16-12.931,13.266-6.372.092-9.733-4.325-12.033-10.981-2.658,8.038-6.839,12.893-14.961,11.614-5.847-.921-8.606-4.993-9.584-13.754-5.569,5.443-11.566,9.329-18.629,3.705-5.136-4.089-5.46-9.679-2.291-16.638-7.482,3.126-13.906,4.038-18.4-3.186-3.619-5.816-1.569-10.857,3-16.389-7.708,1.457-13.567.244-16.415-6.742-2.555-6.272.129-11.067,6.794-15.907-8.167.559-13.728-1.11-16.036-7.843-2.375-6.94,1.233-11.5,8.139-15.859-7.746.315-13.06-1.428-15.11-7.749-2.245-6.928.823-12,7.187-15.793-6.748-.261-11.769-2.581-13.556-8.887-1.864-6.57,1-11.442,7.155-14.961-6.539-.525-11.764-2.383-13.883-8.95-2.2-6.805,1.439-11.112,6.713-15.113-7.12.069-12.234-2.354-14.241-9.139-1.947-6.581,1.827-10.734,8.127-15.073-8.184.835-13.57-1.376-15.643-7.99-1.956-6.237.7-11.11,7.625-15.1-7.912.123-13.226-1.913-15.239-8.735-2-6.773,1.666-11.072,8.116-15.271-8.15.5-13.415-1.9-15.228-8.744-1.772-6.7,1.7-11.221,8.632-14.915-8.273-.539-13.633-3.444-14.786-10.883-1.058-6.837,3.487-10.39,9.94-13.7-8.162-.7-13.321-3.96-14.015-11.5-.576-6.223,3.467-9.753,9.888-12.7-8.127-.938-13.286-4.2-14.115-11.583-.734-6.515,3.682-9.988,9.865-13.111-7.585-.984-12.394-4.178-13.177-11.187-.823-7.353,4.109-10.78,10.966-13.409-7.585-2.5-12.013-6.722-10.978-14.3.969-7.089,6.447-9.263,13.49-10.212-5.495-4.74-9.475-9.75-6.042-16.713,2.882-5.842,8.173-7.413,14.643-6.541-5.44-3.808-9.013-8.334-7.255-14.975,1.517-5.727,6.071-8.121,12.8-8.973-6.243-2.538-10.794-5.477-11.141-12.07s3.679-9.911,10.272-12.882c-7.594-.364-12.478-2.928-14.1-9.223-1.523-5.9.984-10.447,6.275-14-6.464.734-12.26.109-15.431-6.312-3.069-6.209-.883-11.287,4.115-15.91-6.891,1.319-12.566.364-15.781-6.071-2.988-5.976-1.121-11.049,3.914-15.526-5.73,1.121-11.213,1.99-15.248-3.063-3.923-4.918-4.038-10.117-.493-15.646-4.442,2.813-8.821,5.466-14.21,3.172-5.311-2.26-7.063-6.779-7.705-12.951-1.764,5.856-4.393,9.891-10.06,11.158-6.008,1.339-9.871-1.629-13.332-6.137,2,5.343,2.908,10.53-1.4,14.987-4.069,4.213-9.094,4.468-15.342,2.274,4.428,4.8,7.728,9.2,5.34,15.236s-7.4,7.809-14.324,7.852c5.913,3.642,9.782,7.843,8.425,14.539-1.339,6.619-6.5,8.807-12.7,10.057,6.581,2.059,10.631,5.925,10.493,12.953-.132,6.682-4.729,9.55-11.652,11.8,8.1,1.818,12.865,5.5,12.644,13.16-.169,5.781-3.788,9.013-9.237,11.178,7.5.952,12.87,4.078,13.625,12.053.476,5.05-1.663,7.794-9.355,12.661,2.578,1.683,5.839,2.911,7.665,5.259a14.6,14.6,0,0,1,2.77,8.569c-.08,5.816-4.221,9.025-13.146,11.035,5.951,4.078,10.493,8.755,7.493,16.32-2.506,6.323-7.875,7.76-15.13,7.1,4.97,5.913,8.425,11.686,3.3,18.388-3.223,4.219-6.911,4.99-15.325,3.74.6,3.2,2.131,6.639,1.557,9.682a14.388,14.388,0,0,1-5.191,7.849c-5.059,3.909-9.449,2.727-16.874-3.421-4.881,8.858-9.627,11.918-15.666,10.094s-8.8-6.822-8.42-15.847c-6.3,4.322-12.6,6.45-18.5.077-3.923-4.244-3.8-9.059.3-16.9-7.683,1.359-14.126.209-16.653-8.01-1.755-5.707-.232-8.729,7.244-15.078-7.373-1.256-12.71-4.5-12.687-12.589.02-7.462,5.374-10.195,12.3-12.176-6.4-3.292-10.447-7.47-9.228-14.485,1.184-6.811,6.424-8.9,13.369-9.951-6.57-3.063-10.613-7.264-9.65-13.977.918-6.392,5.5-9.57,12.027-10.685-6.567-1.83-10.743-5.707-11.018-12.3-.267-6.4,4.112-9.891,10.418-12.412-6.779-1.471-11.652-4.124-12.707-10.743-.949-5.956,2.139-9.882,8.156-13.4-6.819.284-12.064-.728-14.829-6.412-2.67-5.486-1.359-10.361,2.719-14.975-4.594,2.865-9.205,4.3-14.129,1.769-5.1-2.621-6.584-7.209-6.493-12.845-1.523,5.518-4.316,9.624-10.183,10.96-5.994,1.368-9.828-1.718-13.493-7.072,2.8,12.75-2.776,18.666-14.1,18.325,3.966,3.886,7.209,8.443,4.881,13.438-1.833,3.937-5.89,6.834-8.62,9.822a11.708,11.708,0,0,1,10.487,9.673c1.517,6.863-2.661,10.49-8.612,14.428,7.379-.447,12.5,1.692,14.347,7.677,2.377,7.72,8.1,16.134-2.721,23.034,7.307-.218,13.005,1.735,15.081,8.738,1.867,6.3-.817,11.121-6.759,14.709,7.382-.014,13.358,1.809,15.262,9.478,1.379,5.546-.284,8.595-7.525,14.433,7.267-.106,12.859,2.025,14.694,9.028,1.755,6.69-1.83,11.164-8.434,14.9,7.981.072,13.172,2.69,14.7,9.644,1.508,6.894-2.423,11.1-8.595,14.468,6.908.45,11.763,3.232,13.4,9.951,1.781,7.35-2.8,11.147-9.323,14.614,7.545,1.265,12.435,4.565,12.939,11.643.493,6.865-3.955,10.556-11.026,12.953,8.041,2.165,12.945,5.9,12.34,13.94-.393,5.262-3.791,8.549-11.5,10.7,6.994,2.793,11.861,6.814,10.786,14.5-.832,5.959-5.282,8.595-11.749,10.329,6.535,2.432,11.293,5.543,11.505,12.4.221,7.086-4.448,10.252-11.221,12.7,7.25,1.921,11.219,5.626,11.322,12.515.109,7.2-5.288,9.727-12.053,12.561,7.892,1.569,11.953,5.452,12.222,12.11C754.185,802.978,749.244,806.2,742.427,808.492Zm-485.711-8.018q-1.63-6.766-3.255-13.53l-9.289-.462v9.768l12.67,4.1,2.931,12.767c3.671,1.1,7.849,1.563,11.127,3.53,4.849,2.908,4.869,8.213,3.914,13.392,11.675-1.959,17.307,2.647,17.427,13.791,11.425-2.286,16.257.832,18.276,11.792,10.094-4.935,14.789-3.281,20.031,6.094,4.138-1.15,8.1-3.415,11.7-2.934,3.768.5,7.184,3.642,10.849,5.684,5.5-7.78,9.762-8.566,19.718-3.112,3.418-9.9,6.854-12.079,16.868-10.711-.092-11.924,2.486-14.944,14.095-16.515-3.347-11.437,1.726-17.232,11.029-18.485.677-4.809.519-9.481,2.108-13.455,1.907-4.778,6.857-5.664,12.429-5.294-3.364-4.881-3.978-9.415-1.239-14.146,2.7-4.66,7.161-5.787,12.305-5.736-5.753-10.034-.817-19.845,11.262-19.974-5.6-11.861,1.052-19.69,9.974-19.733.565-4.6-.172-9.825,2-13.157,2.222-3.421,7.284-5,10.771-7.172,0-3.1-1.1-7.525.313-10.892,1.4-3.324,5.337-5.578,8.216-8.351-5.956-6.983-5.632-12.139,1.07-19.168-2.461-3.37-5.919-6.283-6.8-9.836-.877-3.527.837-7.7,1.437-11.738-9.507-2.971-11.7-6.418-10.387-16.443-3.78-1.529-8.173-2.148-10.694-4.652-2.581-2.564-3.324-6.972-4.884-10.6-9.922,4.221-16.469.568-18.569-11.322-11.735,4.846-17.984,1.379-19.982-11.434-4.178,3.324-9.094,5.219-13.441,2-3.5-2.587-5.721-6.9-8.749-10.757-10.31,4.434-16.415.677-18.328-12.612-9.888,4.528-19.7-.789-18.425-13.874-4.76,1.9-9.395,2.389-13.728-.843-4.35-3.243-5.056-7.855-4.488-13.186-5.067,2.271-10.086,2.357-13.387-1.477-2.759-3.2-3.917-7.783-5.543-11.242-3.189-.433-7.786.1-10.892-1.8-3.212-1.964-4.978-6.289-7.485-9.733-8.259,4.187-12.813,3.043-18.881-5.354-6.736,8.331-11.875,8.884-20.1,2.959-3.091,3.005-5.569,7.043-9.074,8.365s-8.044-.06-11.554-.229c-1.663,2.713-2.98,6.6-5.681,8.775-2.679,2.151-6.751,2.57-10.3,3.774,2.093,9.1.244,12.3-9.226,16.762.353,4.8,1.956,9.529.617,13.183-1.325,3.625-5.612,6.166-8.658,9.237,2.644,2.7,5.024,6.473,3.585,11.729-1.411,5.162-5.056,7.809-10.086,9.142,9.033,8.893,7.493,16.337-4.333,22.819l4.456,5.05,10.742-6.289c-3.35-4.273-4.385-9.1-1.4-14.235,2.948-5.07,7.863-6.125,13.461-5.69-2.2-5.692-2.033-10.717,2.168-14.852,4.451-4.382,9.69-3.74,15-1.454-.548-12.942,10.169-19.09,21.038-11.009.757-5.7,3.5-9.977,9.226-11.244,6.7-1.483,11.144,2.139,14.336,7.969,3.447-5.176,7.806-7.473,13.576-6.169,6.128,1.385,8.4,6.114,9.383,11.772,10.631-6.014,21.109-.857,20.083,12.007,12.954-4.657,20.258,4.267,18.107,14.45,10.2-3.261,18.081.734,18.385,12.8,11.9-2.859,17.533.571,18.511,10.1,4.3-.433,9.048-2.219,12.693-.918,3.711,1.328,6.338,5.7,9.518,8.813,2.813-3.725,7.622-4.826,12.776-3.08,5.856,1.985,7.858,6.883,7.711,13.418,5.908-3.283,11.13-2.6,15.46,1.921,4.456,4.643,3.456,9.983.731,15.466,6.091.172,10.76,1.97,12.994,7.559,2.406,6.019-.232,10.656-4.752,14.855,5.856,1.744,9.593,5.01,9.891,10.992.333,6.633-3.542,10.456-9.8,12.747,4.482,4.3,6.779,8.922,4.25,14.666-2.581,5.867-7.565,7.628-13.88,7.284,2.544,5.589,2.125,10.582-1.944,14.76-4.144,4.253-9.263,3.731-14.594,1.887.86,5.707-.476,10.232-5.021,13.541-4.669,3.4-9.38,1.747-14.069-.2-1.084,12.624-7.453,16.289-18.394,12.285-3.283,3.929-5.589,8.919-9.36,10.573-3.719,1.635-8.922-.109-13.791-.387-.467,3.86-2.352,8.85-7.709,9.727-4.3.7-8.962-.826-13.886-1.414-.975,3.536-3.126,7.651-8.5,9.211-5.612,1.626-9.575-1.239-13.541-4.889-1.362,6.068-4.729,9.816-10.533,10.456-5.6.617-9.578-2.529-12.483-7.258-3.648,6.177-7.4,8.858-11.9,8.382-7.023-.743-10.57-5.239-11.9-12.555C267,805.464,261.8,803.594,256.716,800.474Zm1082.5-99.06c10.654,9.231,4.689,21.284-5.469,22.583,3.731,3.949,6.039,8.248,4.1,13.693-1.867,5.251-6.094,7.445-11.328,8.256,5.707,9.67,4.5,14.393-5.073,20.794,6.243,6.816,6.627,10.154,2.142,18.528,11.282,3.742,13.318,7.852,9.828,19.833,11.259.095,15.193,4.591,14.31,15.251,4.032,1.041,8.646,1.058,11.511,3.3,2.968,2.326,4.238,6.814,5.9,9.75,3.1-.29,6.992-1.732,9.983-.66,3.694,1.325,6.636,4.74,9.246,6.751,3.562-1.222,7.448-3.788,11.061-3.45,3.782.356,7.3,3.5,11.161,5.541,1.936-3.671,5.537-7.287,10.545-6.5,4.138.645,7.938,3.459,10.983,4.889,2.916-2.05,5.985-5.13,9.693-6.593,5.38-2.119,9.343,1.689,12.856,5.44,6.266-10.688,14.187-11.66,22.328-3.129,5.775-11.029,12.208-12.489,22.093-5.021,5.641-11.023,12.019-12.672,20.55-6.5,3.109-3.258,5.546-7.708,9.151-9.073,3.731-1.414,8.595.169,13.062.447,1.038-8.8,5.621-12.067,16.777-10.909.017-9.372.811-10.671,9.862-16.134-6.533-8.5-5.91-13.461,1.692-19.882-2.4-3.5-6-6.65-6.682-10.335-.682-3.648,1.572-7.843,2.329-10.949-2.736-2.5-6.825-4.683-8.3-8.021s-.324-7.82-.324-11.824c-9.337-.189-12.354-3.5-13.585-14.37-4.267-.869-8.835-.691-11.924-2.744-3.005-2-4.494-6.272-6.7-9.624-8.965,4.8-14.367,2.922-19.816-7.576-5.583,6.444-11.987,6.28-19.033,1.514.2,2.773.344,4.732.513,7.081,5.354-3.094,10.324-3.381,14.863.473,5.068,4.3,5.165,9.724,2.524,15.658,6.22.605,11.345,2.412,13.3,8.635,2.013,6.406-1.087,10.943-6.263,14.723,5.256,3.315,8.428,7.5,7.169,13.561-1.316,6.344-6,9.122-12.4,9.8,3.849,4.66,4.749,9.469,2.042,14.365-3.074,5.56-8.262,6.888-14.846,5.483,2.46,5.879,1.649,10.72-2.67,14.663-4.571,4.173-9.785,3.005-15.268,1.044.261,6.163-1.681,10.657-7.167,13.074-5.7,2.509-10.2-.278-14.574-3.771-1.491,5.337-4.239,8.927-9.415,9.894-6.435,1.2-10.84-1.852-13.768-7.476-8.813,10.958-17.937,9.535-23.716-3.619-4.046,4-8.749,5.646-14.121,3.338-5.661-2.432-7.187-7.4-6.972-13.622-5.7,3.134-10.78,3.186-15.311-1.024-4.514-4.2-4.3-9.366-2.22-15.187-6.449.943-11.23-.938-13.926-6.467-2.753-5.644-.485-10.378,3.668-14.723-5.569-1.477-9.541-4.147-10.453-9.845-1.055-6.6,2.328-10.78,7.984-13.627-10.832-7.694-8.7-20.421,4.425-23.713-3.461-4.652-5.1-9.544-1.758-14.907,3.413-5.463,8.658-6.223,14.723-5.013-1.041-6.338-.31-11.715,5.44-14.869,5.3-2.905,10.261-1.474,14.909,2.323,1.047-5.91,3.59-10.3,9.424-11.606,5.856-1.308,10.16,1.494,13.461,6.467,2.48-5.305,5.687-8.727,11.566-8.879,5.787-.152,8.993,3.415,11.689,7.883,8.165-10.094,17.307-9.065,22.839,2.159,8.752-10.16,19.368-6.467,22.99,3.809,3.258-4.124,7.172-6.57,12.586-5.667,5.6.935,8.136,5.044,10.034,10.043,4.075-4.551,8.54-6.728,14.178-4.508,5.334,2.1,7.5,6.493,7.611,12.391,5.062-3.937,9.925-4.861,15.03-1.887,5.159,3.005,5.667,8.225,5.607,13.648,5.687-1.024,10.768-1.187,14.617,3.587,3.731,4.631,2.871,9.527.7,14.5,13.963,1.009,17.823,9.059,10.556,21.25,12.741,5.133,14.316,14.534,3.906,23.323,11.523,7.714,10.754,17.444-2.2,23.906,4.732,4.448,6.18,9.693,2.919,15.428-3.286,5.779-9.111,6.057-15.116,5.34.4,6.243-.981,11.029-6.134,14.009s-9.8.9-14.625-1.956c.387,6.309-2.395,10.224-7.556,12.3-5.188,2.082-9.63-.164-13.86-3.751-.886,5.83-3.653,9.429-8.847,11.046-5.517,1.721-9.415-1.293-13.26-4.786-1.345,5.348-4.2,8.81-9.228,10.1-5.813,1.488-9.836-1.629-13.427-5.922-1.4,5.085-4,8.385-8.867,9.79-5.9,1.7-9.828-1.468-12.28-4.107-4.35,2.653-7.967,6.47-11.884,6.808-4.109.356-8.505-2.624-13.123-4.273-6.157,9.223-13.249,9.63-22.345-.043-2.544,4.792-6.14,7.875-11.9,7.654-6.005-.232-8.853-4.425-11.422-9.205-3.943,4.565-8.385,6.857-14.052,4.889-5.79-2.013-7.895-6.716-8.1-12.939-5.282,2.982-10.146,3.814-14.975.244s-4.838-8.727-4.359-14.029c-10.656,2.354-20.344-5.188-14.565-18.93-5.515.654-10.189-.766-13.014-5.7-2.905-5.073-1.5-9.937,1.913-14.774-6.452-.585-10.594-3.436-11.827-9.561-1.388-6.911,2.561-10.92,8.073-13.9-8.646-10.272-5.979-18.721,6.805-22.532-6.117-9.965-3.547-17.02,7.536-20.693-7.241-10.444-5.724-16.464,5.546-22-9.532-9.033-7.743-17.052,5.07-22.724-6.616-12.853-2.653-19.475,12.515-20.871-1.491-5.351-1.414-10.419,3.347-14.207,4.8-3.826,9.879-3.358,15.173.006.037-5.859,1.686-10.665,7.184-12.925,5.234-2.151,10.005-.708,14.075,3.238,5.291-12.721,13.788-14.491,22.948-4.973,1.87-5.036,4.829-8.744,10.548-9.378,5.615-.622,9.3,2.38,12.449,6.951,2.357-5.426,6.028-9.277,11.219-8.6,4.281.562,8.239,3.619,12.632,5.71a11.445,11.445,0,0,1,10.866-6.14c5.664.118,8.718,3.805,11.33,8.684,2.57-5.368,6.3-7.975,11.778-7.849,5.747.129,8.767,4.015,11.348,8.706,3.521-4.448,7.433-7.1,12.862-5.953,5.409,1.141,8.245,5.021,9.644,10.229,9.971-8.985,17.725-6.771,22.778,6.134,10.656-6.928,18.554-3.08,21,10.525,4.692-2.988,9.5-3.487,14.141-.244,4.809,3.355,5.537,8.351,4.625,13.848,11.551-3.415,20.556,5.133,15.755,17.235,13.7,1.161,18.176,9.125,11.425,20.774,5.283.832,9.733,2.971,11.569,8.316,1.875,5.46-.3,10.014-4.259,13.934,11.941,4.958,13.243,14.095,3.513,23.174,4.663,2.452,8.21,5.632,8.251,11.431.043,5.9-3.479,9.223-8.451,11.758,4.956,2.822,7.814,6.45,7.364,11.99-.533,6.57-4.9,9.7-10.857,11.253,8.251,11.224,4.182,19.546-10.071,21.625,3.762,9.489-.275,19.937-15.13,18.067.674,14.31-8.575,18.179-18.554,14.264.006,13.427-10.358,17.258-19.974,11.9-.932,13.43-11.686,16.386-21.061,10.06-.029,5.492-2.426,10.181-7.474,11.336-4.224.964-9.011-.519-12.581-.834-3.028,2.948-5.721,7.51-9.484,8.7-3.917,1.239-8.867-.78-12.486-1.256-3.08,2.716-5.985,7.126-9.793,8.136-3.972,1.05-8.812-1.179-13.607-2.036-1.073,3.751-3.989,8.17-9.271,8.271-4.322.08-8.689-2.191-13.206-3.467-4.221,10.522-12.073,12.176-22.19,3.266-1.537,5.05-4.7,9.3-9.885,9.211-4.353-.077-8.663-2.578-13.367-4.127-.559.852-1.8,2.724-3.206,4.861,8.835-2.042,11.867-.794,17.267,6.9,2.452-4.35,5.862-8.133,11.029-7.155,4.184.794,8,3.519,11.25,5.044,2.8-1.9,5.7-4.909,9.194-6.008a10.709,10.709,0,0,1,12.1,4.391c4.075-2.722,7.445-6.581,11.244-7.066,3.989-.51,8.388,2.214,11.506,3.183,3.289-2.575,6.36-6.69,10.1-7.43,3.914-.777,8.474,1.689,12.862,2.762,2.971-9.888,10.4-12.317,20.716-5.672,3.361-11.431,9.1-13.86,20.791-8.8,1.835-11.207,7.482-14.3,19.435-10.654,1.861-11.818,6.533-15.084,16.9-12.81,1.916-4.141,2.816-9.1,5.787-11.646,2.937-2.518,7.964-2.6,10.932-3.439,1.405-4.032,1.809-8.982,4.476-11.772s7.6-3.41,11.669-5.036c-2.934-9.9,2.753-16.349,12.119-16.656.419-4.439-.353-9.337,1.554-12.727,1.887-3.352,6.481-5.185,9.148-7.141-.143-3.926-1.506-8.54-.106-12.05s5.563-5.933,7.829-8.159c-.783-3.9-2.862-8.239-2.05-11.944.8-3.639,4.537-6.636,6.415-9.154-1.5-3.5-4.4-7.275-4.37-11.032s3.011-7.465,4.376-10.482c-2.117-3.048-5.819-6.209-6.455-9.9-.66-3.814,1.655-8.141,2.667-12.237-9.234-1.85-12.122-8.334-8.265-18.207-3.725-2.3-8.3-3.725-10.4-6.819-2.116-3.114-1.781-7.895-2.395-11.264-3.559-1.511-8.3-2.254-10.937-5.01s-3.137-7.516-4.124-10.178c-4.333-1.339-9.168-1.537-11.918-4.032-2.9-2.63-3.805-7.45-5.609-11.368-9.079,3.863-17.869-.748-17.685-11.732-4.565-.66-9.85,0-13.051-2.271-3.338-2.372-4.669-7.568-6.406-10.682-4.009-.571-9.183.029-12.526-2.165-3.295-2.159-4.735-7.149-7.089-11.064-3.269,1.787-8,2.962-11.7-.41-3.149-2.862-5.073-7.069-7.64-10.829-9.022,4.591-16.271,1.038-18.382-8.813-4.436.47-9.128,2.237-12.8,1-3.656-1.239-6.289-5.5-9.541-8.595-8.348,6.252-15.038,4.892-20.452-5.033-8.1,8.695-13.831,8.672-21.164.774-3.723,2.288-7.058,5.761-10.78,6.24-3.857.5-8.087-1.91-12.406-3.117-4.881,9.716-11.006,11.276-20.954,4.425-2.71,11.5-9.9,14.387-19.535,9.154-2.547,3.631-4.273,8.3-7.591,10.209-3.375,1.936-8.319,1.141-11.916,1.483-1.938,3.246-3.318,7.829-6.4,10.083-3.043,2.225-7.8,2.1-10.849,2.787-1.54,3.874-2.171,8.595-4.844,11.3-2.618,2.644-7.318,3.232-10.026,4.3-.792,4.055-.528,8.8-2.656,11.91-2.142,3.126-6.662,4.629-10.261,6.92,4.061,9.36,1,15.569-9.862,18.683,6.607,9.9,4.712,16.455-4.973,20.711,1.262,4.276,3.912,8.6,3.264,12.348-.685,3.963-4.517,7.384-6.4,10.192,1.46,3.731,4.505,7.843,4.167,11.654-.347,3.946-3.98,7.6-5.753,10.651,1.764,2.922,5.489,6.4,5.627,10.014.158,4.21-2.825,8.537-4.548,13.086,9.116,5.822,9.791,12.532,1.2,21.586,11.041,3.851,12.953,11.778,5.242,21.737,11.307,2.2,13.711,11.336,8.841,19.842,10.814,2.165,13.7,6.989,11.454,17.656,3.946,2.157,8.655,3.347,10.96,6.369,2.38,3.12,2.423,8.021,3.585,12.523,10.817.975,12.675,2.848,14.379,15.463,12.262-.075,15.1,2.085,16.948,12.882,10.3-3.883,14.158-2.618,19.2,5.664,3.869-1.554,7.6-4.273,11.268-4.184s7.235,3,9.547,4.072c3.9-2.372,7.379-6,11.2-6.4,3.966-.41,8.253,2.309,12.566,3.714,4.285-9.616,11.672-11.115,20.418-4.173,3.628-3.034,6.668-7.41,10.5-8.282,3.992-.906,8.755,1.571,13.3,2.6,2.845-9.478,10.5-11.761,20.923-5.2,5.013-11.586,11.124-13.5,21.846-6.673.3-5.211,2.67-9.693,7.559-10.771,4.135-.912,8.767.407,12.1.657,2.552-3.117,4.64-7.714,8.118-9.355,3.5-1.652,8.385-.364,11.491-.364,2.7-3.639,4.583-8.285,8-10.206,3.332-1.872,8.233-.958,11.58-1.2,1.374-3.126,2.013-7.786,4.663-9.8,3.433-2.621,8.471-3.137,12.182-4.35,1.03-3.189,1.3-7.772,3.7-10.459,2.558-2.868,7.124-3.943,10.975-5.882-2.862-9.286-.284-14.333,8.735-17.321-1.03-3.952-3.33-8.041-2.687-11.6.674-3.734,4.167-6.957,5.9-9.6-1.707-3.665-4.984-7.568-4.91-11.4.078-3.983,3.4-7.9,5.326-11.887-8.99-4.413-10.086-10.995-3.433-20.111-2.925-3.02-7.075-5.455-8.073-8.818-1.164-3.934.425-8.68.832-13.226-9.363-1.554-12.4-6.662-9.974-17.135-3.963-1.91-8.586-2.859-11.052-5.687s-2.753-7.522-3.648-10.309c-3.854-.966-8.615-.949-11.586-3.246s-4.124-6.894-5.767-9.919c-3.677,0-8.405,1.259-11.761-.347-3.479-1.666-5.629-6.105-7.7-8.555-3.983.436-8.655,2.22-12.328,1-3.61-1.2-6.209-5.454-8.552-7.7-3.585,1.027-7.9,3.611-11.686,2.977-3.975-.665-7.431-4.414-11.276-6.923-7.64,7.924-15.75,6.734-21.192-3.843-6.513,10.39-13.946,10.783-22.7,1.2-7.975,9.512-14.046,9.656-22.414.525-6.957,10.218-12.509,10.938-21.393,3.714-3.513,2.7-6.473,6.541-10.109,7.356-3.805.852-8.259-1.2-11.944-1.9-2.271,2.446-4.488,6.553-7.843,7.969-3.476,1.468-8.053.327-12.271.327-1.557,9.383-4.9,12.1-14.915,12.208-.639,3.952-.315,8.3-2.136,11.4-1.775,3.017-5.738,4.746-8.807,7.089C1351.66,689.972,1349.684,696.889,1339.216,701.414ZM328.008,636.007c-9.736,4.715-13.533,3.871-19.988-4.6-4.436,7.829-11.009,8.417-17.4,5.506-2.443,3.768-3.906,7.9-6.825,9.991-2.871,2.056-7.224,2.048-11.035,2.974.642,11.328-2.088,14.459-14.376,15.916,4.092,12.007-2.291,18.19-12.483,18.772,3.863,11.368,1.365,16.478-8.784,19.57.619,3.765,2.225,7.6,1.528,10.963-.685,3.3-3.705,6.123-5.7,9.145,8.466,4.8,9.641,9.75,4.97,19,3.4,2.75,7.749,4.734,9.452,8.07,1.715,3.355.8,8.055,1.041,12.288,10.536.949,14.069,5.609,12.383,17.178,10.255-1.138,12.767.528,17.08,10.737,3.863-.189,7.648-1.222,10.857-.284,3.094.9,5.595,3.834,7.453,5.208,2.871-2.179,5.621-5.916,8.709-6.217,4.5-.439,9.243,1.591,13.263,2.438,2.3-2.231,4.76-6.492,8.093-7.353,4.107-1.058,8.947.714,13.84,1.308,3.995-10.1,9.182-12.093,20.292-6.759,5.024-12.377,8.133-13.8,20.662-9.452,2.025-11.6,7.379-14.454,19.8-10.565.886-11.534,5.733-15.147,16.785-13.209,1.6-3.891,2.283-8.437,4.892-11.1,2.526-2.587,7.032-3.241,10.737-4.775-2.773-8.792-.126-14.141,9.062-17.353-7.551-7.536-7.516-12.893.135-20.716-9.673-3.636-11.437-7.984-7.941-19.578-9.77-.958-11.984-3.077-14.227-13.613-9.983,2.635-13.86.749-18.6-9.048-10.226,8.081-19.1,4.783-21.746-8-2.822,1.167-5.661,2.337-8.678,3.585l-.516,7.353c13.034-2.638,19.165,4.826,15.279,18.075,5.787-.413,10.639,1.15,13.441,6.639,2.934,5.735.149,10.473-3.41,15.127,6.272,1.873,9.928,5.475,9.879,11.709-.052,6.636-4.15,10.215-10.2,11.936,7.545,11.927,4.1,18.979-10.722,21.973,1.936,5.216,1.913,10.2-2.22,14.462s-9.165,3.7-14.29,2.168c.089,14.347-8.259,18.953-20.814,11.818-.843,5.618-3.487,10.005-9.263,11.273-6.407,1.408-10.969-1.692-14.121-7.66-3.415,5.282-7.737,8.09-13.731,6.748-6.458-1.448-8.83-6.435-9.6-12.767-5.15,3.688-10.046,4.092-14.918.817-5.185-3.484-5.242-8.838-4.439-14.433-5.69,1.267-10.516.76-14.124-3.742-4.256-5.305-2.6-10.619.737-16.019-6.246-.875-10.794-3.355-12.013-9.506-1.319-6.653,2.137-11.018,8.058-14.1-5.922-3.312-8.113-7.946-6.685-13.837,1.514-6.24,6.275-8.655,12.75-8.824-3.35-5.735-4.3-11.187.181-16.177,4.878-5.426,10.682-4.54,16.7-1.276,1.044-6.025,3.679-10.215,9.6-11.339,7.072-1.345,11.176,2.747,14.278,8.54,3.576-4.64,7.671-7.316,13.281-5.807,6.573,1.769,9.165,6.7,9.283,13.484,5.555-3.232,10.72-3.691,15.311.522,5.265,4.829,4.649,10.6,1.523,16.378,8.861,2.747,12.317,6.636,11.408,13.384-.324,2.406-1.408,5.638-3.212,6.725-3.725,2.248-8.167,3.306-12.555,4.944a11.538,11.538,0,0,1-5.733,11.973c-5.9,3.616-11.153,1.236-15.9-2.925-3.588,9.647-9.851,13.263-16.894,10.1-6.458-2.9-9.076-10.55-5.142-16.5,1.5-2.268,4.37-5.065,6.639-5.085,4.6-.043,9.208,1.649,13.863,2.635,1.66-7.554,5.371-10.071,15.248-9.664l2.6-11.508c-7.531-.906-11.029-5.879-11.571-12.2-4.058,0-8.1.972-11.293-.267-3.324-1.293-5.819-4.714-8.792-7.307-4.511,6.716-10.866,6.819-18.021,3.134-1.666,7.545-5.7,11.812-12.391,11.586.379,3.909,1.755,7.966.826,11.4-.921,3.393-4.173,6.154-6.421,9.223,6.992,5.366,7.84,9.71,3.513,18.055,3.263,2.205,7.359,3.731,9.366,6.676,2,2.925,1.893,7.281,2.727,11.087,9.945-1.156,13.513,1.365,16.117,11.161,3.8-.381,7.723-1.749,11.015-.838,3.447.958,6.286,4.1,9.426,6.318,5.612-7.284,10.02-8.015,18.454-3.226,2.633-3.252,4.585-7.379,7.829-9.182,3.154-1.752,7.634-1.121,11.566-1.537-1-9.277,3.046-13.564,13.573-14.525.264-4-.5-8.319,1.052-11.5,1.6-3.272,5.477-5.431,8-7.743-.952-2.845-3.04-6.223-2.922-9.521s2.443-6.507,3.479-8.984c-2.466-2.131-6.163-3.863-7.261-6.627-1.506-3.785-1.038-8.354-1.434-12.79-10.37-.86-12.922-3.774-13.16-14.938-4.333-1.11-9.188-1.087-12.1-3.456-2.985-2.429-4.069-7.2-6.057-11.084C336.631,650.022,331.7,647.4,328.008,636.007ZM1426.292,803.738c6.521-8.95,11.3-9.587,21.135-3.114,4.669-9.739,7.947-11.144,18.233-8.583,2.036-3.768,3.183-8.159,6.022-10.5,2.77-2.288,7.267-2.486,11.081-3.628-1.99-9.489,1.242-14.422,11.5-16.728-4.99-8.767-4.267-12.879,3.714-19.891-7.688-4.287-8.858-10.743-6.091-17.235-3.76-1.807-7.783-2.69-10.12-5.165-2.309-2.443-2.914-6.5-4.279-9.879-10.028,3.656-14.706,1.408-18.531-8.552-3.932,1.124-7.941,3.487-11.525,2.959-3.728-.548-7.04-3.889-10.711-6.114-3.785,6.481-9.963,7.559-17.376,4.322-.046,7.978-4.006,12.3-11.256,13.805,5.3,9.314,4.818,12.543-3.063,20.421,7.316,3.573,9.908,9.263,7.548,16.257l10.889,5.408c3.028-2.578,5.813-6.587,9.421-7.568,3.74-1.018,8.276.9,12.609,1.554,2.452-8.531,8.58-12.6,15.873-9.862a11.749,11.749,0,0,1,6.558,15.839c-3.281,7.12-10.324,8.316-19.8,3.355-3.258,12.569-11.287,15.076-22.3,6.963-4.608,7.786-9.6,10.462-15.663,8.408-6.424-2.171-8.626-7.3-7.149-16.945-6.111-.135-10.929-2.647-12.6-8.761-1.658-6.042,1.044-10.722,6.6-14.247-5.977-2.664-9.544-6.748-8.735-13.083.806-6.318,5.211-9.461,11.221-10.619-5.308-8.354-4.872-12.644,1.749-19.46-3.112-1.236-6.3-2.5-9.481-3.762-3.028,9.32-6.364,11.531-16.779,10.872,1.574,8.9-2.025,14.608-11.009,16.544,5.873,9.664,4.683,14.468-3.811,20.149,2.036,3.539,5.213,6.837,5.669,10.479.453,3.576-1.858,7.5-2.982,11.362,8.775,3.734,10.507,7.353,8.222,18.118,11,.513,13.805,3.163,14.9,14.075,10.892-3.192,13.874-1.835,19.541,8.867C1414.15,793.4,1420.62,794.575,1426.292,803.738ZM208.332,676.009c4.505,3.106,6.6,6.983,5.93,12.194s-4.17,7.981-8.649,9.991c9.191,7.677,9.142,14.344.075,22.368,8.385,6.894,8.942,9.894,4.25,19.34,3.272,3.04,7.554,5.337,8.973,8.807,1.468,3.59.158,8.316.08,11.654,3.063,1.643,7.158,2.885,9.888,5.532,4.041,3.92,2.736,9.145.857,13.7,3.272.318,6.217.6,8.546.829l.926-11.7c-13.493-2.578-16.682-9.1-10.037-21.746-6.011-.513-10.244-3.344-11.611-9.36s1.956-10.063,6.6-13.55c-5.647-2.561-8.867-6.407-8.21-12.369.723-6.547,4.978-9.92,11.915-11.006-3.481-4.709-4.468-9.286-1.724-14.31,2.759-5.053,7.485-5.936,12.652-6.125-5.3-11.437-1.144-18.058,12.087-19.948-4.2-12.406,4.425-20.195,14.958-17.677-1.884-15.623,9.458-19.776,19.466-14.155.009-6.673,2.756-11.6,9.409-13.1,6.26-1.408,10.473,2.073,13.8,7.565,2.9-5.718,7.33-8.179,13.358-6.974,6.484,1.3,9.033,6.025,9.452,11.849,3.327-1.445,6.289-2.736,9.349-4.066l.654-7.012c-12.182,2.822-16.5-.238-18.749-13.223-10.955,2.578-14.5.473-18.646-11.052-9.435,4.746-13.911,3.493-19.248-4.723-3.209,1.9-6.212,4.846-9.57,5.34-3.5.51-7.339-1.351-11.092-2.191-3.542,9.914-7.6,11.9-18.861,8.87.141,9.767-3.487,13.432-13.708,14.832-.622,4.27-.169,8.827-2.059,11.984-1.861,3.109-6.094,4.8-8.391,6.461.467,4.038,2.248,8.566,1.061,12.1-1.25,3.719-5.334,6.487-8.319,9.828C220.465,663.027,219.069,670.274,208.332,676.009Zm1198.4,15.572,8.643,1.66c-.588-3.5-1.075-6.4-1.718-10.221C1410.792,686.559,1408.868,688.937,1406.729,691.581Zm-1047.3-60.609-7.479,2.306v5.956l7.479-2.8ZM1383.566,901.023c-3.419,2.234-5.8,3.573-7.9,5.265-.946.76-1.331,2.22-1.97,3.364l1.485.992C1375.4,905.548,1383.007,907.088,1383.566,901.023Z" transform="translate(-62.869 -64.749)" fill="#db268e"/>
</svg>
